{"glyphs":{"0":{"ha":585,"x_min":27,"x_max":534,"o":"m 241 975 l 307 975 q 460 905 378 966 q 530 656 530 842 q 534 530 530 607 q 530 294 530 431 l 530 289 q 495 88 530 262 q 503 -4 503 19 q 464 -47 503 -47 q 442 -8 442 -25 l 442 119 l 429 119 l 429 79 q 390 44 416 44 q 346 149 346 60 q 324 184 335 184 l 324 149 q 294 114 321 114 q 276 171 276 125 q 250 132 267 170 q 263 71 263 83 q 233 27 253 45 l 220 27 q 189 71 189 47 q 206 180 189 90 l 197 184 l 189 184 l 189 162 q 158 114 189 136 l 149 114 q 127 167 133 114 q 102 184 109 167 q 110 263 102 219 l 102 267 q 75 237 94 248 l 49 237 q 27 271 27 248 l 27 673 q 110 914 27 857 q 241 975 152 960 m 250 709 q 237 621 237 681 l 237 617 l 241 591 q 237 569 237 583 l 237 564 q 241 551 237 551 l 237 530 l 237 324 q 250 267 237 267 l 281 267 q 324 315 324 267 l 320 359 l 320 691 q 290 709 313 709 l 250 709 z "},"1":{"ha":293,"x_min":25,"x_max":246,"o":"m 152 984 l 166 984 q 246 946 220 984 l 246 18 q 227 0 246 12 l 218 0 q 195 37 195 12 q 209 117 195 56 l 209 160 q 199 170 209 170 l 180 170 l 180 127 q 152 75 180 90 q 128 103 145 75 l 128 108 q 96 258 128 258 l 91 250 l 91 178 q 72 160 91 172 l 67 160 q 48 178 60 160 l 48 240 q 30 306 30 302 q 25 386 30 366 q 30 513 30 452 l 30 635 q 35 654 30 646 q 30 659 35 659 q 35 777 35 736 l 35 876 q 77 970 35 970 q 152 984 105 970 z "},"2":{"ha":618,"x_min":20,"x_max":582,"o":"m 350 970 q 475 924 408 960 q 577 720 577 833 l 577 566 q 373 330 577 395 q 271 297 271 318 l 271 222 q 294 227 286 222 q 526 218 337 222 q 582 172 552 218 l 582 106 q 535 65 582 80 q 489 0 535 0 q 452 79 452 22 l 447 79 l 447 33 q 419 9 434 9 q 391 83 391 9 q 387 102 387 83 l 359 56 q 345 46 347 46 l 322 46 q 294 70 296 70 l 294 65 q 299 46 294 62 q 271 0 299 16 l 248 0 q 220 37 240 0 l 220 74 q 206 102 220 98 l 201 102 l 169 79 l 151 79 q 109 214 119 79 q 94 222 97 222 l 90 222 q 71 144 71 180 l 71 70 q 48 33 54 33 l 39 33 q 20 56 20 42 q 30 162 30 135 l 30 297 q 76 436 30 358 q 243 538 164 538 q 331 557 243 544 q 350 622 350 574 l 350 650 q 336 677 350 673 l 290 677 q 271 659 282 677 l 271 585 q 215 552 248 552 l 118 552 q 35 631 35 570 l 35 705 q 229 970 35 903 l 350 970 z "},"3":{"ha":727,"x_min":7,"x_max":709,"o":"m 330 979 l 395 979 q 575 882 474 979 q 630 771 630 803 l 630 684 q 598 595 616 628 q 709 365 709 475 l 709 304 q 653 153 709 248 q 612 41 653 41 q 575 115 575 41 q 528 148 557 120 l 519 148 q 496 102 508 148 l 496 74 q 501 33 496 57 q 487 0 494 0 l 469 0 q 446 138 450 0 q 431 143 431 138 l 422 138 l 399 138 l 362 51 q 330 41 344 41 q 279 120 294 41 q 256 134 271 120 l 247 134 l 224 130 l 224 125 q 229 106 224 115 q 205 64 217 64 l 191 64 q 164 180 174 64 q 159 189 159 180 l 122 189 q 90 111 99 145 q 94 97 94 102 q 62 23 86 23 l 58 23 q 30 64 30 39 l 30 106 q 7 281 30 214 l 7 360 q 39 393 17 382 l 187 393 q 242 309 242 374 q 321 231 271 231 l 358 231 q 482 304 449 231 q 492 347 487 338 q 362 457 472 457 q 275 485 292 457 q 265 522 265 502 l 265 610 l 168 610 q 94 669 132 610 l 94 697 q 252 956 94 880 q 330 979 261 965 m 321 711 l 321 679 q 413 707 410 684 l 413 715 q 376 739 413 724 q 321 711 337 739 z "},"4":{"ha":644,"x_min":7,"x_max":604,"o":"m 347 967 q 425 924 425 967 l 420 902 l 499 910 q 604 871 604 903 l 604 279 q 586 157 593 157 q 595 79 595 135 l 595 57 q 582 43 595 50 l 569 43 q 547 74 562 43 l 547 83 q 555 117 555 113 l 555 144 l 551 144 q 530 96 551 104 l 525 96 q 464 161 464 150 l 460 161 l 460 135 q 469 65 460 129 l 469 18 q 451 0 469 11 l 442 0 q 420 26 436 0 q 425 100 425 54 q 404 117 405 109 l 404 296 q 386 309 404 300 l 377 305 l 368 305 q 294 318 326 318 l 133 318 q 50 313 98 318 q 7 340 8 327 l 7 353 q 124 662 7 364 l 212 924 q 255 963 218 946 l 312 963 q 347 967 330 963 m 399 819 l 298 518 l 329 518 l 373 523 l 373 518 q 404 536 404 529 l 404 819 l 399 819 z "},"5":{"ha":579,"x_min":27,"x_max":543,"o":"m 68 970 l 456 970 q 511 928 494 970 l 511 814 q 465 737 492 737 l 460 737 q 456 742 456 737 l 447 737 l 255 737 q 237 714 246 735 l 246 710 l 305 710 q 460 646 397 701 q 538 509 538 563 q 543 495 543 509 l 543 212 q 511 144 511 161 l 511 98 q 515 3 511 62 q 497 -25 506 -25 l 484 -25 q 460 16 460 -14 q 470 80 470 60 q 460 140 460 121 q 447 112 447 135 l 447 80 l 456 48 q 433 16 444 19 l 415 16 q 397 35 408 16 l 397 71 q 337 94 367 71 q 273 71 273 86 q 228 12 273 28 q 169 121 186 12 q 146 172 153 163 l 123 176 q 100 107 100 137 l 100 94 q 109 57 109 62 q 86 16 109 35 l 68 16 q 50 35 61 16 l 50 66 l 59 121 q 45 258 45 202 l 45 308 q 77 404 45 388 l 219 404 q 260 368 250 391 l 260 272 q 287 231 260 231 q 333 258 333 243 l 333 458 q 296 486 318 486 l 82 486 q 27 536 43 505 l 27 924 q 68 970 41 957 z "},"6":{"ha":532,"x_min":20,"x_max":515,"o":"m 203 972 l 311 972 q 447 892 370 968 q 486 781 486 827 l 486 644 q 451 602 456 602 l 404 602 l 395 606 l 395 597 q 515 350 515 532 l 511 333 l 515 324 q 473 171 515 245 q 464 136 473 167 l 464 85 l 468 60 q 443 9 468 27 l 438 9 q 408 56 421 17 q 417 128 417 90 l 417 153 q 387 196 396 196 q 378 188 378 195 l 378 183 q 383 136 378 165 q 357 102 372 108 l 349 102 q 328 141 336 102 l 328 158 q 332 175 328 168 q 323 213 328 182 l 311 213 l 311 209 q 259 85 302 85 q 221 149 221 100 l 195 162 l 186 162 q 182 128 186 132 q 186 81 186 99 l 186 21 q 170 0 176 0 l 153 0 q 140 13 146 0 l 140 39 q 149 149 140 93 q 119 205 149 171 q 114 218 114 213 q 119 222 119 218 l 110 226 l 97 209 l 97 115 q 46 43 82 43 q 20 73 20 68 l 20 102 q 29 149 29 144 l 29 218 q 20 298 20 290 l 20 448 q 41 827 20 827 q 153 951 41 880 l 203 972 m 229 734 l 229 627 l 294 627 l 289 678 l 289 721 l 294 742 l 281 751 l 246 751 q 229 734 240 751 m 242 431 l 229 414 l 229 333 q 242 320 229 327 l 281 320 q 315 367 315 320 q 276 427 315 427 q 242 431 272 431 z "},"7":{"ha":588,"x_min":14,"x_max":599,"o":"m 61 972 l 569 972 q 599 921 599 972 l 315 279 l 212 77 q 164 0 176 2 l 142 0 q 130 13 136 0 l 130 26 q 173 151 173 95 l 164 155 l 155 155 q 130 112 155 134 l 121 112 q 109 125 115 112 l 109 151 q 142 245 130 170 l 134 250 q 74 125 91 193 q 61 116 63 116 l 48 116 q 31 142 39 116 q 104 306 78 212 q 147 400 104 317 q 212 542 168 465 q 250 628 216 564 l 302 740 l 302 753 l 293 749 l 91 749 q 14 822 40 749 l 14 917 q 61 972 21 972 z "},"8":{"ha":563,"x_min":27,"x_max":544,"o":"m 240 979 l 326 979 q 471 901 398 970 q 521 784 521 826 l 521 607 q 498 517 521 575 q 539 431 539 457 l 539 313 q 544 181 539 262 q 507 127 544 151 q 517 68 517 91 q 475 41 496 41 q 462 68 462 62 q 467 145 462 83 l 448 159 l 444 159 q 421 127 439 159 l 421 77 q 380 41 406 41 q 335 113 340 41 q 321 149 332 113 l 313 149 q 262 109 288 109 l 254 109 q 213 163 231 116 l 204 163 l 195 122 l 195 77 q 199 27 195 58 q 172 0 196 12 l 159 0 q 136 22 153 0 l 136 59 q 145 109 145 103 q 127 163 137 163 l 118 163 l 86 140 l 63 140 q 27 258 36 140 l 27 394 q 68 512 27 414 q 32 680 32 568 l 32 684 q 113 915 32 867 q 240 979 113 943 m 249 725 l 249 644 q 245 639 249 639 q 276 612 245 612 l 281 612 q 313 630 305 612 l 313 716 q 299 743 313 739 l 267 743 q 249 725 260 743 m 262 404 q 245 362 249 388 l 249 335 l 249 299 q 262 286 249 292 l 313 286 q 335 331 335 296 l 335 353 q 272 404 335 404 l 262 404 z "},"9":{"ha":549,"x_min":20,"x_max":519,"o":"m 210 975 l 307 975 q 497 838 414 975 q 519 768 510 806 l 519 243 q 510 208 519 239 l 510 163 q 479 106 510 125 l 466 106 q 431 119 458 106 q 360 88 394 119 l 356 88 q 311 168 311 88 q 290 115 296 168 l 290 79 l 298 49 q 276 18 287 20 l 267 18 q 250 49 260 18 q 258 84 258 64 l 258 150 l 250 150 q 193 115 210 115 l 188 115 q 166 141 166 127 l 149 128 l 140 128 q 122 159 122 135 l 122 203 q 113 212 122 212 l 104 212 q 87 168 96 212 l 87 106 q 91 35 87 81 q 69 0 91 14 l 64 0 q 52 14 58 0 l 52 49 q 60 84 52 52 l 60 115 q 38 216 50 184 l 38 397 q 69 428 38 404 l 161 428 l 161 433 q 38 547 120 433 q 20 609 20 604 l 20 785 q 113 935 34 871 q 210 975 181 975 m 237 711 q 223 688 237 703 l 223 635 q 245 618 224 629 l 272 618 q 311 640 311 627 l 311 684 q 258 711 305 711 l 237 711 m 237 415 l 237 406 l 245 393 l 245 273 q 272 260 250 260 q 311 287 302 264 l 311 401 q 285 415 307 415 l 241 410 q 237 415 241 415 z "},"\u0000":{"ha":0,"x_min":0,"x_max":0,"o":""},"\u001d":{"ha":0,"x_min":0,"x_max":0,"o":""}," ":{"ha":345,"x_min":0,"x_max":0,"o":""}," ":{"ha":345,"x_min":0,"x_max":0,"o":""},"!":{"ha":321,"x_min":47,"x_max":259,"o":"m 107 992 l 208 992 q 259 942 259 985 l 259 285 q 250 271 259 283 l 250 189 q 218 152 246 152 l 199 174 l 199 285 q 176 363 176 317 l 172 363 q 162 340 172 355 q 167 331 162 331 l 162 275 l 162 202 q 153 193 162 193 l 135 193 q 125 202 125 193 l 125 253 q 117 368 125 317 l 107 368 q 84 358 96 358 l 84 280 q 66 262 84 273 q 47 280 59 262 l 47 960 q 107 992 69 992 m 125 179 l 130 179 q 240 87 229 179 l 240 -9 q 218 -46 240 -34 l 213 -46 l 185 -23 l 158 -46 l 139 -46 q 125 -37 128 -37 q 107 -73 120 -37 l 98 -78 l 89 -78 q 71 -60 81 -78 l 71 -5 q 57 60 71 0 l 57 78 q 125 179 57 129 z "},"\"":{"ha":385,"x_min":36,"x_max":332,"o":"m 241 1109 l 302 1109 q 332 1090 332 1107 l 332 844 q 326 839 332 844 l 326 808 q 307 794 324 794 l 296 803 l 296 844 q 282 873 282 857 l 279 873 q 274 865 279 871 q 277 861 274 861 l 274 841 l 274 813 q 269 810 274 810 l 258 810 q 252 813 252 810 l 252 832 q 247 876 252 857 l 241 876 q 228 872 235 872 l 228 842 q 217 836 228 840 q 205 842 212 836 l 205 1097 q 241 1109 218 1109 m 241 1109 l 302 1109 q 332 1090 332 1107 l 332 844 q 326 839 332 844 l 326 808 q 307 794 324 794 l 296 803 l 296 844 q 282 873 282 857 l 279 873 q 274 865 279 871 q 277 861 274 861 l 274 841 l 274 813 q 269 810 274 810 l 258 810 q 252 813 252 810 l 252 832 q 247 876 252 857 l 241 876 q 228 872 235 872 l 228 842 q 217 836 228 840 q 205 842 212 836 l 205 1097 q 241 1109 218 1109 m 72 1109 l 132 1109 q 162 1090 162 1107 l 162 844 q 157 839 162 843 l 157 808 q 137 794 155 794 l 126 803 l 126 844 q 113 873 113 856 l 110 873 q 104 865 110 870 q 107 861 104 861 l 104 841 l 104 813 q 99 810 104 810 l 88 810 q 83 813 83 810 l 83 832 q 77 875 83 857 l 72 875 q 58 871 64 871 l 58 842 q 47 836 58 840 q 36 842 43 836 l 36 1097 q 72 1109 49 1109 z "},"#":{"ha":1231,"x_min":47,"x_max":1177,"o":"m 603 1139 l 618 1139 q 621 1135 621 1139 q 623 1093 621 1093 q 629 1086 625 1093 l 629 1085 l 623 1078 l 623 1050 q 574 1032 623 1032 l 570 1032 q 548 1062 548 1032 l 548 1075 q 540 1082 544 1075 l 547 1091 q 545 1135 545 1120 l 548 1136 l 564 1136 l 572 1137 q 577 1058 574 1126 l 593 1058 l 596 1059 l 591 1136 q 603 1139 597 1139 m 668 1136 q 746 1121 741 1124 q 739 1100 743 1100 q 715 1103 717 1103 l 711 1082 q 719 1074 713 1082 q 709 1061 709 1067 q 700 1025 703 1025 q 675 1032 675 1027 q 682 1072 680 1059 q 675 1081 677 1075 l 686 1088 q 688 1108 686 1093 q 663 1114 663 1111 q 668 1136 664 1136 m 486 1123 q 507 1093 502 1123 q 482 1085 485 1085 q 476 1095 477 1095 q 460 1090 460 1094 q 475 1067 460 1072 l 469 1057 q 476 1039 473 1039 q 490 1045 490 1042 l 490 1046 l 489 1057 q 515 1063 505 1062 q 521 1039 521 1048 q 467 1012 521 1022 q 441 1049 449 1012 l 431 1055 l 437 1065 q 430 1095 430 1092 q 486 1123 430 1115 m 781 1113 q 854 1081 851 1086 l 846 1061 l 821 1071 l 814 1050 q 818 1040 818 1044 q 802 1020 802 1034 q 791 997 793 998 q 768 1007 768 1004 q 782 1046 768 1010 q 778 1057 778 1053 q 795 1081 795 1063 q 772 1090 774 1090 q 781 1113 772 1099 m 366 1080 q 394 1048 380 1080 q 406 1042 406 1046 q 403 1034 403 1036 q 416 1003 416 1011 l 416 1002 q 356 961 416 985 q 335 997 338 997 q 326 1003 326 998 q 329 1012 326 1006 q 309 1052 309 1046 q 366 1080 359 1080 m 895 1061 q 954 1020 951 1025 q 944 1003 944 1005 l 939 1003 q 902 1026 905 1026 l 902 1025 l 895 1013 q 921 994 920 997 q 911 977 911 979 l 906 977 q 880 991 887 991 q 874 979 874 985 q 911 952 907 958 q 898 935 909 952 l 838 972 l 838 977 l 860 1010 l 860 1023 q 884 1049 874 1023 q 895 1061 894 1061 m 345 1040 q 371 994 366 1003 q 385 1002 382 1002 l 385 1003 q 361 1050 385 1008 l 359 1050 q 345 1040 345 1045 m 261 1008 q 290 984 270 1008 q 303 983 302 984 l 302 976 l 302 971 q 320 944 320 951 l 320 939 q 283 901 320 927 l 274 899 l 273 899 q 245 922 264 899 l 234 922 l 234 935 q 214 964 214 957 l 214 968 q 255 1008 214 983 l 261 1008 m 990 990 l 991 990 q 1035 938 1035 952 q 1002 901 1035 927 q 993 898 996 898 q 981 901 987 901 q 970 866 973 867 l 949 884 q 958 921 958 916 l 937 901 l 935 901 q 918 918 933 901 q 948 948 918 920 l 947 951 l 947 958 q 949 961 947 961 l 960 960 q 990 990 960 962 m 586 984 q 833 915 696 984 q 928 810 905 849 q 975 706 970 751 q 1010 641 981 684 l 1012 633 q 994 563 994 576 l 994 554 q 1000 530 1000 532 l 1000 526 l 983 473 q 993 433 993 437 q 967 382 993 415 l 962 374 q 970 320 970 352 l 970 315 q 944 183 970 283 l 941 161 q 954 119 941 152 l 954 115 q 915 -7 954 94 q 876 -32 905 -32 q 800 -58 854 -37 q 723 -68 741 -68 q 544 -35 685 -68 q 424 5 473 -17 q 339 75 339 72 q 297 174 329 85 l 297 189 q 315 235 297 205 l 315 250 q 292 332 292 317 q 269 407 292 370 q 258 440 263 420 q 219 557 245 453 q 215 623 215 599 q 270 795 215 672 q 311 873 280 795 q 374 931 355 928 q 469 966 418 966 q 553 983 507 983 q 586 984 570 983 m 254 980 l 242 968 q 279 928 275 928 q 292 939 282 928 q 254 980 260 980 m 975 938 q 987 926 975 936 l 990 926 q 1004 943 1004 938 q 993 956 1004 946 q 975 938 991 956 m 174 922 q 205 903 182 922 l 206 903 l 216 905 q 229 884 219 890 q 245 863 245 876 q 215 820 237 842 q 206 817 210 817 l 202 817 q 174 834 193 817 q 163 831 165 831 l 161 834 l 161 844 q 133 873 133 861 q 163 918 134 887 q 174 922 169 922 m 353 834 l 353 833 l 355 833 q 522 916 450 903 l 522 918 l 519 918 q 460 901 511 918 q 365 844 395 884 q 353 834 353 838 m 163 880 l 163 878 q 206 846 201 846 l 215 857 l 215 863 q 174 892 210 865 l 173 892 q 163 880 171 892 m 1003 853 l 1004 853 q 1016 836 1016 845 q 1002 825 1010 825 q 989 844 989 833 q 1003 853 998 853 m 1113 840 l 1114 840 l 1146 777 q 1124 766 1130 766 q 1103 805 1105 805 q 1090 800 1092 800 q 1104 769 1104 771 l 1084 759 q 1069 787 1075 772 q 1055 779 1056 783 q 1074 739 1074 743 q 1053 729 1069 735 q 1020 793 1020 791 q 1059 817 1059 813 l 1061 824 l 1063 824 q 1072 821 1067 824 q 1113 840 1108 840 m 861 836 q 853 831 861 833 q 890 800 861 819 l 890 801 q 861 836 878 836 m 96 823 q 136 805 136 806 q 147 810 142 810 q 172 791 147 799 q 180 759 180 762 q 159 732 174 732 l 159 730 q 163 715 163 717 q 141 688 154 688 q 123 680 129 680 q 104 687 105 687 q 94 682 96 682 q 73 700 94 694 q 47 711 52 709 q 60 736 57 735 q 127 709 113 713 q 133 723 133 718 l 133 724 q 121 730 133 728 l 113 726 q 94 743 109 737 q 66 756 66 752 q 78 779 75 777 q 118 762 118 763 q 128 766 125 766 q 142 752 133 755 q 151 768 149 752 q 85 798 151 769 l 85 801 q 96 823 93 821 m 711 625 l 707 625 q 694 654 704 625 q 646 700 671 692 q 585 732 622 700 q 562 742 569 742 q 472 720 472 730 q 443 692 445 705 q 404 551 404 627 l 404 547 l 406 547 q 430 599 430 568 l 430 602 q 427 629 427 626 l 427 638 q 463 671 427 667 l 469 671 q 475 659 473 671 q 453 646 474 656 q 448 632 448 635 l 448 626 q 449 605 448 617 q 435 541 435 552 q 472 499 446 511 q 476 498 475 498 q 469 522 469 509 q 473 550 473 545 l 473 553 q 465 578 465 574 l 465 587 q 494 646 465 599 q 511 654 503 654 l 551 642 l 560 642 q 585 651 580 651 l 591 651 q 641 631 609 651 q 668 640 661 640 q 687 622 687 634 l 687 621 q 680 606 687 616 l 680 602 q 700 586 695 602 q 673 563 700 573 q 669 555 673 560 q 671 537 669 555 q 635 513 671 524 q 587 499 613 499 q 562 515 573 499 q 548 518 555 518 q 525 499 536 499 l 517 499 q 507 517 507 505 q 494 496 497 500 q 482 495 488 495 l 482 494 q 495 485 489 494 l 495 479 q 492 476 495 476 l 488 476 q 408 519 454 476 l 406 519 l 406 494 q 420 460 410 488 q 457 422 428 448 l 457 421 q 446 412 454 412 q 431 416 439 412 l 431 414 q 477 372 448 372 q 505 376 488 376 q 531 370 513 376 q 557 395 541 370 q 599 416 573 416 q 613 397 612 416 q 586 359 613 380 q 577 332 577 345 l 577 330 l 578 330 q 612 382 597 365 q 635 426 630 412 l 637 427 l 642 427 q 646 422 644 427 l 646 418 q 608 352 646 404 q 593 328 608 346 q 595 310 595 317 q 631 319 610 319 q 641 321 631 321 l 645 321 q 658 320 650 321 q 669 323 663 323 l 681 323 q 687 326 684 326 l 686 336 q 700 388 686 344 l 700 389 q 699 395 699 395 q 705 416 704 406 q 720 433 715 416 l 713 433 q 688 416 701 433 l 686 414 q 671 429 671 418 l 671 433 q 690 467 671 445 q 717 515 690 495 q 736 553 732 550 l 739 553 q 745 547 741 553 q 743 519 743 524 q 756 463 752 463 l 756 462 l 758 462 l 758 463 q 749 524 749 514 q 762 547 749 547 q 783 515 767 545 l 817 460 q 833 426 817 454 l 833 421 q 825 416 832 418 q 810 418 820 418 l 808 408 q 828 336 823 341 q 843 325 836 325 l 867 338 l 867 352 q 846 387 867 360 q 836 412 838 401 q 863 429 839 429 q 912 406 885 429 q 918 404 918 406 q 939 412 920 404 q 948 407 948 410 l 948 403 q 912 368 948 386 q 906 347 906 349 l 906 340 q 916 323 906 334 q 928 355 919 335 q 921 361 924 355 l 921 366 q 932 374 924 374 l 937 374 l 939 372 q 979 431 968 404 q 968 469 979 434 l 967 469 q 961 452 961 458 q 970 429 970 439 q 956 412 967 412 l 951 412 q 947 417 949 412 l 947 420 q 956 431 956 429 q 947 454 947 444 q 962 488 947 473 q 971 485 966 488 q 977 505 977 500 q 952 580 952 555 q 966 619 952 587 q 968 635 968 625 l 968 640 q 948 678 968 648 q 893 734 918 700 q 824 752 865 752 q 785 720 813 752 q 742 675 772 718 q 720 641 732 675 q 711 625 720 629 m 1133 734 q 1140 729 1133 732 l 1150 730 q 1177 680 1169 730 l 1177 674 q 1149 654 1177 658 q 1141 678 1141 675 q 1152 686 1152 683 q 1146 700 1147 699 q 1133 696 1133 699 q 1140 664 1140 668 q 1118 644 1140 650 q 1113 635 1118 635 l 1105 640 l 1094 640 q 1068 692 1076 640 q 1095 714 1068 711 l 1098 714 l 1104 690 q 1095 687 1099 687 q 1101 668 1097 668 l 1113 671 l 1113 673 q 1105 704 1105 701 q 1127 726 1105 717 q 1133 734 1127 732 m 490 711 l 494 707 l 494 701 q 477 696 494 697 q 467 681 472 683 l 463 681 q 459 687 461 681 q 485 711 459 706 l 490 711 m 843 699 q 869 692 869 696 l 869 688 q 859 682 867 682 l 854 682 q 844 686 844 682 q 825 677 828 677 q 818 687 818 679 q 843 699 833 698 m 892 687 q 929 664 929 673 q 951 631 951 652 l 951 629 q 944 625 951 626 q 939 626 941 626 l 939 625 l 941 618 q 925 590 941 593 l 921 590 q 918 582 921 589 l 925 582 q 937 570 937 582 q 905 538 927 538 q 865 519 890 538 q 804 534 815 519 q 760 574 766 553 q 750 608 750 591 q 772 632 750 632 q 797 646 791 632 q 823 663 808 663 q 837 651 829 663 q 853 668 837 668 l 867 668 q 911 646 884 668 q 937 632 931 637 l 937 635 q 902 668 933 648 q 888 677 888 673 l 888 682 q 892 687 888 685 m 502 678 q 550 669 525 671 l 553 665 l 553 663 q 534 656 553 658 q 496 671 496 662 l 496 673 q 502 678 496 674 m 782 673 l 787 667 l 787 665 q 762 648 768 648 l 758 654 q 782 673 758 667 m 623 667 q 641 661 626 667 q 656 663 650 663 q 677 652 671 663 l 677 646 q 673 642 677 644 l 669 642 q 646 650 662 650 q 642 648 645 650 q 619 661 619 648 l 619 663 q 623 667 619 665 m 749 638 l 753 638 q 758 632 755 638 q 741 621 758 626 l 741 610 l 742 600 l 734 596 q 726 616 726 596 l 726 618 q 749 638 726 634 m 699 623 l 704 623 q 711 609 709 623 q 704 599 709 600 l 703 599 q 694 621 699 599 l 699 623 m 828 589 q 853 570 828 570 q 876 593 876 576 l 876 597 q 854 613 876 611 q 828 589 828 609 m 106 612 l 111 612 q 131 570 115 610 q 141 547 141 558 l 141 531 q 108 479 138 491 l 105 479 q 86 517 86 483 q 101 589 86 553 l 102 596 l 101 603 q 106 612 104 612 m 851 605 q 865 593 865 605 q 850 577 865 581 q 840 590 840 581 q 851 605 840 605 m 557 567 l 557 566 q 576 549 557 553 l 583 549 q 599 573 599 549 l 599 577 q 580 596 599 596 q 557 567 557 596 m 580 586 q 590 573 590 582 q 576 553 590 555 q 566 566 566 557 q 580 586 569 586 m 697 568 l 701 568 q 704 564 704 568 q 696 507 696 538 q 677 492 687 492 q 674 500 674 497 q 684 519 684 514 l 684 541 q 697 568 690 568 m 1141 564 l 1146 564 q 1166 521 1149 561 q 1176 494 1176 511 l 1176 489 q 1144 431 1176 447 l 1140 431 q 1121 466 1121 431 l 1121 477 q 1136 544 1121 501 q 1141 564 1136 564 m 930 537 q 938 530 935 537 q 913 508 938 513 q 906 518 906 510 q 921 524 910 522 q 930 537 921 532 m 797 530 q 834 508 810 527 l 844 508 q 880 517 873 517 q 888 512 888 515 l 888 507 q 867 500 888 505 q 843 494 859 494 q 811 508 826 494 q 792 519 795 515 l 792 526 q 797 530 792 528 m 642 508 l 645 508 q 649 500 648 508 q 587 472 649 490 l 581 472 l 547 477 q 524 465 528 465 l 522 465 q 519 467 519 465 l 519 473 q 544 494 519 490 q 578 486 573 486 q 642 508 593 486 m 414 507 q 446 479 421 507 q 459 472 459 476 l 459 469 q 453 463 459 467 q 408 498 439 463 l 408 502 q 414 507 408 505 m 658 490 l 663 490 q 667 485 665 490 q 654 466 663 466 q 648 471 648 468 q 658 490 648 484 m 831 482 q 843 466 835 482 q 895 452 870 452 q 913 454 901 452 q 919 450 919 452 l 919 446 q 898 437 915 437 q 824 473 824 446 l 824 476 q 831 482 825 479 m 504 465 q 512 422 508 463 q 490 394 512 397 q 477 410 480 394 q 494 452 477 418 q 504 465 494 465 m 631 462 l 635 453 q 625 434 630 434 l 622 434 l 614 441 q 597 434 609 434 l 595 434 q 590 439 593 434 l 590 441 q 628 462 593 447 l 631 462 m 408 452 l 408 448 q 411 433 408 446 q 420 437 417 437 q 410 452 410 450 l 408 452 m 242 422 q 251 394 246 422 q 264 361 264 381 q 241 309 264 323 q 229 306 232 306 q 215 336 215 306 q 229 397 215 355 q 242 422 229 416 m 654 403 q 656 398 654 402 l 656 395 q 642 366 656 385 l 622 332 q 619 319 622 319 l 614 319 q 609 329 609 321 l 609 332 q 642 393 609 340 q 654 403 642 401 m 831 395 q 851 348 838 395 l 851 338 q 847 333 851 336 l 843 333 q 834 361 838 333 q 824 391 824 375 l 831 395 m 673 393 q 680 387 679 390 q 663 348 680 377 q 658 332 661 332 l 654 332 q 646 343 646 336 q 667 385 646 348 q 673 393 667 393 m 994 376 l 996 376 q 1008 352 1006 376 q 1029 300 1015 333 l 1029 294 q 1003 257 1029 257 l 1002 257 q 981 283 985 257 l 981 298 l 991 356 q 989 372 991 358 l 994 376 m 812 330 l 812 321 q 810 294 812 319 l 810 283 l 821 283 q 825 294 825 283 l 825 309 q 827 315 825 312 q 812 330 827 321 m 769 325 q 777 281 773 281 l 782 281 q 795 312 793 281 q 797 323 797 317 l 797 325 l 769 325 m 722 316 q 739 284 734 284 l 743 284 q 758 290 758 286 q 752 319 755 319 q 736 321 746 321 q 722 316 728 321 m 859 319 q 861 298 861 308 l 861 296 l 860 279 q 870 297 870 283 l 870 306 l 869 320 q 859 319 863 319 m 691 312 l 691 306 q 715 273 691 281 q 717 279 715 276 q 704 312 709 312 l 697 316 l 696 316 q 691 312 694 316 m 838 274 q 846 303 846 274 l 844 309 q 838 274 841 309 m 636 306 l 637 298 l 637 297 q 626 283 626 289 l 626 271 q 648 267 626 267 l 648 274 q 649 306 648 284 l 640 307 l 636 306 m 663 283 l 663 281 q 671 261 669 275 l 677 261 q 690 271 687 261 q 675 307 678 286 l 674 307 q 663 283 663 307 m 912 306 q 888 241 912 267 q 886 235 886 239 l 886 234 q 896 209 896 213 l 896 206 q 882 163 892 163 q 853 130 880 163 q 720 92 809 92 l 709 92 q 610 134 646 104 q 583 169 583 153 l 583 170 q 573 161 578 164 l 563 163 l 553 163 l 543 170 l 541 170 l 541 124 q 532 100 541 100 l 519 101 q 535 83 519 96 l 535 79 q 530 73 535 77 l 524 73 q 494 110 494 94 l 500 137 l 500 144 q 492 172 492 169 q 494 201 494 193 q 492 205 492 203 q 489 202 489 204 q 486 128 486 136 q 494 71 486 90 l 508 72 l 509 72 q 578 27 545 72 q 636 -7 578 9 q 677 -13 669 -9 q 726 3 699 -13 q 753 9 739 7 l 808 3 q 886 46 863 20 q 896 66 890 52 q 892 98 892 83 l 892 157 q 907 202 892 168 l 907 203 q 903 237 903 230 l 903 238 l 913 294 l 913 306 l 912 306 m 603 292 q 608 286 606 292 q 602 269 608 285 l 602 265 l 609 264 q 616 303 610 289 l 613 303 q 603 292 603 303 m 518 300 l 518 284 q 531 228 525 228 l 532 238 q 527 287 527 280 l 527 293 q 518 300 524 298 m 128 280 l 130 280 q 134 275 132 280 l 134 267 q 150 215 134 257 l 150 193 q 124 159 142 159 l 119 159 q 96 191 102 159 q 117 260 96 197 q 128 280 117 280 m 1108 275 l 1113 275 q 1133 232 1116 272 q 1143 205 1143 224 l 1143 196 q 1116 144 1143 164 l 1107 143 q 1088 178 1088 143 l 1088 184 q 1103 256 1088 214 q 1108 275 1103 275 m 368 260 l 368 251 l 382 206 l 382 187 q 368 133 382 157 q 375 130 372 130 q 397 179 397 145 q 368 260 397 222 m 262 227 q 270 192 266 225 q 283 157 283 168 l 283 144 q 252 104 283 111 l 251 104 q 231 130 231 112 q 229 138 229 130 q 250 206 229 144 q 261 227 250 227 l 262 227 m 567 214 l 567 212 q 583 184 576 186 q 596 205 583 195 q 591 214 591 210 q 583 208 585 208 l 567 214 m 851 206 q 844 193 851 202 q 859 160 859 175 q 871 183 871 175 l 871 186 q 853 206 871 195 l 851 206 m 596 174 q 602 163 599 163 q 613 186 602 180 l 613 187 q 608 191 611 187 l 604 191 q 596 174 596 185 m 811 174 q 836 138 836 165 l 836 137 l 837 137 q 843 143 839 137 l 843 155 q 830 184 843 178 q 811 178 826 180 l 811 174 m 616 170 l 616 168 l 618 157 l 619 157 q 631 169 619 165 l 631 172 l 623 173 q 616 170 618 170 m 645 163 q 633 155 645 157 l 633 146 q 646 128 635 128 l 646 130 q 645 136 645 132 l 645 141 q 649 160 649 157 l 645 163 m 801 160 q 814 124 806 151 q 821 128 821 127 q 804 160 821 160 l 801 160 m 769 151 q 777 118 777 125 l 777 113 q 798 118 798 115 q 785 155 798 137 q 769 151 772 151 m 570 155 l 572 155 q 600 125 580 155 q 699 92 658 92 q 713 75 713 83 q 691 55 704 55 l 691 54 q 717 42 717 47 l 717 37 q 651 18 703 18 q 560 72 599 18 q 553 98 553 92 q 562 110 553 106 l 572 106 l 572 108 q 564 144 564 131 l 564 149 q 570 155 564 151 m 659 143 l 659 140 q 664 123 664 126 l 664 118 q 690 113 667 118 q 686 137 687 124 q 688 149 688 146 l 674 150 l 673 150 q 659 143 659 145 m 733 143 q 743 108 737 135 l 762 108 l 762 111 q 753 146 762 128 q 733 143 750 143 m 703 143 l 701 133 q 710 106 704 108 l 727 106 q 714 141 723 141 q 703 143 708 141 m 870 136 q 876 131 876 134 l 876 130 q 850 102 876 116 l 848 102 q 844 106 846 102 l 844 111 q 870 136 865 136 m 814 101 l 818 101 q 823 95 823 101 q 801 82 815 82 q 792 88 792 85 l 792 91 q 814 101 801 101 m 861 88 q 869 81 869 85 q 851 55 857 67 q 818 40 845 45 q 815 45 815 44 q 838 60 815 56 q 861 88 853 87 m 768 87 l 772 81 l 772 78 q 743 63 770 73 q 736 71 739 63 q 768 87 736 79 m 294 68 l 300 68 q 313 62 313 64 q 330 7 313 53 l 333 -12 q 296 -52 328 -52 q 277 -22 277 -52 l 277 -13 q 292 66 277 -13 l 294 68 m 970 50 l 975 50 q 997 0 981 50 q 1002 -22 1000 0 l 1002 -28 q 979 -77 1002 -59 l 970 -77 q 947 -39 951 -77 l 947 -28 q 967 27 947 -3 l 967 31 l 966 47 l 970 50 m 448 -28 l 449 -28 q 452 -31 452 -28 l 454 -29 q 466 -61 456 -29 q 469 -74 468 -61 q 449 -97 466 -97 l 444 -97 q 435 -77 437 -97 q 448 -28 444 -28 m 926 -100 l 957 -100 l 924 -175 q 961 -243 925 -175 l 958 -244 l 952 -244 q 921 -245 943 -244 q 905 -215 909 -227 l 888 -245 q 848 -247 861 -247 q 847 -245 848 -245 q 882 -172 882 -175 q 844 -104 880 -172 q 882 -101 853 -101 l 883 -101 q 901 -132 887 -101 q 918 -101 916 -103 l 926 -100 m 821 -102 q 823 -104 821 -104 q 788 -175 802 -150 l 825 -245 q 808 -248 821 -247 l 808 -247 l 805 -248 l 787 -248 q 769 -218 781 -242 l 768 -218 q 746 -250 756 -250 q 745 -248 745 -250 l 742 -250 l 715 -250 q 713 -247 713 -250 q 746 -176 746 -179 q 710 -106 710 -111 l 720 -106 q 749 -104 730 -106 q 768 -134 766 -134 q 783 -104 779 -104 q 821 -102 811 -102 m 678 -106 l 680 -109 l 680 -166 l 691 -179 l 681 -191 l 681 -199 q 682 -250 681 -216 l 680 -251 l 651 -251 q 648 -248 648 -251 l 648 -198 l 646 -191 l 645 -191 q 619 -250 645 -193 l 614 -250 l 586 -191 l 585 -191 l 585 -197 q 586 -251 585 -209 q 581 -253 583 -253 q 553 -254 578 -253 q 551 -250 551 -252 q 550 -192 551 -237 q 540 -183 540 -186 l 540 -182 q 550 -172 540 -180 q 548 -140 548 -151 l 548 -111 q 551 -109 549 -109 l 580 -109 q 614 -170 584 -111 l 616 -170 q 646 -107 638 -117 l 648 -107 q 678 -106 653 -107 m 489 -110 l 507 -110 q 509 -113 509 -111 l 509 -170 l 521 -183 l 511 -195 l 511 -202 q 512 -253 511 -219 q 496 -256 507 -256 l 480 -256 q 477 -253 477 -256 l 477 -198 q 475 -195 477 -195 l 449 -254 l 448 -254 q 416 -195 444 -254 l 414 -195 l 414 -199 q 416 -256 414 -212 l 412 -257 l 381 -257 l 381 -256 q 379 -197 381 -241 q 370 -186 377 -197 q 379 -175 378 -175 q 378 -143 378 -153 l 378 -115 q 381 -113 378 -113 l 410 -113 q 446 -175 412 -113 q 476 -111 466 -124 q 489 -110 484 -110 z "},"$":{"ha":894,"x_min":19,"x_max":885,"o":"m 401 847 q 438 845 414 847 q 475 847 453 847 q 504 835 475 842 q 552 787 504 816 q 591 813 587 813 q 640 763 640 770 q 635 747 635 755 q 662 707 662 732 q 681 701 681 705 l 681 672 q 662 549 681 616 l 662 536 q 679 499 662 530 l 679 493 q 647 413 667 446 q 633 307 633 348 l 633 294 q 576 242 633 282 q 498 178 532 192 l 475 184 q 450 180 454 180 q 406 182 427 182 q 382 168 391 168 q 321 214 350 214 q 275 256 313 214 q 236 290 256 256 q 222 324 231 290 q 229 342 229 342 q 217 363 218 362 q 219 393 219 382 l 219 413 q 200 451 200 446 q 185 477 200 468 q 183 489 185 479 q 195 524 195 513 q 183 547 185 538 q 193 566 193 563 q 176 656 193 616 q 168 703 168 692 l 193 753 q 343 833 276 833 q 401 847 389 847 m 294 799 l 290 801 q 234 757 263 801 l 234 755 l 251 757 l 254 753 q 246 703 249 753 q 256 692 251 693 q 307 713 278 709 l 329 730 q 309 749 329 732 l 309 753 q 334 791 309 757 l 334 793 q 323 803 334 801 q 294 799 299 799 m 562 761 l 555 761 q 530 774 539 772 q 496 755 496 761 q 516 730 516 734 q 494 711 508 711 q 443 730 450 730 q 421 705 422 730 q 382 670 382 685 q 336 664 378 666 q 317 668 323 668 q 260 626 260 642 q 246 592 246 609 q 300 628 250 592 l 351 640 l 365 640 q 401 600 387 640 q 389 582 401 595 l 392 572 l 392 559 q 329 526 392 535 q 317 522 329 522 q 312 526 317 526 l 314 536 l 314 540 l 304 540 q 297 536 298 536 l 285 536 q 254 549 262 549 q 241 524 246 549 q 229 515 230 519 l 229 511 l 260 481 q 271 479 265 479 q 297 509 281 479 q 319 517 310 517 q 382 484 382 509 l 387 459 l 365 449 q 360 445 360 448 q 363 421 360 441 q 360 415 360 417 l 355 415 q 314 455 328 455 l 312 455 q 309 449 312 453 q 336 415 336 425 q 348 389 341 389 l 351 389 q 377 399 368 399 q 382 391 382 394 l 392 391 q 418 405 410 405 l 443 403 q 458 407 451 407 q 479 401 475 401 q 516 425 516 404 q 518 441 518 436 q 509 455 515 455 q 498 453 504 453 l 496 457 l 504 479 q 501 501 501 493 q 513 513 505 510 l 516 513 q 579 489 579 507 l 579 486 q 550 449 550 470 l 552 437 l 562 437 q 623 491 589 491 q 635 501 635 500 q 601 549 635 537 l 598 549 q 579 540 585 547 q 475 555 475 547 q 465 608 465 589 q 516 642 480 642 l 528 642 q 589 608 589 629 l 596 604 l 601 604 q 608 612 604 604 q 596 644 602 637 l 584 642 q 567 652 567 642 q 586 714 586 671 q 574 745 581 735 q 579 749 575 749 l 586 749 q 610 692 595 749 l 621 690 q 625 707 625 698 l 625 709 q 589 777 593 772 l 586 777 q 562 761 573 761 m 450 532 l 455 532 q 487 463 477 516 l 487 459 q 465 433 470 433 l 460 433 q 446 479 455 433 l 440 479 q 435 461 440 477 l 438 447 l 426 439 l 416 439 q 406 447 412 439 q 433 528 413 528 q 450 532 444 528 m 589 437 q 591 421 589 432 q 567 326 585 326 q 535 264 557 298 l 540 262 l 552 270 l 555 270 q 559 264 559 270 l 552 250 l 557 248 q 579 270 563 248 q 606 307 606 279 l 606 309 q 598 342 601 309 l 615 427 q 633 459 633 444 l 633 461 q 627 465 633 465 l 623 465 q 589 437 589 444 m 227 449 l 227 439 q 254 387 245 428 q 268 336 268 351 l 268 334 l 260 315 q 302 264 260 283 q 319 250 302 261 l 326 250 q 336 258 330 250 l 336 260 q 329 274 329 267 l 336 282 l 336 288 q 326 286 330 288 q 307 300 322 286 l 302 298 l 297 298 q 280 342 280 317 l 280 363 q 283 403 280 376 q 265 453 269 406 l 256 459 l 246 459 q 227 449 233 459 m 496 380 q 450 391 477 380 l 421 376 l 406 378 q 382 375 400 378 q 346 378 359 378 l 343 378 q 326 363 326 378 l 326 353 q 331 349 327 349 q 348 355 339 349 l 355 355 q 365 351 361 351 q 414 347 387 351 q 435 357 416 347 l 475 353 q 498 363 491 363 q 530 353 527 356 l 538 353 q 547 373 547 355 q 526 393 544 393 q 496 380 500 380 m 465 330 q 443 332 452 332 l 440 332 q 409 320 424 320 l 387 326 l 372 324 q 353 332 372 330 q 336 320 342 332 q 348 296 348 299 l 358 296 q 370 317 363 296 l 375 317 q 389 304 383 304 q 426 317 412 317 q 455 300 436 300 l 487 317 l 489 317 q 518 300 496 317 q 543 332 532 300 q 535 336 536 336 l 526 336 q 494 332 516 336 q 479 336 486 336 l 465 330 m 414 258 l 414 252 q 448 224 414 249 q 479 246 458 224 q 494 270 494 250 l 487 274 l 472 274 q 443 280 466 274 q 414 258 437 280 m 360 238 q 411 198 384 198 l 423 202 q 404 228 410 228 q 375 248 380 248 q 360 238 365 245 m 472 206 l 472 204 q 477 200 473 200 q 518 238 512 200 l 518 240 q 513 244 518 244 l 509 244 q 472 206 485 244 m 498 1139 l 532 1139 q 544 1118 544 1133 l 578 1118 q 588 1109 583 1118 l 588 1061 q 576 1049 588 1058 l 547 1049 l 542 1047 l 544 1024 l 544 924 q 539 899 544 908 q 542 867 542 880 l 542 862 q 537 857 542 857 l 530 857 q 523 895 523 857 l 521 895 q 514 883 521 883 l 511 883 q 505 911 507 883 l 500 911 l 500 897 q 498 885 500 889 l 503 846 l 496 841 l 493 841 q 488 846 488 841 l 488 934 l 486 947 q 488 950 486 950 q 486 957 488 952 q 488 1040 488 1008 l 488 1049 l 463 1049 q 442 1072 446 1049 l 442 1098 q 452 1118 442 1116 l 488 1118 l 488 1130 q 498 1139 488 1134 m 68 1135 q 140 1107 140 1128 q 146 1090 143 1107 q 149 987 146 1067 q 146 895 146 919 l 142 892 l 140 892 q 135 897 135 892 l 135 931 l 132 931 q 123 915 123 928 l 123 908 l 125 892 l 117 885 q 109 892 113 885 l 109 920 l 107 920 q 91 913 96 913 q 77 920 89 920 l 75 915 l 75 895 q 66 885 75 890 l 56 895 l 58 906 l 56 922 l 45 920 l 40 926 l 40 957 l 38 957 l 35 945 l 35 890 q 28 876 35 878 l 26 876 q 20 885 23 876 q 22 892 20 892 q 20 943 20 926 l 20 1019 q 22 1088 20 1048 q 20 1112 20 1097 q 61 1135 20 1135 l 68 1135 m 216 1130 l 239 1130 q 292 1086 272 1130 q 294 996 294 1018 q 292 973 294 985 q 294 945 294 961 l 294 941 q 292 871 294 918 l 288 869 q 276 913 281 869 q 267 934 267 916 l 262 934 q 255 913 262 920 l 243 915 q 237 913 239 913 q 225 926 228 926 q 220 899 220 911 l 222 890 q 216 878 220 878 l 211 885 l 214 906 q 207 924 212 924 l 204 924 q 193 892 199 924 l 188 890 q 179 920 181 890 q 165 939 175 920 l 165 1059 q 202 1128 165 1116 l 216 1130 m 385 1130 q 437 1077 437 1118 l 437 1028 q 431 1021 437 1025 l 394 1021 q 385 1063 390 1021 l 368 1063 l 363 1061 q 361 968 361 1002 l 361 950 q 368 943 361 947 l 380 943 q 389 957 384 943 l 387 962 l 387 964 q 394 977 388 977 l 431 977 q 437 970 434 977 l 437 945 q 426 913 431 937 l 419 913 l 419 943 l 417 943 l 417 908 l 412 908 q 408 913 408 908 l 408 939 q 396 899 400 937 l 391 899 q 385 920 387 899 l 368 922 l 363 915 l 363 895 q 347 885 363 892 l 345 885 q 338 892 342 885 l 343 915 q 329 931 343 930 q 327 941 327 935 l 322 941 l 322 908 q 315 895 322 897 l 313 895 l 308 897 q 311 911 308 907 q 308 1005 308 970 l 308 1059 q 355 1130 308 1114 l 385 1130 m 648 1130 l 671 1130 q 724 1086 704 1130 q 726 996 726 1018 q 724 973 726 985 q 726 945 726 961 l 726 941 q 724 871 726 918 l 720 869 q 708 913 713 869 q 699 934 699 916 l 694 934 q 687 913 694 920 l 675 915 q 669 913 671 913 q 657 926 660 926 q 652 899 652 911 l 655 890 q 648 878 652 878 l 644 885 l 646 906 q 639 924 644 924 l 636 924 q 625 892 631 924 l 621 890 q 611 920 613 890 q 597 939 608 920 l 597 1059 q 634 1128 597 1116 l 648 1130 m 749 1128 l 812 1128 q 870 1088 854 1128 l 870 1075 q 872 996 870 1041 q 856 952 872 979 l 856 950 q 877 911 877 917 l 877 901 l 870 892 l 870 867 q 856 857 865 857 l 854 862 l 854 890 q 849 895 854 895 q 842 878 845 895 q 847 852 847 866 l 840 848 l 836 848 q 831 852 831 848 l 831 878 q 803 941 831 897 l 793 941 l 793 920 q 789 899 793 914 q 791 873 791 883 q 785 869 785 869 l 782 869 q 775 880 777 869 q 777 906 777 897 l 772 908 l 766 903 q 759 915 760 903 l 757 915 q 754 899 757 908 q 759 862 759 872 l 749 855 l 747 855 q 741 864 741 855 q 743 899 741 889 q 741 929 741 928 q 743 1118 743 1036 q 749 1128 746 1128 m 73 1067 l 73 939 l 86 939 l 86 1067 l 73 1067 m 216 1061 l 216 957 q 222 950 216 954 l 227 950 q 241 964 241 950 l 241 1054 q 234 1067 241 1066 l 222 1067 q 216 1061 220 1067 m 648 1061 l 648 957 q 655 950 648 954 l 660 950 q 673 964 673 950 l 673 1054 q 667 1067 673 1066 l 655 1067 q 648 1061 652 1067 m 793 1056 l 793 991 l 805 991 q 810 996 810 991 l 810 1056 q 805 1061 810 1061 l 798 1061 q 793 1056 793 1060 m 54 941 l 54 929 l 56 929 l 56 941 l 54 941 m 73 159 l 107 159 q 119 139 119 153 l 153 139 q 161 130 156 139 l 161 82 q 150 71 161 79 l 121 71 l 116 68 l 119 46 l 119 -51 q 114 -76 119 -67 q 116 -107 116 -95 l 116 -112 q 112 -117 116 -117 l 105 -117 q 98 -80 98 -117 l 96 -80 q 89 -92 96 -92 l 87 -92 q 80 -64 82 -92 l 75 -64 l 75 -78 q 73 -90 75 -85 l 78 -127 l 71 -132 l 68 -132 q 64 -127 64 -132 l 64 -42 l 62 -28 q 64 -26 62 -26 q 62 -19 64 -24 q 64 62 64 31 l 64 71 l 39 71 q 19 94 22 71 l 19 119 q 28 139 19 136 l 64 139 l 64 150 q 73 159 64 154 m 661 150 l 683 150 q 735 107 715 150 q 737 19 737 41 q 735 -3 737 8 q 737 -31 737 -15 l 737 -35 q 735 -103 737 -58 l 730 -105 q 720 -62 724 -105 q 710 -42 710 -59 l 706 -42 q 699 -62 706 -55 l 688 -60 q 681 -62 683 -62 q 669 -49 672 -49 q 665 -76 665 -64 q 667 -85 665 -77 q 661 -96 665 -96 l 656 -90 l 659 -69 q 652 -51 657 -51 l 649 -51 q 638 -83 644 -51 l 633 -85 q 625 -56 627 -85 q 611 -37 621 -56 l 611 80 q 647 148 611 136 l 661 150 m 179 148 l 283 148 q 299 139 296 148 l 299 98 q 288 80 299 86 l 227 80 l 227 33 l 252 33 q 270 26 269 33 l 270 -12 q 256 -19 267 -19 l 227 -19 l 227 -37 l 286 -37 q 301 -53 301 -37 l 301 -71 q 294 -78 301 -75 l 292 -78 q 288 -73 288 -78 l 288 -62 l 281 -62 q 270 -78 273 -78 q 263 -66 264 -78 l 258 -66 q 250 -85 258 -85 l 247 -85 q 238 -58 240 -85 l 231 -58 q 220 -92 229 -92 l 211 -92 q 204 -80 206 -92 l 199 -83 l 195 -83 q 189 -66 190 -83 l 191 -66 l 189 -62 l 189 -56 q 191 -35 189 -47 q 186 -22 186 -28 l 184 -22 l 184 -24 q 186 -56 186 -43 l 186 -69 q 177 -78 186 -73 l 170 -73 l 172 -42 q 170 -12 172 -24 q 172 64 172 31 l 172 134 q 179 148 174 148 m 321 148 l 382 148 q 439 109 423 148 l 439 96 q 441 19 439 62 q 426 -24 441 3 l 426 -26 q 446 -64 446 -58 l 446 -73 l 439 -83 l 439 -107 q 426 -117 435 -117 l 423 -112 l 423 -85 q 419 -80 423 -80 q 412 -96 415 -80 q 416 -121 416 -108 q 410 -125 411 -125 l 406 -125 q 401 -121 401 -125 l 401 -96 q 374 -35 401 -79 l 365 -35 l 365 -56 q 360 -76 365 -61 q 362 -100 362 -92 l 355 -105 l 353 -105 q 347 -94 348 -105 q 349 -69 349 -79 l 345 -66 l 338 -71 q 331 -60 332 -71 l 328 -60 q 326 -76 328 -67 q 331 -112 331 -102 l 321 -119 l 319 -119 q 313 -110 314 -119 q 315 -76 313 -85 q 313 -46 313 -47 q 315 139 315 58 q 321 148 318 148 m 471 148 l 532 148 q 588 109 572 148 l 588 96 q 591 19 588 62 q 574 -24 591 3 l 574 -26 q 595 -64 595 -58 l 595 -73 l 588 -83 l 588 -107 q 574 -117 584 -117 l 572 -112 l 572 -85 q 568 -80 572 -80 q 561 -96 564 -80 q 566 -121 566 -108 l 559 -125 l 554 -125 q 550 -121 550 -125 l 550 -96 q 523 -35 550 -79 l 513 -35 l 513 -56 q 509 -76 513 -61 q 511 -100 511 -92 l 505 -105 l 503 -105 q 496 -94 497 -105 q 498 -69 498 -79 l 493 -66 l 486 -71 q 479 -60 480 -71 l 477 -60 q 475 -76 477 -67 q 479 -112 479 -102 l 471 -119 l 469 -119 q 462 -110 463 -119 q 464 -76 462 -85 q 462 -46 462 -47 q 464 139 464 58 q 471 148 467 148 m 760 148 l 821 148 q 878 109 861 148 l 878 96 q 880 19 878 62 q 864 -24 880 3 l 864 -26 q 884 -64 884 -58 l 884 -73 l 878 -83 l 878 -107 q 864 -117 873 -117 l 861 -112 l 861 -85 q 857 -80 861 -80 q 850 -96 853 -80 q 854 -121 854 -108 l 848 -125 l 844 -125 q 839 -121 839 -125 l 839 -96 q 812 -35 839 -79 l 803 -35 l 803 -56 q 798 -76 803 -61 q 800 -100 800 -92 l 793 -105 l 791 -105 q 785 -94 787 -105 q 787 -69 787 -79 l 783 -66 l 776 -71 q 769 -60 770 -71 l 766 -60 q 764 -76 766 -67 q 769 -112 769 -102 l 760 -119 l 758 -119 q 751 -110 752 -119 q 753 -76 751 -85 q 751 -46 751 -47 q 753 139 753 58 q 760 148 756 148 m 661 82 l 661 -19 q 667 -26 661 -22 l 672 -26 q 686 -12 686 -26 l 686 75 q 679 89 686 87 l 667 89 q 661 82 664 89 m 365 78 l 365 15 l 376 15 q 380 19 380 15 l 380 78 q 376 82 380 82 l 369 82 q 365 78 365 81 m 513 78 l 513 15 l 525 15 q 530 19 530 15 l 530 78 q 525 82 530 82 l 518 82 q 513 78 513 81 m 803 78 l 803 15 l 814 15 q 819 19 819 15 l 819 78 q 814 82 819 82 l 807 82 q 803 78 803 81 m 488 -136 l 503 -136 q 508 -146 508 -139 l 524 -146 l 528 -149 q 531 -146 528 -147 l 547 -146 l 547 -140 q 551 -136 547 -139 l 567 -136 q 572 -146 572 -139 l 587 -146 q 592 -150 589 -146 l 592 -172 q 587 -176 592 -173 l 573 -176 l 571 -178 l 572 -188 l 572 -233 q 570 -243 572 -239 q 571 -258 571 -252 l 571 -260 q 569 -262 571 -262 l 566 -262 q 563 -245 563 -262 l 562 -245 q 559 -251 562 -251 l 557 -251 q 555 -239 555 -251 l 553 -239 l 553 -245 q 551 -250 553 -248 l 553 -267 l 551 -269 l 549 -269 q 547 -267 547 -269 l 547 -228 l 547 -222 q 547 -221 547 -221 q 547 -218 547 -220 q 547 -180 547 -195 l 547 -176 l 536 -176 q 529 -172 529 -176 l 522 -176 l 509 -176 l 507 -178 l 508 -188 l 508 -233 q 506 -243 508 -239 q 507 -258 507 -252 l 507 -260 q 505 -262 507 -262 l 502 -262 q 498 -245 498 -262 l 498 -245 q 494 -251 498 -251 l 494 -251 q 490 -239 492 -251 l 488 -239 l 488 -245 q 488 -250 488 -248 l 490 -267 l 486 -269 l 486 -269 q 484 -267 484 -269 l 484 -228 l 482 -222 q 484 -221 482 -221 q 482 -218 484 -220 q 484 -180 484 -195 l 484 -176 l 472 -176 q 463 -166 464 -176 l 463 -155 q 467 -146 463 -147 l 484 -146 l 484 -140 q 488 -136 484 -139 m 290 -138 q 322 -151 322 -142 q 326 -158 324 -151 q 326 -204 326 -168 q 326 -245 326 -235 l 323 -247 l 322 -247 q 320 -245 320 -247 l 320 -229 l 319 -229 q 315 -237 315 -231 l 315 -239 l 316 -247 l 312 -250 q 309 -247 311 -250 l 309 -235 l 308 -235 q 300 -237 302 -237 q 294 -235 300 -235 l 293 -237 l 293 -245 q 289 -250 293 -248 q 285 -245 288 -250 l 286 -241 l 285 -233 l 280 -235 l 278 -231 l 278 -218 l 277 -218 l 276 -223 l 276 -248 q 273 -254 276 -253 l 271 -254 q 269 -250 270 -254 q 269 -247 269 -247 q 269 -224 269 -231 l 269 -190 q 269 -159 269 -177 q 269 -149 269 -155 q 287 -138 269 -138 l 290 -138 m 439 -138 l 453 -138 q 460 -146 460 -138 l 460 -229 q 458 -241 460 -241 l 451 -241 q 445 -249 451 -247 l 442 -249 q 441 -255 442 -250 l 442 -265 q 439 -269 440 -269 l 437 -269 q 434 -261 434 -269 l 434 -260 q 435 -256 434 -258 l 431 -243 l 431 -243 l 425 -247 q 420 -243 420 -245 l 419 -243 q 416 -257 419 -257 q 414 -255 414 -257 l 414 -247 l 413 -235 l 412 -235 q 408 -239 412 -237 l 404 -239 q 397 -228 401 -239 q 399 -227 397 -227 q 397 -223 399 -224 q 399 -182 399 -197 l 399 -150 q 404 -142 399 -144 l 414 -142 q 425 -154 425 -142 l 425 -217 l 425 -222 l 429 -222 l 435 -221 l 435 -148 q 439 -138 435 -140 m 854 -139 l 858 -139 q 885 -168 879 -139 l 885 -180 q 869 -186 884 -186 l 869 -187 q 885 -213 885 -195 l 885 -235 q 882 -237 885 -236 l 880 -237 l 876 -235 l 876 -247 q 871 -254 876 -252 l 869 -254 q 865 -243 865 -254 l 863 -243 l 862 -253 q 863 -264 862 -255 l 861 -265 l 859 -265 l 856 -263 q 857 -248 857 -253 q 856 -241 857 -247 q 850 -245 852 -245 q 844 -241 849 -245 q 842 -250 844 -250 l 840 -250 q 838 -248 838 -250 l 838 -239 l 836 -233 l 836 -233 q 832 -248 832 -241 l 832 -259 q 829 -262 832 -260 l 827 -262 l 825 -261 q 826 -233 826 -242 l 826 -215 q 829 -206 826 -207 l 845 -206 l 845 -205 q 824 -184 832 -205 l 824 -165 q 854 -139 829 -139 m 83 -140 l 87 -140 q 101 -150 101 -140 q 106 -178 102 -152 l 107 -178 q 117 -144 112 -144 l 135 -144 q 138 -146 138 -145 q 123 -229 126 -206 q 120 -241 123 -241 l 117 -241 l 113 -237 q 107 -241 113 -241 l 107 -249 q 105 -251 107 -251 l 104 -251 q 100 -230 101 -251 q 91 -205 94 -230 l 90 -205 q 83 -239 87 -239 l 83 -239 l 83 -245 q 81 -247 83 -247 l 79 -247 q 77 -245 77 -247 l 77 -231 q 75 -221 77 -229 l 75 -221 q 67 -239 70 -238 l 64 -239 q 55 -197 62 -239 q 44 -144 53 -194 l 47 -142 l 64 -142 q 75 -174 70 -142 l 77 -174 l 77 -172 q 83 -140 81 -140 m 163 -140 l 174 -140 q 197 -160 189 -140 q 198 -200 198 -191 q 197 -211 198 -205 q 198 -223 198 -216 l 198 -225 q 197 -256 198 -235 l 195 -257 q 190 -237 192 -257 q 186 -228 186 -236 l 184 -228 q 180 -237 184 -234 l 176 -237 q 172 -237 174 -237 q 168 -231 169 -231 q 165 -243 165 -239 l 166 -248 q 163 -253 165 -253 q 161 -250 161 -250 l 162 -241 q 159 -233 161 -233 l 158 -233 q 153 -247 155 -233 l 151 -248 q 146 -235 148 -248 q 140 -226 145 -235 l 140 -172 q 157 -142 140 -147 l 163 -140 m 227 -140 l 237 -140 q 261 -160 252 -140 q 262 -200 262 -191 q 261 -211 262 -205 q 262 -223 262 -216 l 262 -225 q 261 -256 262 -235 l 259 -257 q 254 -237 256 -257 q 250 -228 250 -236 l 248 -228 q 245 -237 248 -234 l 239 -237 q 237 -237 237 -237 q 231 -231 233 -231 q 229 -243 229 -239 q 231 -248 229 -244 q 227 -253 229 -253 l 225 -250 l 226 -241 q 223 -233 226 -233 l 222 -233 q 217 -247 220 -233 l 215 -248 q 211 -235 212 -248 q 204 -226 209 -235 l 204 -172 q 221 -142 204 -147 l 227 -140 m 368 -140 q 391 -164 391 -146 l 391 -186 q 389 -189 391 -187 l 372 -189 q 368 -170 370 -189 l 360 -170 l 358 -172 q 357 -213 357 -197 l 357 -221 q 360 -224 357 -222 l 366 -224 q 370 -218 368 -224 l 369 -216 l 369 -215 q 372 -208 370 -208 l 389 -208 q 391 -212 390 -208 l 391 -223 q 386 -237 389 -227 l 383 -237 l 383 -224 l 382 -224 l 382 -239 l 380 -239 q 378 -237 378 -239 l 378 -226 q 373 -243 374 -227 l 371 -243 q 368 -235 369 -243 l 360 -233 q 358 -237 360 -234 l 358 -245 q 351 -250 358 -247 l 350 -250 q 347 -247 349 -250 l 349 -237 q 343 -229 349 -230 q 342 -225 342 -227 l 340 -225 l 340 -239 q 336 -245 340 -245 l 336 -245 l 334 -245 q 334 -239 334 -240 q 334 -196 334 -212 l 334 -172 q 354 -140 334 -148 l 368 -140 m 600 -142 l 648 -142 q 654 -146 653 -142 l 654 -164 q 650 -172 654 -170 l 622 -172 l 622 -194 l 633 -194 q 642 -197 641 -194 l 642 -215 q 635 -218 640 -218 l 622 -218 l 622 -226 l 648 -226 q 656 -233 656 -226 l 656 -241 q 652 -245 656 -243 l 652 -245 q 650 -243 650 -245 l 650 -237 l 646 -237 q 642 -245 642 -245 q 638 -239 638 -245 l 636 -239 q 632 -248 636 -248 l 631 -248 q 627 -235 628 -248 l 624 -235 q 618 -251 623 -251 l 614 -251 q 611 -245 612 -251 l 609 -247 l 607 -247 q 604 -239 605 -247 l 605 -239 l 604 -237 l 604 -235 q 605 -225 604 -231 q 603 -219 603 -222 l 602 -219 l 602 -220 q 603 -235 603 -229 l 603 -241 q 599 -245 603 -242 l 596 -243 l 597 -228 q 596 -215 597 -220 q 597 -180 597 -195 l 597 -148 q 600 -142 597 -142 m 665 -142 l 693 -142 q 719 -159 711 -142 l 719 -165 q 720 -200 719 -180 q 713 -220 720 -208 l 713 -221 q 722 -239 722 -235 l 722 -243 l 719 -247 l 719 -258 q 713 -262 717 -262 l 711 -260 l 711 -248 q 709 -245 711 -245 q 707 -253 708 -245 q 709 -264 709 -258 l 705 -267 l 703 -267 q 701 -264 701 -267 l 701 -253 q 689 -225 701 -245 l 685 -225 l 685 -235 q 683 -243 685 -237 q 684 -255 684 -251 l 680 -257 l 680 -257 q 676 -252 677 -257 q 677 -241 677 -245 l 675 -239 l 672 -241 q 669 -237 669 -241 l 668 -237 q 667 -243 668 -239 q 669 -260 669 -256 l 665 -263 l 664 -263 q 661 -259 661 -263 q 662 -243 661 -248 q 661 -230 661 -231 q 662 -146 662 -182 q 665 -142 663 -142 m 764 -142 l 812 -142 q 819 -146 817 -142 l 819 -164 q 814 -172 819 -170 l 786 -172 l 786 -194 l 798 -194 q 806 -197 805 -194 l 806 -215 q 800 -218 804 -218 l 786 -218 l 786 -226 l 812 -226 q 820 -233 820 -226 l 820 -241 q 817 -245 820 -243 l 816 -245 q 814 -243 814 -245 l 814 -237 l 810 -237 q 806 -245 806 -245 q 802 -239 803 -245 l 800 -239 q 796 -248 800 -248 l 795 -248 q 791 -235 792 -248 l 788 -235 q 783 -251 787 -251 l 779 -251 q 776 -245 777 -251 l 774 -247 l 771 -247 q 768 -239 769 -247 l 769 -239 l 768 -237 l 768 -235 q 769 -225 768 -231 q 767 -219 767 -222 l 766 -219 l 766 -220 q 767 -235 767 -229 l 767 -241 q 763 -245 767 -242 l 760 -243 l 761 -228 q 760 -215 761 -220 q 761 -180 761 -195 l 761 -148 q 764 -142 762 -142 m 163 -172 l 163 -218 q 166 -221 163 -219 l 168 -221 q 174 -215 174 -221 l 174 -174 q 172 -168 174 -169 l 166 -168 q 163 -172 165 -168 m 227 -172 l 227 -218 q 231 -221 227 -219 l 233 -221 q 239 -215 239 -221 l 239 -174 q 235 -168 239 -169 l 231 -168 q 227 -172 229 -168 m 292 -168 l 292 -226 l 298 -226 l 298 -168 l 292 -168 m 685 -174 l 685 -202 l 690 -202 q 692 -200 692 -202 l 692 -174 q 690 -172 692 -172 l 687 -172 q 685 -174 685 -172 m 849 -174 l 849 -180 q 860 -184 849 -182 q 857 -172 859 -172 l 852 -172 q 849 -174 850 -172 m 850 -208 q 852 -217 852 -214 l 852 -225 l 853 -227 q 859 -224 859 -226 l 859 -211 q 853 -208 858 -208 l 850 -208 m 111 -221 l 111 -230 l 113 -230 l 113 -221 l 111 -221 m 736 -222 l 737 -222 q 751 -229 746 -222 l 751 -243 q 749 -245 751 -245 l 747 -245 q 745 -243 745 -243 q 739 -247 745 -245 q 736 -249 739 -249 l 734 -249 q 731 -228 731 -249 q 736 -222 732 -224 m 284 -225 l 284 -230 l 285 -230 l 285 -225 l 284 -225 z "},"%":{"ha":894,"x_min":19,"x_max":885,"o":"m 401 847 q 438 845 414 847 q 475 847 453 847 q 504 835 475 842 q 552 787 504 816 q 591 813 587 813 q 640 763 640 770 q 635 747 635 755 q 662 707 662 732 q 681 701 681 705 l 681 672 q 662 549 681 616 l 662 536 q 679 499 662 530 l 679 493 q 647 413 667 446 q 633 307 633 348 l 633 294 q 576 242 633 282 q 498 178 532 192 l 475 184 q 450 180 454 180 q 406 182 427 182 q 382 168 391 168 q 321 214 350 214 q 275 256 313 214 q 236 290 256 256 q 222 324 231 290 q 229 342 229 342 q 217 363 218 362 q 219 393 219 382 l 219 413 q 200 451 200 446 q 185 477 200 468 q 183 489 185 479 q 195 524 195 513 q 183 547 185 538 q 193 566 193 563 q 176 656 193 616 q 168 703 168 692 l 193 753 q 343 833 276 833 q 401 847 389 847 m 294 799 l 290 801 q 234 757 263 801 l 234 755 l 251 757 l 254 753 q 246 703 249 753 q 256 692 251 693 q 307 713 278 709 l 329 730 q 309 749 329 732 l 309 753 q 334 791 309 757 l 334 793 q 323 803 334 801 q 294 799 299 799 m 562 761 l 555 761 q 530 774 539 772 q 496 755 496 761 q 516 730 516 734 q 494 711 508 711 q 443 730 450 730 q 421 705 422 730 q 382 670 382 685 q 336 664 378 666 q 317 668 323 668 q 260 626 260 642 q 246 592 246 609 q 300 628 250 592 l 351 640 l 365 640 q 401 600 387 640 q 389 582 401 595 l 392 572 l 392 559 q 329 526 392 535 q 317 522 329 522 q 312 526 317 526 l 314 536 l 314 540 l 304 540 q 297 536 298 536 l 285 536 q 254 549 262 549 q 241 524 246 549 q 229 515 230 519 l 229 511 l 260 481 q 271 479 265 479 q 297 509 281 479 q 319 517 310 517 q 382 484 382 509 l 387 459 l 365 449 q 360 445 360 448 q 363 421 360 441 q 360 415 360 417 l 355 415 q 314 455 328 455 l 312 455 q 309 449 312 453 q 336 415 336 425 q 348 389 341 389 l 351 389 q 377 399 368 399 q 382 391 382 394 l 392 391 q 418 405 410 405 l 443 403 q 458 407 451 407 q 479 401 475 401 q 516 425 516 404 q 518 441 518 436 q 509 455 515 455 q 498 453 504 453 l 496 457 l 504 479 q 501 501 501 493 q 513 513 505 510 l 516 513 q 579 489 579 507 l 579 486 q 550 449 550 470 l 552 437 l 562 437 q 623 491 589 491 q 635 501 635 500 q 601 549 635 537 l 598 549 q 579 540 585 547 q 475 555 475 547 q 465 608 465 589 q 516 642 480 642 l 528 642 q 589 608 589 629 l 596 604 l 601 604 q 608 612 604 604 q 596 644 602 637 l 584 642 q 567 652 567 642 q 586 714 586 671 q 574 745 581 735 q 579 749 575 749 l 586 749 q 610 692 595 749 l 621 690 q 625 707 625 698 l 625 709 q 589 777 593 772 l 586 777 q 562 761 573 761 m 450 532 l 455 532 q 487 463 477 516 l 487 459 q 465 433 470 433 l 460 433 q 446 479 455 433 l 440 479 q 435 461 440 477 l 438 447 l 426 439 l 416 439 q 406 447 412 439 q 433 528 413 528 q 450 532 444 528 m 589 437 q 591 421 589 432 q 567 326 585 326 q 535 264 557 298 l 540 262 l 552 270 l 555 270 q 559 264 559 270 l 552 250 l 557 248 q 579 270 563 248 q 606 307 606 279 l 606 309 q 598 342 601 309 l 615 427 q 633 459 633 444 l 633 461 q 627 465 633 465 l 623 465 q 589 437 589 444 m 227 449 l 227 439 q 254 387 245 428 q 268 336 268 351 l 268 334 l 260 315 q 302 264 260 283 q 319 250 302 261 l 326 250 q 336 258 330 250 l 336 260 q 329 274 329 267 l 336 282 l 336 288 q 326 286 330 288 q 307 300 322 286 l 302 298 l 297 298 q 280 342 280 317 l 280 363 q 283 403 280 376 q 265 453 269 406 l 256 459 l 246 459 q 227 449 233 459 m 496 380 q 450 391 477 380 l 421 376 l 406 378 q 382 375 400 378 q 346 378 359 378 l 343 378 q 326 363 326 378 l 326 353 q 331 349 327 349 q 348 355 339 349 l 355 355 q 365 351 361 351 q 414 347 387 351 q 435 357 416 347 l 475 353 q 498 363 491 363 q 530 353 527 356 l 538 353 q 547 373 547 355 q 526 393 544 393 q 496 380 500 380 m 465 330 q 443 332 452 332 l 440 332 q 409 320 424 320 l 387 326 l 372 324 q 353 332 372 330 q 336 320 342 332 q 348 296 348 299 l 358 296 q 370 317 363 296 l 375 317 q 389 304 383 304 q 426 317 412 317 q 455 300 436 300 l 487 317 l 489 317 q 518 300 496 317 q 543 332 532 300 q 535 336 536 336 l 526 336 q 494 332 516 336 q 479 336 486 336 l 465 330 m 414 258 l 414 252 q 448 224 414 249 q 479 246 458 224 q 494 270 494 250 l 487 274 l 472 274 q 443 280 466 274 q 414 258 437 280 m 360 238 q 411 198 384 198 l 423 202 q 404 228 410 228 q 375 248 380 248 q 360 238 365 245 m 472 206 l 472 204 q 477 200 473 200 q 518 238 512 200 l 518 240 q 513 244 518 244 l 509 244 q 472 206 485 244 m 498 1139 l 532 1139 q 544 1118 544 1133 l 578 1118 q 588 1109 583 1118 l 588 1061 q 576 1049 588 1058 l 547 1049 l 542 1047 l 544 1024 l 544 924 q 539 899 544 908 q 542 867 542 880 l 542 862 q 537 857 542 857 l 530 857 q 523 895 523 857 l 521 895 q 514 883 521 883 l 511 883 q 505 911 507 883 l 500 911 l 500 897 q 498 885 500 889 l 503 846 l 496 841 l 493 841 q 488 846 488 841 l 488 934 l 486 947 q 488 950 486 950 q 486 957 488 952 q 488 1040 488 1008 l 488 1049 l 463 1049 q 442 1072 446 1049 l 442 1098 q 452 1118 442 1116 l 488 1118 l 488 1130 q 498 1139 488 1134 m 68 1135 q 140 1107 140 1128 q 146 1090 143 1107 q 149 987 146 1067 q 146 895 146 919 l 142 892 l 140 892 q 135 897 135 892 l 135 931 l 132 931 q 123 915 123 928 l 123 908 l 125 892 l 117 885 q 109 892 113 885 l 109 920 l 107 920 q 91 913 96 913 q 77 920 89 920 l 75 915 l 75 895 q 66 885 75 890 l 56 895 l 58 906 l 56 922 l 45 920 l 40 926 l 40 957 l 38 957 l 35 945 l 35 890 q 28 876 35 878 l 26 876 q 20 885 23 876 q 22 892 20 892 q 20 943 20 926 l 20 1019 q 22 1088 20 1048 q 20 1112 20 1097 q 61 1135 20 1135 l 68 1135 m 216 1130 l 239 1130 q 292 1086 272 1130 q 294 996 294 1018 q 292 973 294 985 q 294 945 294 961 l 294 941 q 292 871 294 918 l 288 869 q 276 913 281 869 q 267 934 267 916 l 262 934 q 255 913 262 920 l 243 915 q 237 913 239 913 q 225 926 228 926 q 220 899 220 911 l 222 890 q 216 878 220 878 l 211 885 l 214 906 q 207 924 212 924 l 204 924 q 193 892 199 924 l 188 890 q 179 920 181 890 q 165 939 175 920 l 165 1059 q 202 1128 165 1116 l 216 1130 m 385 1130 q 437 1077 437 1118 l 437 1028 q 431 1021 437 1025 l 394 1021 q 385 1063 390 1021 l 368 1063 l 363 1061 q 361 968 361 1002 l 361 950 q 368 943 361 947 l 380 943 q 389 957 384 943 l 387 962 l 387 964 q 394 977 388 977 l 431 977 q 437 970 434 977 l 437 945 q 426 913 431 937 l 419 913 l 419 943 l 417 943 l 417 908 l 412 908 q 408 913 408 908 l 408 939 q 396 899 400 937 l 391 899 q 385 920 387 899 l 368 922 l 363 915 l 363 895 q 347 885 363 892 l 345 885 q 338 892 342 885 l 343 915 q 329 931 343 930 q 327 941 327 935 l 322 941 l 322 908 q 315 895 322 897 l 313 895 l 308 897 q 311 911 308 907 q 308 1005 308 970 l 308 1059 q 355 1130 308 1114 l 385 1130 m 648 1130 l 671 1130 q 724 1086 704 1130 q 726 996 726 1018 q 724 973 726 985 q 726 945 726 961 l 726 941 q 724 871 726 918 l 720 869 q 708 913 713 869 q 699 934 699 916 l 694 934 q 687 913 694 920 l 675 915 q 669 913 671 913 q 657 926 660 926 q 652 899 652 911 l 655 890 q 648 878 652 878 l 644 885 l 646 906 q 639 924 644 924 l 636 924 q 625 892 631 924 l 621 890 q 611 920 613 890 q 597 939 608 920 l 597 1059 q 634 1128 597 1116 l 648 1130 m 749 1128 l 812 1128 q 870 1088 854 1128 l 870 1075 q 872 996 870 1041 q 856 952 872 979 l 856 950 q 877 911 877 917 l 877 901 l 870 892 l 870 867 q 856 857 865 857 l 854 862 l 854 890 q 849 895 854 895 q 842 878 845 895 q 847 852 847 866 l 840 848 l 836 848 q 831 852 831 848 l 831 878 q 803 941 831 897 l 793 941 l 793 920 q 789 899 793 914 q 791 873 791 883 q 785 869 785 869 l 782 869 q 775 880 777 869 q 777 906 777 897 l 772 908 l 766 903 q 759 915 760 903 l 757 915 q 754 899 757 908 q 759 862 759 872 l 749 855 l 747 855 q 741 864 741 855 q 743 899 741 889 q 741 929 741 928 q 743 1118 743 1036 q 749 1128 746 1128 m 73 1067 l 73 939 l 86 939 l 86 1067 l 73 1067 m 216 1061 l 216 957 q 222 950 216 954 l 227 950 q 241 964 241 950 l 241 1054 q 234 1067 241 1066 l 222 1067 q 216 1061 220 1067 m 648 1061 l 648 957 q 655 950 648 954 l 660 950 q 673 964 673 950 l 673 1054 q 667 1067 673 1066 l 655 1067 q 648 1061 652 1067 m 793 1056 l 793 991 l 805 991 q 810 996 810 991 l 810 1056 q 805 1061 810 1061 l 798 1061 q 793 1056 793 1060 m 54 941 l 54 929 l 56 929 l 56 941 l 54 941 m 73 159 l 107 159 q 119 139 119 153 l 153 139 q 161 130 156 139 l 161 82 q 150 71 161 79 l 121 71 l 116 68 l 119 46 l 119 -51 q 114 -76 119 -67 q 116 -107 116 -95 l 116 -112 q 112 -117 116 -117 l 105 -117 q 98 -80 98 -117 l 96 -80 q 89 -92 96 -92 l 87 -92 q 80 -64 82 -92 l 75 -64 l 75 -78 q 73 -90 75 -85 l 78 -127 l 71 -132 l 68 -132 q 64 -127 64 -132 l 64 -42 l 62 -28 q 64 -26 62 -26 q 62 -19 64 -24 q 64 62 64 31 l 64 71 l 39 71 q 19 94 22 71 l 19 119 q 28 139 19 136 l 64 139 l 64 150 q 73 159 64 154 m 661 150 l 683 150 q 735 107 715 150 q 737 19 737 41 q 735 -3 737 8 q 737 -31 737 -15 l 737 -35 q 735 -103 737 -58 l 730 -105 q 720 -62 724 -105 q 710 -42 710 -59 l 706 -42 q 699 -62 706 -55 l 688 -60 q 681 -62 683 -62 q 669 -49 672 -49 q 665 -76 665 -64 q 667 -85 665 -77 q 661 -96 665 -96 l 656 -90 l 659 -69 q 652 -51 657 -51 l 649 -51 q 638 -83 644 -51 l 633 -85 q 625 -56 627 -85 q 611 -37 621 -56 l 611 80 q 647 148 611 136 l 661 150 m 179 148 l 283 148 q 299 139 296 148 l 299 98 q 288 80 299 86 l 227 80 l 227 33 l 252 33 q 270 26 269 33 l 270 -12 q 256 -19 267 -19 l 227 -19 l 227 -37 l 286 -37 q 301 -53 301 -37 l 301 -71 q 294 -78 301 -75 l 292 -78 q 288 -73 288 -78 l 288 -62 l 281 -62 q 270 -78 273 -78 q 263 -66 264 -78 l 258 -66 q 250 -85 258 -85 l 247 -85 q 238 -58 240 -85 l 231 -58 q 220 -92 229 -92 l 211 -92 q 204 -80 206 -92 l 199 -83 l 195 -83 q 189 -66 190 -83 l 191 -66 l 189 -62 l 189 -56 q 191 -35 189 -47 q 186 -22 186 -28 l 184 -22 l 184 -24 q 186 -56 186 -43 l 186 -69 q 177 -78 186 -73 l 170 -73 l 172 -42 q 170 -12 172 -24 q 172 64 172 31 l 172 134 q 179 148 174 148 m 321 148 l 382 148 q 439 109 423 148 l 439 96 q 441 19 439 62 q 426 -24 441 3 l 426 -26 q 446 -64 446 -58 l 446 -73 l 439 -83 l 439 -107 q 426 -117 435 -117 l 423 -112 l 423 -85 q 419 -80 423 -80 q 412 -96 415 -80 q 416 -121 416 -108 q 410 -125 411 -125 l 406 -125 q 401 -121 401 -125 l 401 -96 q 374 -35 401 -79 l 365 -35 l 365 -56 q 360 -76 365 -61 q 362 -100 362 -92 l 355 -105 l 353 -105 q 347 -94 348 -105 q 349 -69 349 -79 l 345 -66 l 338 -71 q 331 -60 332 -71 l 328 -60 q 326 -76 328 -67 q 331 -112 331 -102 l 321 -119 l 319 -119 q 313 -110 314 -119 q 315 -76 313 -85 q 313 -46 313 -47 q 315 139 315 58 q 321 148 318 148 m 471 148 l 532 148 q 588 109 572 148 l 588 96 q 591 19 588 62 q 574 -24 591 3 l 574 -26 q 595 -64 595 -58 l 595 -73 l 588 -83 l 588 -107 q 574 -117 584 -117 l 572 -112 l 572 -85 q 568 -80 572 -80 q 561 -96 564 -80 q 566 -121 566 -108 l 559 -125 l 554 -125 q 550 -121 550 -125 l 550 -96 q 523 -35 550 -79 l 513 -35 l 513 -56 q 509 -76 513 -61 q 511 -100 511 -92 l 505 -105 l 503 -105 q 496 -94 497 -105 q 498 -69 498 -79 l 493 -66 l 486 -71 q 479 -60 480 -71 l 477 -60 q 475 -76 477 -67 q 479 -112 479 -102 l 471 -119 l 469 -119 q 462 -110 463 -119 q 464 -76 462 -85 q 462 -46 462 -47 q 464 139 464 58 q 471 148 467 148 m 760 148 l 821 148 q 878 109 861 148 l 878 96 q 880 19 878 62 q 864 -24 880 3 l 864 -26 q 884 -64 884 -58 l 884 -73 l 878 -83 l 878 -107 q 864 -117 873 -117 l 861 -112 l 861 -85 q 857 -80 861 -80 q 850 -96 853 -80 q 854 -121 854 -108 l 848 -125 l 844 -125 q 839 -121 839 -125 l 839 -96 q 812 -35 839 -79 l 803 -35 l 803 -56 q 798 -76 803 -61 q 800 -100 800 -92 l 793 -105 l 791 -105 q 785 -94 787 -105 q 787 -69 787 -79 l 783 -66 l 776 -71 q 769 -60 770 -71 l 766 -60 q 764 -76 766 -67 q 769 -112 769 -102 l 760 -119 l 758 -119 q 751 -110 752 -119 q 753 -76 751 -85 q 751 -46 751 -47 q 753 139 753 58 q 760 148 756 148 m 661 82 l 661 -19 q 667 -26 661 -22 l 672 -26 q 686 -12 686 -26 l 686 75 q 679 89 686 87 l 667 89 q 661 82 664 89 m 365 78 l 365 15 l 376 15 q 380 19 380 15 l 380 78 q 376 82 380 82 l 369 82 q 365 78 365 81 m 513 78 l 513 15 l 525 15 q 530 19 530 15 l 530 78 q 525 82 530 82 l 518 82 q 513 78 513 81 m 803 78 l 803 15 l 814 15 q 819 19 819 15 l 819 78 q 814 82 819 82 l 807 82 q 803 78 803 81 m 488 -136 l 503 -136 q 508 -146 508 -139 l 524 -146 l 528 -149 q 531 -146 528 -147 l 547 -146 l 547 -140 q 551 -136 547 -139 l 567 -136 q 572 -146 572 -139 l 587 -146 q 592 -150 589 -146 l 592 -172 q 587 -176 592 -173 l 573 -176 l 571 -178 l 572 -188 l 572 -233 q 570 -243 572 -239 q 571 -258 571 -252 l 571 -260 q 569 -262 571 -262 l 566 -262 q 563 -245 563 -262 l 562 -245 q 559 -251 562 -251 l 557 -251 q 555 -239 555 -251 l 553 -239 l 553 -245 q 551 -250 553 -248 l 553 -267 l 551 -269 l 549 -269 q 547 -267 547 -269 l 547 -228 l 547 -222 q 547 -221 547 -221 q 547 -218 547 -220 q 547 -180 547 -195 l 547 -176 l 536 -176 q 529 -172 529 -176 l 522 -176 l 509 -176 l 507 -178 l 508 -188 l 508 -233 q 506 -243 508 -239 q 507 -258 507 -252 l 507 -260 q 505 -262 507 -262 l 502 -262 q 498 -245 498 -262 l 498 -245 q 494 -251 498 -251 l 494 -251 q 490 -239 492 -251 l 488 -239 l 488 -245 q 488 -250 488 -248 l 490 -267 l 486 -269 l 486 -269 q 484 -267 484 -269 l 484 -228 l 482 -222 q 484 -221 482 -221 q 482 -218 484 -220 q 484 -180 484 -195 l 484 -176 l 472 -176 q 463 -166 464 -176 l 463 -155 q 467 -146 463 -147 l 484 -146 l 484 -140 q 488 -136 484 -139 m 290 -138 q 322 -151 322 -142 q 326 -158 324 -151 q 326 -204 326 -168 q 326 -245 326 -235 l 323 -247 l 322 -247 q 320 -245 320 -247 l 320 -229 l 319 -229 q 315 -237 315 -231 l 315 -239 l 316 -247 l 312 -250 q 309 -247 311 -250 l 309 -235 l 308 -235 q 300 -237 302 -237 q 294 -235 300 -235 l 293 -237 l 293 -245 q 289 -250 293 -248 q 285 -245 288 -250 l 286 -241 l 285 -233 l 280 -235 l 278 -231 l 278 -218 l 277 -218 l 276 -223 l 276 -248 q 273 -254 276 -253 l 271 -254 q 269 -250 270 -254 q 269 -247 269 -247 q 269 -224 269 -231 l 269 -190 q 269 -159 269 -177 q 269 -149 269 -155 q 287 -138 269 -138 l 290 -138 m 439 -138 l 453 -138 q 460 -146 460 -138 l 460 -229 q 458 -241 460 -241 l 451 -241 q 445 -249 451 -247 l 442 -249 q 441 -255 442 -250 l 442 -265 q 439 -269 440 -269 l 437 -269 q 434 -261 434 -269 l 434 -260 q 435 -256 434 -258 l 431 -243 l 431 -243 l 425 -247 q 420 -243 420 -245 l 419 -243 q 416 -257 419 -257 q 414 -255 414 -257 l 414 -247 l 413 -235 l 412 -235 q 408 -239 412 -237 l 404 -239 q 397 -228 401 -239 q 399 -227 397 -227 q 397 -223 399 -224 q 399 -182 399 -197 l 399 -150 q 404 -142 399 -144 l 414 -142 q 425 -154 425 -142 l 425 -217 l 425 -222 l 429 -222 l 435 -221 l 435 -148 q 439 -138 435 -140 m 854 -139 l 858 -139 q 885 -168 879 -139 l 885 -180 q 869 -186 884 -186 l 869 -187 q 885 -213 885 -195 l 885 -235 q 882 -237 885 -236 l 880 -237 l 876 -235 l 876 -247 q 871 -254 876 -252 l 869 -254 q 865 -243 865 -254 l 863 -243 l 862 -253 q 863 -264 862 -255 l 861 -265 l 859 -265 l 856 -263 q 857 -248 857 -253 q 856 -241 857 -247 q 850 -245 852 -245 q 844 -241 849 -245 q 842 -250 844 -250 l 840 -250 q 838 -248 838 -250 l 838 -239 l 836 -233 l 836 -233 q 832 -248 832 -241 l 832 -259 q 829 -262 832 -260 l 827 -262 l 825 -261 q 826 -233 826 -242 l 826 -215 q 829 -206 826 -207 l 845 -206 l 845 -205 q 824 -184 832 -205 l 824 -165 q 854 -139 829 -139 m 83 -140 l 87 -140 q 101 -150 101 -140 q 106 -178 102 -152 l 107 -178 q 117 -144 112 -144 l 135 -144 q 138 -146 138 -145 q 123 -229 126 -206 q 120 -241 123 -241 l 117 -241 l 113 -237 q 107 -241 113 -241 l 107 -249 q 105 -251 107 -251 l 104 -251 q 100 -230 101 -251 q 91 -205 94 -230 l 90 -205 q 83 -239 87 -239 l 83 -239 l 83 -245 q 81 -247 83 -247 l 79 -247 q 77 -245 77 -247 l 77 -231 q 75 -221 77 -229 l 75 -221 q 67 -239 70 -238 l 64 -239 q 55 -197 62 -239 q 44 -144 53 -194 l 47 -142 l 64 -142 q 75 -174 70 -142 l 77 -174 l 77 -172 q 83 -140 81 -140 m 163 -140 l 174 -140 q 197 -160 189 -140 q 198 -200 198 -191 q 197 -211 198 -205 q 198 -223 198 -216 l 198 -225 q 197 -256 198 -235 l 195 -257 q 190 -237 192 -257 q 186 -228 186 -236 l 184 -228 q 180 -237 184 -234 l 176 -237 q 172 -237 174 -237 q 168 -231 169 -231 q 165 -243 165 -239 l 166 -248 q 163 -253 165 -253 q 161 -250 161 -250 l 162 -241 q 159 -233 161 -233 l 158 -233 q 153 -247 155 -233 l 151 -248 q 146 -235 148 -248 q 140 -226 145 -235 l 140 -172 q 157 -142 140 -147 l 163 -140 m 227 -140 l 237 -140 q 261 -160 252 -140 q 262 -200 262 -191 q 261 -211 262 -205 q 262 -223 262 -216 l 262 -225 q 261 -256 262 -235 l 259 -257 q 254 -237 256 -257 q 250 -228 250 -236 l 248 -228 q 245 -237 248 -234 l 239 -237 q 237 -237 237 -237 q 231 -231 233 -231 q 229 -243 229 -239 q 231 -248 229 -244 q 227 -253 229 -253 l 225 -250 l 226 -241 q 223 -233 226 -233 l 222 -233 q 217 -247 220 -233 l 215 -248 q 211 -235 212 -248 q 204 -226 209 -235 l 204 -172 q 221 -142 204 -147 l 227 -140 m 368 -140 q 391 -164 391 -146 l 391 -186 q 389 -189 391 -187 l 372 -189 q 368 -170 370 -189 l 360 -170 l 358 -172 q 357 -213 357 -197 l 357 -221 q 360 -224 357 -222 l 366 -224 q 370 -218 368 -224 l 369 -216 l 369 -215 q 372 -208 370 -208 l 389 -208 q 391 -212 390 -208 l 391 -223 q 386 -237 389 -227 l 383 -237 l 383 -224 l 382 -224 l 382 -239 l 380 -239 q 378 -237 378 -239 l 378 -226 q 373 -243 374 -227 l 371 -243 q 368 -235 369 -243 l 360 -233 q 358 -237 360 -234 l 358 -245 q 351 -250 358 -247 l 350 -250 q 347 -247 349 -250 l 349 -237 q 343 -229 349 -230 q 342 -225 342 -227 l 340 -225 l 340 -239 q 336 -245 340 -245 l 336 -245 l 334 -245 q 334 -239 334 -240 q 334 -196 334 -212 l 334 -172 q 354 -140 334 -148 l 368 -140 m 600 -142 l 648 -142 q 654 -146 653 -142 l 654 -164 q 650 -172 654 -170 l 622 -172 l 622 -194 l 633 -194 q 642 -197 641 -194 l 642 -215 q 635 -218 640 -218 l 622 -218 l 622 -226 l 648 -226 q 656 -233 656 -226 l 656 -241 q 652 -245 656 -243 l 652 -245 q 650 -243 650 -245 l 650 -237 l 646 -237 q 642 -245 642 -245 q 638 -239 638 -245 l 636 -239 q 632 -248 636 -248 l 631 -248 q 627 -235 628 -248 l 624 -235 q 618 -251 623 -251 l 614 -251 q 611 -245 612 -251 l 609 -247 l 607 -247 q 604 -239 605 -247 l 605 -239 l 604 -237 l 604 -235 q 605 -225 604 -231 q 603 -219 603 -222 l 602 -219 l 602 -220 q 603 -235 603 -229 l 603 -241 q 599 -245 603 -242 l 596 -243 l 597 -228 q 596 -215 597 -220 q 597 -180 597 -195 l 597 -148 q 600 -142 597 -142 m 665 -142 l 693 -142 q 719 -159 711 -142 l 719 -165 q 720 -200 719 -180 q 713 -220 720 -208 l 713 -221 q 722 -239 722 -235 l 722 -243 l 719 -247 l 719 -258 q 713 -262 717 -262 l 711 -260 l 711 -248 q 709 -245 711 -245 q 707 -253 708 -245 q 709 -264 709 -258 l 705 -267 l 703 -267 q 701 -264 701 -267 l 701 -253 q 689 -225 701 -245 l 685 -225 l 685 -235 q 683 -243 685 -237 q 684 -255 684 -251 l 680 -257 l 680 -257 q 676 -252 677 -257 q 677 -241 677 -245 l 675 -239 l 672 -241 q 669 -237 669 -241 l 668 -237 q 667 -243 668 -239 q 669 -260 669 -256 l 665 -263 l 664 -263 q 661 -259 661 -263 q 662 -243 661 -248 q 661 -230 661 -231 q 662 -146 662 -182 q 665 -142 663 -142 m 764 -142 l 812 -142 q 819 -146 817 -142 l 819 -164 q 814 -172 819 -170 l 786 -172 l 786 -194 l 798 -194 q 806 -197 805 -194 l 806 -215 q 800 -218 804 -218 l 786 -218 l 786 -226 l 812 -226 q 820 -233 820 -226 l 820 -241 q 817 -245 820 -243 l 816 -245 q 814 -243 814 -245 l 814 -237 l 810 -237 q 806 -245 806 -245 q 802 -239 803 -245 l 800 -239 q 796 -248 800 -248 l 795 -248 q 791 -235 792 -248 l 788 -235 q 783 -251 787 -251 l 779 -251 q 776 -245 777 -251 l 774 -247 l 771 -247 q 768 -239 769 -247 l 769 -239 l 768 -237 l 768 -235 q 769 -225 768 -231 q 767 -219 767 -222 l 766 -219 l 766 -220 q 767 -235 767 -229 l 767 -241 q 763 -245 767 -242 l 760 -243 l 761 -228 q 760 -215 761 -220 q 761 -180 761 -195 l 761 -148 q 764 -142 762 -142 m 163 -172 l 163 -218 q 166 -221 163 -219 l 168 -221 q 174 -215 174 -221 l 174 -174 q 172 -168 174 -169 l 166 -168 q 163 -172 165 -168 m 227 -172 l 227 -218 q 231 -221 227 -219 l 233 -221 q 239 -215 239 -221 l 239 -174 q 235 -168 239 -169 l 231 -168 q 227 -172 229 -168 m 292 -168 l 292 -226 l 298 -226 l 298 -168 l 292 -168 m 685 -174 l 685 -202 l 690 -202 q 692 -200 692 -202 l 692 -174 q 690 -172 692 -172 l 687 -172 q 685 -174 685 -172 m 849 -174 l 849 -180 q 860 -184 849 -182 q 857 -172 859 -172 l 852 -172 q 849 -174 850 -172 m 850 -208 q 852 -217 852 -214 l 852 -225 l 853 -227 q 859 -224 859 -226 l 859 -211 q 853 -208 858 -208 l 850 -208 m 111 -221 l 111 -230 l 113 -230 l 113 -221 l 111 -221 m 736 -222 l 737 -222 q 751 -229 746 -222 l 751 -243 q 749 -245 751 -245 l 747 -245 q 745 -243 745 -243 q 739 -247 745 -245 q 736 -249 739 -249 l 734 -249 q 731 -228 731 -249 q 736 -222 732 -224 m 284 -225 l 284 -230 l 285 -230 l 285 -225 l 284 -225 z "},"&":{"ha":866,"x_min":20,"x_max":898,"o":"m 395 992 q 654 818 564 992 q 670 754 670 768 l 670 680 q 565 511 614 511 q 517 474 517 480 q 586 406 517 466 q 670 458 586 458 l 696 458 q 840 427 840 458 q 845 406 845 418 l 845 363 q 781 220 845 320 l 781 205 l 898 83 l 898 62 q 813 -1 848 -1 q 766 36 813 5 l 739 36 q 660 9 709 9 q 602 41 635 41 q 570 9 584 37 l 570 -28 q 575 -86 570 -50 q 549 -128 562 -128 l 533 -128 q 512 -102 526 -128 l 512 -60 q 522 -17 522 -22 l 522 41 q 475 152 491 66 l 448 173 l 443 173 q 374 94 374 125 q 342 25 362 25 l 321 25 q 290 88 290 41 l 295 120 l 295 125 l 285 173 q 263 115 271 173 l 263 88 q 274 14 263 54 q 248 -28 260 -28 l 232 -28 q 205 14 205 -14 q 216 88 205 26 l 205 141 l 211 141 q 189 173 198 173 q 153 104 167 159 q 158 62 153 100 q 121 4 149 4 q 89 41 89 18 q 94 115 94 86 l 94 146 q 20 363 20 292 l 20 379 q 147 623 20 482 q 132 707 132 656 q 221 918 132 800 q 395 992 315 992 m 395 723 l 380 701 l 412 701 q 422 712 422 701 l 422 718 l 395 723 m 279 368 l 279 353 q 338 305 316 305 l 338 316 q 279 368 325 316 z "},"'":{"ha":235,"x_min":56,"x_max":182,"o":"m 92 1109 l 152 1109 q 182 1090 182 1107 l 182 844 q 177 839 182 843 l 177 808 q 157 794 175 794 l 146 803 l 146 844 q 133 873 133 856 l 130 873 q 125 865 130 870 q 127 861 125 861 l 125 841 l 125 813 q 119 810 125 810 l 109 810 q 103 813 103 810 l 103 832 q 98 875 103 857 l 92 875 q 78 871 85 871 l 78 842 q 67 836 78 840 q 56 842 63 836 l 56 1097 q 92 1109 69 1109 z "},"(":{"ha":514,"x_min":0,"x_max":0,"o":""},")":{"ha":514,"x_min":0,"x_max":0,"o":""},"*":{"ha":694,"x_min":0,"x_max":0,"o":""},"+":{"ha":688,"x_min":0,"x_max":0,"o":""},",":{"ha":343,"x_min":66,"x_max":279,"o":"m 168 192 l 192 192 q 279 100 279 167 l 279 85 q 197 -117 279 47 l 182 -117 q 158 -93 176 -117 l 158 -69 l 134 -74 l 125 -74 q 76 52 107 -71 q 66 90 66 52 q 139 178 66 124 l 168 192 z "},"-":{"ha":507,"x_min":25,"x_max":469,"o":"m 84 650 l 260 650 q 469 607 469 650 l 469 452 q 426 414 456 432 l 378 414 l 361 425 l 357 425 q 330 372 340 425 l 330 361 q 340 329 330 347 q 309 286 326 294 l 287 286 q 260 329 273 286 q 266 393 260 338 q 196 436 253 436 l 170 436 l 100 388 l 68 388 q 25 425 37 405 l 25 607 q 84 650 25 650 z "},"­":{"ha":507,"x_min":25,"x_max":469,"o":"m 84 650 l 260 650 q 469 607 469 650 l 469 452 q 426 414 456 432 l 378 414 l 361 425 l 357 425 q 330 372 340 425 l 330 361 q 340 329 330 347 q 309 286 326 294 l 287 286 q 260 329 273 286 q 266 393 260 338 q 196 436 253 436 l 170 436 l 100 388 l 68 388 q 25 425 37 405 l 25 607 q 84 650 25 650 z "},".":{"ha":363,"x_min":58,"x_max":279,"o":"m 132 298 q 279 218 222 298 l 279 49 q 256 26 279 39 q 217 54 251 26 l 212 54 q 194 31 212 31 l 143 31 q 121 -8 132 -8 l 98 -8 q 81 9 90 -8 l 81 66 q 58 156 68 143 l 58 230 q 132 298 106 298 z "},"/":{"ha":1231,"x_min":47,"x_max":1177,"o":"m 603 1139 l 618 1139 q 621 1135 621 1139 q 623 1093 621 1093 q 629 1086 625 1093 l 629 1085 l 623 1078 l 623 1050 q 574 1032 623 1032 l 570 1032 q 548 1062 548 1032 l 548 1075 q 540 1082 544 1075 l 547 1091 q 545 1135 545 1120 l 548 1136 l 564 1136 l 572 1137 q 577 1058 574 1126 l 593 1058 l 596 1059 l 591 1136 q 603 1139 597 1139 m 668 1136 q 746 1121 741 1124 q 739 1100 743 1100 q 715 1103 717 1103 l 711 1082 q 719 1074 713 1082 q 709 1061 709 1067 q 700 1025 703 1025 q 675 1032 675 1027 q 682 1072 680 1059 q 675 1081 677 1075 l 686 1088 q 688 1108 686 1093 q 663 1114 663 1111 q 668 1136 664 1136 m 486 1123 q 507 1093 502 1123 q 482 1085 485 1085 q 476 1095 477 1095 q 460 1090 460 1094 q 475 1067 460 1072 l 469 1057 q 476 1039 473 1039 q 490 1045 490 1042 l 490 1046 l 489 1057 q 515 1063 505 1062 q 521 1039 521 1048 q 467 1012 521 1022 q 441 1049 449 1012 l 431 1055 l 437 1065 q 430 1095 430 1092 q 486 1123 430 1115 m 781 1113 q 854 1081 851 1086 l 846 1061 l 821 1071 l 814 1050 q 818 1040 818 1044 q 802 1020 802 1034 q 791 997 793 998 q 768 1007 768 1004 q 782 1046 768 1010 q 778 1057 778 1053 q 795 1081 795 1063 q 772 1090 774 1090 q 781 1113 772 1099 m 366 1080 q 394 1048 380 1080 q 406 1042 406 1046 q 403 1034 403 1036 q 416 1003 416 1011 l 416 1002 q 356 961 416 985 q 335 997 338 997 q 326 1003 326 998 q 329 1012 326 1006 q 309 1052 309 1046 q 366 1080 359 1080 m 895 1061 q 954 1020 951 1025 q 944 1003 944 1005 l 939 1003 q 902 1026 905 1026 l 902 1025 l 895 1013 q 921 994 920 997 q 911 977 911 979 l 906 977 q 880 991 887 991 q 874 979 874 985 q 911 952 907 958 q 898 935 909 952 l 838 972 l 838 977 l 860 1010 l 860 1023 q 884 1049 874 1023 q 895 1061 894 1061 m 345 1040 q 371 994 366 1003 q 385 1002 382 1002 l 385 1003 q 361 1050 385 1008 l 359 1050 q 345 1040 345 1045 m 261 1008 q 290 984 270 1008 q 303 983 302 984 l 302 976 l 302 971 q 320 944 320 951 l 320 939 q 283 901 320 927 l 274 899 l 273 899 q 245 922 264 899 l 234 922 l 234 935 q 214 964 214 957 l 214 968 q 255 1008 214 983 l 261 1008 m 990 990 l 991 990 q 1035 938 1035 952 q 1002 901 1035 927 q 993 898 996 898 q 981 901 987 901 q 970 866 973 867 l 949 884 q 958 921 958 916 l 937 901 l 935 901 q 918 918 933 901 q 948 948 918 920 l 947 951 l 947 958 q 949 961 947 961 l 960 960 q 990 990 960 962 m 586 984 q 833 915 696 984 q 928 810 905 849 q 975 706 970 751 q 1010 641 981 684 l 1012 633 q 994 563 994 576 l 994 554 q 1000 530 1000 532 l 1000 526 l 983 473 q 993 433 993 437 q 967 382 993 415 l 962 374 q 970 320 970 352 l 970 315 q 944 183 970 283 l 941 161 q 954 119 941 152 l 954 115 q 915 -7 954 94 q 876 -32 905 -32 q 800 -58 854 -37 q 723 -68 741 -68 q 544 -35 685 -68 q 424 5 473 -17 q 339 75 339 72 q 297 174 329 85 l 297 189 q 315 235 297 205 l 315 250 q 292 332 292 317 q 269 407 292 370 q 258 440 263 420 q 219 557 245 453 q 215 623 215 599 q 270 795 215 672 q 311 873 280 795 q 374 931 355 928 q 469 966 418 966 q 553 983 507 983 q 586 984 570 983 m 254 980 l 242 968 q 279 928 275 928 q 292 939 282 928 q 254 980 260 980 m 975 938 q 987 926 975 936 l 990 926 q 1004 943 1004 938 q 993 956 1004 946 q 975 938 991 956 m 174 922 q 205 903 182 922 l 206 903 l 216 905 q 229 884 219 890 q 245 863 245 876 q 215 820 237 842 q 206 817 210 817 l 202 817 q 174 834 193 817 q 163 831 165 831 l 161 834 l 161 844 q 133 873 133 861 q 163 918 134 887 q 174 922 169 922 m 353 834 l 353 833 l 355 833 q 522 916 450 903 l 522 918 l 519 918 q 460 901 511 918 q 365 844 395 884 q 353 834 353 838 m 163 880 l 163 878 q 206 846 201 846 l 215 857 l 215 863 q 174 892 210 865 l 173 892 q 163 880 171 892 m 1003 853 l 1004 853 q 1016 836 1016 845 q 1002 825 1010 825 q 989 844 989 833 q 1003 853 998 853 m 1113 840 l 1114 840 l 1146 777 q 1124 766 1130 766 q 1103 805 1105 805 q 1090 800 1092 800 q 1104 769 1104 771 l 1084 759 q 1069 787 1075 772 q 1055 779 1056 783 q 1074 739 1074 743 q 1053 729 1069 735 q 1020 793 1020 791 q 1059 817 1059 813 l 1061 824 l 1063 824 q 1072 821 1067 824 q 1113 840 1108 840 m 861 836 q 853 831 861 833 q 890 800 861 819 l 890 801 q 861 836 878 836 m 96 823 q 136 805 136 806 q 147 810 142 810 q 172 791 147 799 q 180 759 180 762 q 159 732 174 732 l 159 730 q 163 715 163 717 q 141 688 154 688 q 123 680 129 680 q 104 687 105 687 q 94 682 96 682 q 73 700 94 694 q 47 711 52 709 q 60 736 57 735 q 127 709 113 713 q 133 723 133 718 l 133 724 q 121 730 133 728 l 113 726 q 94 743 109 737 q 66 756 66 752 q 78 779 75 777 q 118 762 118 763 q 128 766 125 766 q 142 752 133 755 q 151 768 149 752 q 85 798 151 769 l 85 801 q 96 823 93 821 m 711 625 l 707 625 q 694 654 704 625 q 646 700 671 692 q 585 732 622 700 q 562 742 569 742 q 472 720 472 730 q 443 692 445 705 q 404 551 404 627 l 404 547 l 406 547 q 430 599 430 568 l 430 602 q 427 629 427 626 l 427 638 q 463 671 427 667 l 469 671 q 475 659 473 671 q 453 646 474 656 q 448 632 448 635 l 448 626 q 449 605 448 617 q 435 541 435 552 q 472 499 446 511 q 476 498 475 498 q 469 522 469 509 q 473 550 473 545 l 473 553 q 465 578 465 574 l 465 587 q 494 646 465 599 q 511 654 503 654 l 551 642 l 560 642 q 585 651 580 651 l 591 651 q 641 631 609 651 q 668 640 661 640 q 687 622 687 634 l 687 621 q 680 606 687 616 l 680 602 q 700 586 695 602 q 673 563 700 573 q 669 555 673 560 q 671 537 669 555 q 635 513 671 524 q 587 499 613 499 q 562 515 573 499 q 548 518 555 518 q 525 499 536 499 l 517 499 q 507 517 507 505 q 494 496 497 500 q 482 495 488 495 l 482 494 q 495 485 489 494 l 495 479 q 492 476 495 476 l 488 476 q 408 519 454 476 l 406 519 l 406 494 q 420 460 410 488 q 457 422 428 448 l 457 421 q 446 412 454 412 q 431 416 439 412 l 431 414 q 477 372 448 372 q 505 376 488 376 q 531 370 513 376 q 557 395 541 370 q 599 416 573 416 q 613 397 612 416 q 586 359 613 380 q 577 332 577 345 l 577 330 l 578 330 q 612 382 597 365 q 635 426 630 412 l 637 427 l 642 427 q 646 422 644 427 l 646 418 q 608 352 646 404 q 593 328 608 346 q 595 310 595 317 q 631 319 610 319 q 641 321 631 321 l 645 321 q 658 320 650 321 q 669 323 663 323 l 681 323 q 687 326 684 326 l 686 336 q 700 388 686 344 l 700 389 q 699 395 699 395 q 705 416 704 406 q 720 433 715 416 l 713 433 q 688 416 701 433 l 686 414 q 671 429 671 418 l 671 433 q 690 467 671 445 q 717 515 690 495 q 736 553 732 550 l 739 553 q 745 547 741 553 q 743 519 743 524 q 756 463 752 463 l 756 462 l 758 462 l 758 463 q 749 524 749 514 q 762 547 749 547 q 783 515 767 545 l 817 460 q 833 426 817 454 l 833 421 q 825 416 832 418 q 810 418 820 418 l 808 408 q 828 336 823 341 q 843 325 836 325 l 867 338 l 867 352 q 846 387 867 360 q 836 412 838 401 q 863 429 839 429 q 912 406 885 429 q 918 404 918 406 q 939 412 920 404 q 948 407 948 410 l 948 403 q 912 368 948 386 q 906 347 906 349 l 906 340 q 916 323 906 334 q 928 355 919 335 q 921 361 924 355 l 921 366 q 932 374 924 374 l 937 374 l 939 372 q 979 431 968 404 q 968 469 979 434 l 967 469 q 961 452 961 458 q 970 429 970 439 q 956 412 967 412 l 951 412 q 947 417 949 412 l 947 420 q 956 431 956 429 q 947 454 947 444 q 962 488 947 473 q 971 485 966 488 q 977 505 977 500 q 952 580 952 555 q 966 619 952 587 q 968 635 968 625 l 968 640 q 948 678 968 648 q 893 734 918 700 q 824 752 865 752 q 785 720 813 752 q 742 675 772 718 q 720 641 732 675 q 711 625 720 629 m 1133 734 q 1140 729 1133 732 l 1150 730 q 1177 680 1169 730 l 1177 674 q 1149 654 1177 658 q 1141 678 1141 675 q 1152 686 1152 683 q 1146 700 1147 699 q 1133 696 1133 699 q 1140 664 1140 668 q 1118 644 1140 650 q 1113 635 1118 635 l 1105 640 l 1094 640 q 1068 692 1076 640 q 1095 714 1068 711 l 1098 714 l 1104 690 q 1095 687 1099 687 q 1101 668 1097 668 l 1113 671 l 1113 673 q 1105 704 1105 701 q 1127 726 1105 717 q 1133 734 1127 732 m 490 711 l 494 707 l 494 701 q 477 696 494 697 q 467 681 472 683 l 463 681 q 459 687 461 681 q 485 711 459 706 l 490 711 m 843 699 q 869 692 869 696 l 869 688 q 859 682 867 682 l 854 682 q 844 686 844 682 q 825 677 828 677 q 818 687 818 679 q 843 699 833 698 m 892 687 q 929 664 929 673 q 951 631 951 652 l 951 629 q 944 625 951 626 q 939 626 941 626 l 939 625 l 941 618 q 925 590 941 593 l 921 590 q 918 582 921 589 l 925 582 q 937 570 937 582 q 905 538 927 538 q 865 519 890 538 q 804 534 815 519 q 760 574 766 553 q 750 608 750 591 q 772 632 750 632 q 797 646 791 632 q 823 663 808 663 q 837 651 829 663 q 853 668 837 668 l 867 668 q 911 646 884 668 q 937 632 931 637 l 937 635 q 902 668 933 648 q 888 677 888 673 l 888 682 q 892 687 888 685 m 502 678 q 550 669 525 671 l 553 665 l 553 663 q 534 656 553 658 q 496 671 496 662 l 496 673 q 502 678 496 674 m 782 673 l 787 667 l 787 665 q 762 648 768 648 l 758 654 q 782 673 758 667 m 623 667 q 641 661 626 667 q 656 663 650 663 q 677 652 671 663 l 677 646 q 673 642 677 644 l 669 642 q 646 650 662 650 q 642 648 645 650 q 619 661 619 648 l 619 663 q 623 667 619 665 m 749 638 l 753 638 q 758 632 755 638 q 741 621 758 626 l 741 610 l 742 600 l 734 596 q 726 616 726 596 l 726 618 q 749 638 726 634 m 699 623 l 704 623 q 711 609 709 623 q 704 599 709 600 l 703 599 q 694 621 699 599 l 699 623 m 828 589 q 853 570 828 570 q 876 593 876 576 l 876 597 q 854 613 876 611 q 828 589 828 609 m 106 612 l 111 612 q 131 570 115 610 q 141 547 141 558 l 141 531 q 108 479 138 491 l 105 479 q 86 517 86 483 q 101 589 86 553 l 102 596 l 101 603 q 106 612 104 612 m 851 605 q 865 593 865 605 q 850 577 865 581 q 840 590 840 581 q 851 605 840 605 m 557 567 l 557 566 q 576 549 557 553 l 583 549 q 599 573 599 549 l 599 577 q 580 596 599 596 q 557 567 557 596 m 580 586 q 590 573 590 582 q 576 553 590 555 q 566 566 566 557 q 580 586 569 586 m 697 568 l 701 568 q 704 564 704 568 q 696 507 696 538 q 677 492 687 492 q 674 500 674 497 q 684 519 684 514 l 684 541 q 697 568 690 568 m 1141 564 l 1146 564 q 1166 521 1149 561 q 1176 494 1176 511 l 1176 489 q 1144 431 1176 447 l 1140 431 q 1121 466 1121 431 l 1121 477 q 1136 544 1121 501 q 1141 564 1136 564 m 930 537 q 938 530 935 537 q 913 508 938 513 q 906 518 906 510 q 921 524 910 522 q 930 537 921 532 m 797 530 q 834 508 810 527 l 844 508 q 880 517 873 517 q 888 512 888 515 l 888 507 q 867 500 888 505 q 843 494 859 494 q 811 508 826 494 q 792 519 795 515 l 792 526 q 797 530 792 528 m 642 508 l 645 508 q 649 500 648 508 q 587 472 649 490 l 581 472 l 547 477 q 524 465 528 465 l 522 465 q 519 467 519 465 l 519 473 q 544 494 519 490 q 578 486 573 486 q 642 508 593 486 m 414 507 q 446 479 421 507 q 459 472 459 476 l 459 469 q 453 463 459 467 q 408 498 439 463 l 408 502 q 414 507 408 505 m 658 490 l 663 490 q 667 485 665 490 q 654 466 663 466 q 648 471 648 468 q 658 490 648 484 m 831 482 q 843 466 835 482 q 895 452 870 452 q 913 454 901 452 q 919 450 919 452 l 919 446 q 898 437 915 437 q 824 473 824 446 l 824 476 q 831 482 825 479 m 504 465 q 512 422 508 463 q 490 394 512 397 q 477 410 480 394 q 494 452 477 418 q 504 465 494 465 m 631 462 l 635 453 q 625 434 630 434 l 622 434 l 614 441 q 597 434 609 434 l 595 434 q 590 439 593 434 l 590 441 q 628 462 593 447 l 631 462 m 408 452 l 408 448 q 411 433 408 446 q 420 437 417 437 q 410 452 410 450 l 408 452 m 242 422 q 251 394 246 422 q 264 361 264 381 q 241 309 264 323 q 229 306 232 306 q 215 336 215 306 q 229 397 215 355 q 242 422 229 416 m 654 403 q 656 398 654 402 l 656 395 q 642 366 656 385 l 622 332 q 619 319 622 319 l 614 319 q 609 329 609 321 l 609 332 q 642 393 609 340 q 654 403 642 401 m 831 395 q 851 348 838 395 l 851 338 q 847 333 851 336 l 843 333 q 834 361 838 333 q 824 391 824 375 l 831 395 m 673 393 q 680 387 679 390 q 663 348 680 377 q 658 332 661 332 l 654 332 q 646 343 646 336 q 667 385 646 348 q 673 393 667 393 m 994 376 l 996 376 q 1008 352 1006 376 q 1029 300 1015 333 l 1029 294 q 1003 257 1029 257 l 1002 257 q 981 283 985 257 l 981 298 l 991 356 q 989 372 991 358 l 994 376 m 812 330 l 812 321 q 810 294 812 319 l 810 283 l 821 283 q 825 294 825 283 l 825 309 q 827 315 825 312 q 812 330 827 321 m 769 325 q 777 281 773 281 l 782 281 q 795 312 793 281 q 797 323 797 317 l 797 325 l 769 325 m 722 316 q 739 284 734 284 l 743 284 q 758 290 758 286 q 752 319 755 319 q 736 321 746 321 q 722 316 728 321 m 859 319 q 861 298 861 308 l 861 296 l 860 279 q 870 297 870 283 l 870 306 l 869 320 q 859 319 863 319 m 691 312 l 691 306 q 715 273 691 281 q 717 279 715 276 q 704 312 709 312 l 697 316 l 696 316 q 691 312 694 316 m 838 274 q 846 303 846 274 l 844 309 q 838 274 841 309 m 636 306 l 637 298 l 637 297 q 626 283 626 289 l 626 271 q 648 267 626 267 l 648 274 q 649 306 648 284 l 640 307 l 636 306 m 663 283 l 663 281 q 671 261 669 275 l 677 261 q 690 271 687 261 q 675 307 678 286 l 674 307 q 663 283 663 307 m 912 306 q 888 241 912 267 q 886 235 886 239 l 886 234 q 896 209 896 213 l 896 206 q 882 163 892 163 q 853 130 880 163 q 720 92 809 92 l 709 92 q 610 134 646 104 q 583 169 583 153 l 583 170 q 573 161 578 164 l 563 163 l 553 163 l 543 170 l 541 170 l 541 124 q 532 100 541 100 l 519 101 q 535 83 519 96 l 535 79 q 530 73 535 77 l 524 73 q 494 110 494 94 l 500 137 l 500 144 q 492 172 492 169 q 494 201 494 193 q 492 205 492 203 q 489 202 489 204 q 486 128 486 136 q 494 71 486 90 l 508 72 l 509 72 q 578 27 545 72 q 636 -7 578 9 q 677 -13 669 -9 q 726 3 699 -13 q 753 9 739 7 l 808 3 q 886 46 863 20 q 896 66 890 52 q 892 98 892 83 l 892 157 q 907 202 892 168 l 907 203 q 903 237 903 230 l 903 238 l 913 294 l 913 306 l 912 306 m 603 292 q 608 286 606 292 q 602 269 608 285 l 602 265 l 609 264 q 616 303 610 289 l 613 303 q 603 292 603 303 m 518 300 l 518 284 q 531 228 525 228 l 532 238 q 527 287 527 280 l 527 293 q 518 300 524 298 m 128 280 l 130 280 q 134 275 132 280 l 134 267 q 150 215 134 257 l 150 193 q 124 159 142 159 l 119 159 q 96 191 102 159 q 117 260 96 197 q 128 280 117 280 m 1108 275 l 1113 275 q 1133 232 1116 272 q 1143 205 1143 224 l 1143 196 q 1116 144 1143 164 l 1107 143 q 1088 178 1088 143 l 1088 184 q 1103 256 1088 214 q 1108 275 1103 275 m 368 260 l 368 251 l 382 206 l 382 187 q 368 133 382 157 q 375 130 372 130 q 397 179 397 145 q 368 260 397 222 m 262 227 q 270 192 266 225 q 283 157 283 168 l 283 144 q 252 104 283 111 l 251 104 q 231 130 231 112 q 229 138 229 130 q 250 206 229 144 q 261 227 250 227 l 262 227 m 567 214 l 567 212 q 583 184 576 186 q 596 205 583 195 q 591 214 591 210 q 583 208 585 208 l 567 214 m 851 206 q 844 193 851 202 q 859 160 859 175 q 871 183 871 175 l 871 186 q 853 206 871 195 l 851 206 m 596 174 q 602 163 599 163 q 613 186 602 180 l 613 187 q 608 191 611 187 l 604 191 q 596 174 596 185 m 811 174 q 836 138 836 165 l 836 137 l 837 137 q 843 143 839 137 l 843 155 q 830 184 843 178 q 811 178 826 180 l 811 174 m 616 170 l 616 168 l 618 157 l 619 157 q 631 169 619 165 l 631 172 l 623 173 q 616 170 618 170 m 645 163 q 633 155 645 157 l 633 146 q 646 128 635 128 l 646 130 q 645 136 645 132 l 645 141 q 649 160 649 157 l 645 163 m 801 160 q 814 124 806 151 q 821 128 821 127 q 804 160 821 160 l 801 160 m 769 151 q 777 118 777 125 l 777 113 q 798 118 798 115 q 785 155 798 137 q 769 151 772 151 m 570 155 l 572 155 q 600 125 580 155 q 699 92 658 92 q 713 75 713 83 q 691 55 704 55 l 691 54 q 717 42 717 47 l 717 37 q 651 18 703 18 q 560 72 599 18 q 553 98 553 92 q 562 110 553 106 l 572 106 l 572 108 q 564 144 564 131 l 564 149 q 570 155 564 151 m 659 143 l 659 140 q 664 123 664 126 l 664 118 q 690 113 667 118 q 686 137 687 124 q 688 149 688 146 l 674 150 l 673 150 q 659 143 659 145 m 733 143 q 743 108 737 135 l 762 108 l 762 111 q 753 146 762 128 q 733 143 750 143 m 703 143 l 701 133 q 710 106 704 108 l 727 106 q 714 141 723 141 q 703 143 708 141 m 870 136 q 876 131 876 134 l 876 130 q 850 102 876 116 l 848 102 q 844 106 846 102 l 844 111 q 870 136 865 136 m 814 101 l 818 101 q 823 95 823 101 q 801 82 815 82 q 792 88 792 85 l 792 91 q 814 101 801 101 m 861 88 q 869 81 869 85 q 851 55 857 67 q 818 40 845 45 q 815 45 815 44 q 838 60 815 56 q 861 88 853 87 m 768 87 l 772 81 l 772 78 q 743 63 770 73 q 736 71 739 63 q 768 87 736 79 m 294 68 l 300 68 q 313 62 313 64 q 330 7 313 53 l 333 -12 q 296 -52 328 -52 q 277 -22 277 -52 l 277 -13 q 292 66 277 -13 l 294 68 m 970 50 l 975 50 q 997 0 981 50 q 1002 -22 1000 0 l 1002 -28 q 979 -77 1002 -59 l 970 -77 q 947 -39 951 -77 l 947 -28 q 967 27 947 -3 l 967 31 l 966 47 l 970 50 m 448 -28 l 449 -28 q 452 -31 452 -28 l 454 -29 q 466 -61 456 -29 q 469 -74 468 -61 q 449 -97 466 -97 l 444 -97 q 435 -77 437 -97 q 448 -28 444 -28 m 926 -100 l 957 -100 l 924 -175 q 961 -243 925 -175 l 958 -244 l 952 -244 q 921 -245 943 -244 q 905 -215 909 -227 l 888 -245 q 848 -247 861 -247 q 847 -245 848 -245 q 882 -172 882 -175 q 844 -104 880 -172 q 882 -101 853 -101 l 883 -101 q 901 -132 887 -101 q 918 -101 916 -103 l 926 -100 m 821 -102 q 823 -104 821 -104 q 788 -175 802 -150 l 825 -245 q 808 -248 821 -247 l 808 -247 l 805 -248 l 787 -248 q 769 -218 781 -242 l 768 -218 q 746 -250 756 -250 q 745 -248 745 -250 l 742 -250 l 715 -250 q 713 -247 713 -250 q 746 -176 746 -179 q 710 -106 710 -111 l 720 -106 q 749 -104 730 -106 q 768 -134 766 -134 q 783 -104 779 -104 q 821 -102 811 -102 m 678 -106 l 680 -109 l 680 -166 l 691 -179 l 681 -191 l 681 -199 q 682 -250 681 -216 l 680 -251 l 651 -251 q 648 -248 648 -251 l 648 -198 l 646 -191 l 645 -191 q 619 -250 645 -193 l 614 -250 l 586 -191 l 585 -191 l 585 -197 q 586 -251 585 -209 q 581 -253 583 -253 q 553 -254 578 -253 q 551 -250 551 -252 q 550 -192 551 -237 q 540 -183 540 -186 l 540 -182 q 550 -172 540 -180 q 548 -140 548 -151 l 548 -111 q 551 -109 549 -109 l 580 -109 q 614 -170 584 -111 l 616 -170 q 646 -107 638 -117 l 648 -107 q 678 -106 653 -107 m 489 -110 l 507 -110 q 509 -113 509 -111 l 509 -170 l 521 -183 l 511 -195 l 511 -202 q 512 -253 511 -219 q 496 -256 507 -256 l 480 -256 q 477 -253 477 -256 l 477 -198 q 475 -195 477 -195 l 449 -254 l 448 -254 q 416 -195 444 -254 l 414 -195 l 414 -199 q 416 -256 414 -212 l 412 -257 l 381 -257 l 381 -256 q 379 -197 381 -241 q 370 -186 377 -197 q 379 -175 378 -175 q 378 -143 378 -153 l 378 -115 q 381 -113 378 -113 l 410 -113 q 446 -175 412 -113 q 476 -111 466 -124 q 489 -110 484 -110 z "},":":{"ha":378,"x_min":0,"x_max":0,"o":""},";":{"ha":378,"x_min":0,"x_max":0,"o":""},";":{"ha":378,"x_min":0,"x_max":0,"o":""},"<":{"ha":688,"x_min":0,"x_max":0,"o":""},"=":{"ha":688,"x_min":0,"x_max":0,"o":""},">":{"ha":688,"x_min":0,"x_max":0,"o":""},"?":{"ha":507,"x_min":20,"x_max":481,"o":"m 200 979 l 306 979 q 448 877 419 936 q 481 807 470 842 l 481 506 q 367 404 447 437 q 318 351 334 404 l 318 249 q 286 212 312 212 q 314 130 314 181 l 314 90 q 294 28 310 28 l 290 28 l 265 49 l 257 49 q 241 28 257 37 l 224 28 l 212 37 l 208 37 q 188 0 198 0 l 175 0 q 155 33 165 2 l 163 53 q 151 138 155 79 q 237 233 172 233 q 261 224 253 224 l 261 233 q 253 245 253 243 l 253 277 l 261 306 l 257 306 q 241 302 250 302 q 224 322 235 302 l 224 387 q 208 408 214 408 l 204 408 l 200 387 l 200 359 q 167 318 188 328 l 159 318 q 142 334 153 318 l 142 363 q 146 379 142 372 q 138 452 144 385 q 200 551 147 500 q 294 583 263 583 l 294 713 q 277 730 294 720 l 229 730 q 212 640 216 730 q 142 620 195 620 l 102 620 q 20 665 20 623 l 20 807 q 106 938 42 895 q 200 979 179 979 z "},"@":{"ha":894,"x_min":19,"x_max":885,"o":"m 401 847 q 438 845 414 847 q 475 847 453 847 q 504 835 475 842 q 552 787 504 816 q 591 813 587 813 q 640 763 640 770 q 635 747 635 755 q 662 707 662 732 q 681 701 681 705 l 681 672 q 662 549 681 616 l 662 536 q 679 499 662 530 l 679 493 q 647 413 667 446 q 633 307 633 348 l 633 294 q 576 242 633 282 q 498 178 532 192 l 475 184 q 450 180 454 180 q 406 182 427 182 q 382 168 391 168 q 321 214 350 214 q 275 256 313 214 q 236 290 256 256 q 222 324 231 290 q 229 342 229 342 q 217 363 218 362 q 219 393 219 382 l 219 413 q 200 451 200 446 q 185 477 200 468 q 183 489 185 479 q 195 524 195 513 q 183 547 185 538 q 193 566 193 563 q 176 656 193 616 q 168 703 168 692 l 193 753 q 343 833 276 833 q 401 847 389 847 m 294 799 l 290 801 q 234 757 263 801 l 234 755 l 251 757 l 254 753 q 246 703 249 753 q 256 692 251 693 q 307 713 278 709 l 329 730 q 309 749 329 732 l 309 753 q 334 791 309 757 l 334 793 q 323 803 334 801 q 294 799 299 799 m 562 761 l 555 761 q 530 774 539 772 q 496 755 496 761 q 516 730 516 734 q 494 711 508 711 q 443 730 450 730 q 421 705 422 730 q 382 670 382 685 q 336 664 378 666 q 317 668 323 668 q 260 626 260 642 q 246 592 246 609 q 300 628 250 592 l 351 640 l 365 640 q 401 600 387 640 q 389 582 401 595 l 392 572 l 392 559 q 329 526 392 535 q 317 522 329 522 q 312 526 317 526 l 314 536 l 314 540 l 304 540 q 297 536 298 536 l 285 536 q 254 549 262 549 q 241 524 246 549 q 229 515 230 519 l 229 511 l 260 481 q 271 479 265 479 q 297 509 281 479 q 319 517 310 517 q 382 484 382 509 l 387 459 l 365 449 q 360 445 360 448 q 363 421 360 441 q 360 415 360 417 l 355 415 q 314 455 328 455 l 312 455 q 309 449 312 453 q 336 415 336 425 q 348 389 341 389 l 351 389 q 377 399 368 399 q 382 391 382 394 l 392 391 q 418 405 410 405 l 443 403 q 458 407 451 407 q 479 401 475 401 q 516 425 516 404 q 518 441 518 436 q 509 455 515 455 q 498 453 504 453 l 496 457 l 504 479 q 501 501 501 493 q 513 513 505 510 l 516 513 q 579 489 579 507 l 579 486 q 550 449 550 470 l 552 437 l 562 437 q 623 491 589 491 q 635 501 635 500 q 601 549 635 537 l 598 549 q 579 540 585 547 q 475 555 475 547 q 465 608 465 589 q 516 642 480 642 l 528 642 q 589 608 589 629 l 596 604 l 601 604 q 608 612 604 604 q 596 644 602 637 l 584 642 q 567 652 567 642 q 586 714 586 671 q 574 745 581 735 q 579 749 575 749 l 586 749 q 610 692 595 749 l 621 690 q 625 707 625 698 l 625 709 q 589 777 593 772 l 586 777 q 562 761 573 761 m 450 532 l 455 532 q 487 463 477 516 l 487 459 q 465 433 470 433 l 460 433 q 446 479 455 433 l 440 479 q 435 461 440 477 l 438 447 l 426 439 l 416 439 q 406 447 412 439 q 433 528 413 528 q 450 532 444 528 m 589 437 q 591 421 589 432 q 567 326 585 326 q 535 264 557 298 l 540 262 l 552 270 l 555 270 q 559 264 559 270 l 552 250 l 557 248 q 579 270 563 248 q 606 307 606 279 l 606 309 q 598 342 601 309 l 615 427 q 633 459 633 444 l 633 461 q 627 465 633 465 l 623 465 q 589 437 589 444 m 227 449 l 227 439 q 254 387 245 428 q 268 336 268 351 l 268 334 l 260 315 q 302 264 260 283 q 319 250 302 261 l 326 250 q 336 258 330 250 l 336 260 q 329 274 329 267 l 336 282 l 336 288 q 326 286 330 288 q 307 300 322 286 l 302 298 l 297 298 q 280 342 280 317 l 280 363 q 283 403 280 376 q 265 453 269 406 l 256 459 l 246 459 q 227 449 233 459 m 496 380 q 450 391 477 380 l 421 376 l 406 378 q 382 375 400 378 q 346 378 359 378 l 343 378 q 326 363 326 378 l 326 353 q 331 349 327 349 q 348 355 339 349 l 355 355 q 365 351 361 351 q 414 347 387 351 q 435 357 416 347 l 475 353 q 498 363 491 363 q 530 353 527 356 l 538 353 q 547 373 547 355 q 526 393 544 393 q 496 380 500 380 m 465 330 q 443 332 452 332 l 440 332 q 409 320 424 320 l 387 326 l 372 324 q 353 332 372 330 q 336 320 342 332 q 348 296 348 299 l 358 296 q 370 317 363 296 l 375 317 q 389 304 383 304 q 426 317 412 317 q 455 300 436 300 l 487 317 l 489 317 q 518 300 496 317 q 543 332 532 300 q 535 336 536 336 l 526 336 q 494 332 516 336 q 479 336 486 336 l 465 330 m 414 258 l 414 252 q 448 224 414 249 q 479 246 458 224 q 494 270 494 250 l 487 274 l 472 274 q 443 280 466 274 q 414 258 437 280 m 360 238 q 411 198 384 198 l 423 202 q 404 228 410 228 q 375 248 380 248 q 360 238 365 245 m 472 206 l 472 204 q 477 200 473 200 q 518 238 512 200 l 518 240 q 513 244 518 244 l 509 244 q 472 206 485 244 m 498 1139 l 532 1139 q 544 1118 544 1133 l 578 1118 q 588 1109 583 1118 l 588 1061 q 576 1049 588 1058 l 547 1049 l 542 1047 l 544 1024 l 544 924 q 539 899 544 908 q 542 867 542 880 l 542 862 q 537 857 542 857 l 530 857 q 523 895 523 857 l 521 895 q 514 883 521 883 l 511 883 q 505 911 507 883 l 500 911 l 500 897 q 498 885 500 889 l 503 846 l 496 841 l 493 841 q 488 846 488 841 l 488 934 l 486 947 q 488 950 486 950 q 486 957 488 952 q 488 1040 488 1008 l 488 1049 l 463 1049 q 442 1072 446 1049 l 442 1098 q 452 1118 442 1116 l 488 1118 l 488 1130 q 498 1139 488 1134 m 68 1135 q 140 1107 140 1128 q 146 1090 143 1107 q 149 987 146 1067 q 146 895 146 919 l 142 892 l 140 892 q 135 897 135 892 l 135 931 l 132 931 q 123 915 123 928 l 123 908 l 125 892 l 117 885 q 109 892 113 885 l 109 920 l 107 920 q 91 913 96 913 q 77 920 89 920 l 75 915 l 75 895 q 66 885 75 890 l 56 895 l 58 906 l 56 922 l 45 920 l 40 926 l 40 957 l 38 957 l 35 945 l 35 890 q 28 876 35 878 l 26 876 q 20 885 23 876 q 22 892 20 892 q 20 943 20 926 l 20 1019 q 22 1088 20 1048 q 20 1112 20 1097 q 61 1135 20 1135 l 68 1135 m 216 1130 l 239 1130 q 292 1086 272 1130 q 294 996 294 1018 q 292 973 294 985 q 294 945 294 961 l 294 941 q 292 871 294 918 l 288 869 q 276 913 281 869 q 267 934 267 916 l 262 934 q 255 913 262 920 l 243 915 q 237 913 239 913 q 225 926 228 926 q 220 899 220 911 l 222 890 q 216 878 220 878 l 211 885 l 214 906 q 207 924 212 924 l 204 924 q 193 892 199 924 l 188 890 q 179 920 181 890 q 165 939 175 920 l 165 1059 q 202 1128 165 1116 l 216 1130 m 385 1130 q 437 1077 437 1118 l 437 1028 q 431 1021 437 1025 l 394 1021 q 385 1063 390 1021 l 368 1063 l 363 1061 q 361 968 361 1002 l 361 950 q 368 943 361 947 l 380 943 q 389 957 384 943 l 387 962 l 387 964 q 394 977 388 977 l 431 977 q 437 970 434 977 l 437 945 q 426 913 431 937 l 419 913 l 419 943 l 417 943 l 417 908 l 412 908 q 408 913 408 908 l 408 939 q 396 899 400 937 l 391 899 q 385 920 387 899 l 368 922 l 363 915 l 363 895 q 347 885 363 892 l 345 885 q 338 892 342 885 l 343 915 q 329 931 343 930 q 327 941 327 935 l 322 941 l 322 908 q 315 895 322 897 l 313 895 l 308 897 q 311 911 308 907 q 308 1005 308 970 l 308 1059 q 355 1130 308 1114 l 385 1130 m 648 1130 l 671 1130 q 724 1086 704 1130 q 726 996 726 1018 q 724 973 726 985 q 726 945 726 961 l 726 941 q 724 871 726 918 l 720 869 q 708 913 713 869 q 699 934 699 916 l 694 934 q 687 913 694 920 l 675 915 q 669 913 671 913 q 657 926 660 926 q 652 899 652 911 l 655 890 q 648 878 652 878 l 644 885 l 646 906 q 639 924 644 924 l 636 924 q 625 892 631 924 l 621 890 q 611 920 613 890 q 597 939 608 920 l 597 1059 q 634 1128 597 1116 l 648 1130 m 749 1128 l 812 1128 q 870 1088 854 1128 l 870 1075 q 872 996 870 1041 q 856 952 872 979 l 856 950 q 877 911 877 917 l 877 901 l 870 892 l 870 867 q 856 857 865 857 l 854 862 l 854 890 q 849 895 854 895 q 842 878 845 895 q 847 852 847 866 l 840 848 l 836 848 q 831 852 831 848 l 831 878 q 803 941 831 897 l 793 941 l 793 920 q 789 899 793 914 q 791 873 791 883 q 785 869 785 869 l 782 869 q 775 880 777 869 q 777 906 777 897 l 772 908 l 766 903 q 759 915 760 903 l 757 915 q 754 899 757 908 q 759 862 759 872 l 749 855 l 747 855 q 741 864 741 855 q 743 899 741 889 q 741 929 741 928 q 743 1118 743 1036 q 749 1128 746 1128 m 73 1067 l 73 939 l 86 939 l 86 1067 l 73 1067 m 216 1061 l 216 957 q 222 950 216 954 l 227 950 q 241 964 241 950 l 241 1054 q 234 1067 241 1066 l 222 1067 q 216 1061 220 1067 m 648 1061 l 648 957 q 655 950 648 954 l 660 950 q 673 964 673 950 l 673 1054 q 667 1067 673 1066 l 655 1067 q 648 1061 652 1067 m 793 1056 l 793 991 l 805 991 q 810 996 810 991 l 810 1056 q 805 1061 810 1061 l 798 1061 q 793 1056 793 1060 m 54 941 l 54 929 l 56 929 l 56 941 l 54 941 m 73 159 l 107 159 q 119 139 119 153 l 153 139 q 161 130 156 139 l 161 82 q 150 71 161 79 l 121 71 l 116 68 l 119 46 l 119 -51 q 114 -76 119 -67 q 116 -107 116 -95 l 116 -112 q 112 -117 116 -117 l 105 -117 q 98 -80 98 -117 l 96 -80 q 89 -92 96 -92 l 87 -92 q 80 -64 82 -92 l 75 -64 l 75 -78 q 73 -90 75 -85 l 78 -127 l 71 -132 l 68 -132 q 64 -127 64 -132 l 64 -42 l 62 -28 q 64 -26 62 -26 q 62 -19 64 -24 q 64 62 64 31 l 64 71 l 39 71 q 19 94 22 71 l 19 119 q 28 139 19 136 l 64 139 l 64 150 q 73 159 64 154 m 661 150 l 683 150 q 735 107 715 150 q 737 19 737 41 q 735 -3 737 8 q 737 -31 737 -15 l 737 -35 q 735 -103 737 -58 l 730 -105 q 720 -62 724 -105 q 710 -42 710 -59 l 706 -42 q 699 -62 706 -55 l 688 -60 q 681 -62 683 -62 q 669 -49 672 -49 q 665 -76 665 -64 q 667 -85 665 -77 q 661 -96 665 -96 l 656 -90 l 659 -69 q 652 -51 657 -51 l 649 -51 q 638 -83 644 -51 l 633 -85 q 625 -56 627 -85 q 611 -37 621 -56 l 611 80 q 647 148 611 136 l 661 150 m 179 148 l 283 148 q 299 139 296 148 l 299 98 q 288 80 299 86 l 227 80 l 227 33 l 252 33 q 270 26 269 33 l 270 -12 q 256 -19 267 -19 l 227 -19 l 227 -37 l 286 -37 q 301 -53 301 -37 l 301 -71 q 294 -78 301 -75 l 292 -78 q 288 -73 288 -78 l 288 -62 l 281 -62 q 270 -78 273 -78 q 263 -66 264 -78 l 258 -66 q 250 -85 258 -85 l 247 -85 q 238 -58 240 -85 l 231 -58 q 220 -92 229 -92 l 211 -92 q 204 -80 206 -92 l 199 -83 l 195 -83 q 189 -66 190 -83 l 191 -66 l 189 -62 l 189 -56 q 191 -35 189 -47 q 186 -22 186 -28 l 184 -22 l 184 -24 q 186 -56 186 -43 l 186 -69 q 177 -78 186 -73 l 170 -73 l 172 -42 q 170 -12 172 -24 q 172 64 172 31 l 172 134 q 179 148 174 148 m 321 148 l 382 148 q 439 109 423 148 l 439 96 q 441 19 439 62 q 426 -24 441 3 l 426 -26 q 446 -64 446 -58 l 446 -73 l 439 -83 l 439 -107 q 426 -117 435 -117 l 423 -112 l 423 -85 q 419 -80 423 -80 q 412 -96 415 -80 q 416 -121 416 -108 q 410 -125 411 -125 l 406 -125 q 401 -121 401 -125 l 401 -96 q 374 -35 401 -79 l 365 -35 l 365 -56 q 360 -76 365 -61 q 362 -100 362 -92 l 355 -105 l 353 -105 q 347 -94 348 -105 q 349 -69 349 -79 l 345 -66 l 338 -71 q 331 -60 332 -71 l 328 -60 q 326 -76 328 -67 q 331 -112 331 -102 l 321 -119 l 319 -119 q 313 -110 314 -119 q 315 -76 313 -85 q 313 -46 313 -47 q 315 139 315 58 q 321 148 318 148 m 471 148 l 532 148 q 588 109 572 148 l 588 96 q 591 19 588 62 q 574 -24 591 3 l 574 -26 q 595 -64 595 -58 l 595 -73 l 588 -83 l 588 -107 q 574 -117 584 -117 l 572 -112 l 572 -85 q 568 -80 572 -80 q 561 -96 564 -80 q 566 -121 566 -108 l 559 -125 l 554 -125 q 550 -121 550 -125 l 550 -96 q 523 -35 550 -79 l 513 -35 l 513 -56 q 509 -76 513 -61 q 511 -100 511 -92 l 505 -105 l 503 -105 q 496 -94 497 -105 q 498 -69 498 -79 l 493 -66 l 486 -71 q 479 -60 480 -71 l 477 -60 q 475 -76 477 -67 q 479 -112 479 -102 l 471 -119 l 469 -119 q 462 -110 463 -119 q 464 -76 462 -85 q 462 -46 462 -47 q 464 139 464 58 q 471 148 467 148 m 760 148 l 821 148 q 878 109 861 148 l 878 96 q 880 19 878 62 q 864 -24 880 3 l 864 -26 q 884 -64 884 -58 l 884 -73 l 878 -83 l 878 -107 q 864 -117 873 -117 l 861 -112 l 861 -85 q 857 -80 861 -80 q 850 -96 853 -80 q 854 -121 854 -108 l 848 -125 l 844 -125 q 839 -121 839 -125 l 839 -96 q 812 -35 839 -79 l 803 -35 l 803 -56 q 798 -76 803 -61 q 800 -100 800 -92 l 793 -105 l 791 -105 q 785 -94 787 -105 q 787 -69 787 -79 l 783 -66 l 776 -71 q 769 -60 770 -71 l 766 -60 q 764 -76 766 -67 q 769 -112 769 -102 l 760 -119 l 758 -119 q 751 -110 752 -119 q 753 -76 751 -85 q 751 -46 751 -47 q 753 139 753 58 q 760 148 756 148 m 661 82 l 661 -19 q 667 -26 661 -22 l 672 -26 q 686 -12 686 -26 l 686 75 q 679 89 686 87 l 667 89 q 661 82 664 89 m 365 78 l 365 15 l 376 15 q 380 19 380 15 l 380 78 q 376 82 380 82 l 369 82 q 365 78 365 81 m 513 78 l 513 15 l 525 15 q 530 19 530 15 l 530 78 q 525 82 530 82 l 518 82 q 513 78 513 81 m 803 78 l 803 15 l 814 15 q 819 19 819 15 l 819 78 q 814 82 819 82 l 807 82 q 803 78 803 81 m 488 -136 l 503 -136 q 508 -146 508 -139 l 524 -146 l 528 -149 q 531 -146 528 -147 l 547 -146 l 547 -140 q 551 -136 547 -139 l 567 -136 q 572 -146 572 -139 l 587 -146 q 592 -150 589 -146 l 592 -172 q 587 -176 592 -173 l 573 -176 l 571 -178 l 572 -188 l 572 -233 q 570 -243 572 -239 q 571 -258 571 -252 l 571 -260 q 569 -262 571 -262 l 566 -262 q 563 -245 563 -262 l 562 -245 q 559 -251 562 -251 l 557 -251 q 555 -239 555 -251 l 553 -239 l 553 -245 q 551 -250 553 -248 l 553 -267 l 551 -269 l 549 -269 q 547 -267 547 -269 l 547 -228 l 547 -222 q 547 -221 547 -221 q 547 -218 547 -220 q 547 -180 547 -195 l 547 -176 l 536 -176 q 529 -172 529 -176 l 522 -176 l 509 -176 l 507 -178 l 508 -188 l 508 -233 q 506 -243 508 -239 q 507 -258 507 -252 l 507 -260 q 505 -262 507 -262 l 502 -262 q 498 -245 498 -262 l 498 -245 q 494 -251 498 -251 l 494 -251 q 490 -239 492 -251 l 488 -239 l 488 -245 q 488 -250 488 -248 l 490 -267 l 486 -269 l 486 -269 q 484 -267 484 -269 l 484 -228 l 482 -222 q 484 -221 482 -221 q 482 -218 484 -220 q 484 -180 484 -195 l 484 -176 l 472 -176 q 463 -166 464 -176 l 463 -155 q 467 -146 463 -147 l 484 -146 l 484 -140 q 488 -136 484 -139 m 290 -138 q 322 -151 322 -142 q 326 -158 324 -151 q 326 -204 326 -168 q 326 -245 326 -235 l 323 -247 l 322 -247 q 320 -245 320 -247 l 320 -229 l 319 -229 q 315 -237 315 -231 l 315 -239 l 316 -247 l 312 -250 q 309 -247 311 -250 l 309 -235 l 308 -235 q 300 -237 302 -237 q 294 -235 300 -235 l 293 -237 l 293 -245 q 289 -250 293 -248 q 285 -245 288 -250 l 286 -241 l 285 -233 l 280 -235 l 278 -231 l 278 -218 l 277 -218 l 276 -223 l 276 -248 q 273 -254 276 -253 l 271 -254 q 269 -250 270 -254 q 269 -247 269 -247 q 269 -224 269 -231 l 269 -190 q 269 -159 269 -177 q 269 -149 269 -155 q 287 -138 269 -138 l 290 -138 m 439 -138 l 453 -138 q 460 -146 460 -138 l 460 -229 q 458 -241 460 -241 l 451 -241 q 445 -249 451 -247 l 442 -249 q 441 -255 442 -250 l 442 -265 q 439 -269 440 -269 l 437 -269 q 434 -261 434 -269 l 434 -260 q 435 -256 434 -258 l 431 -243 l 431 -243 l 425 -247 q 420 -243 420 -245 l 419 -243 q 416 -257 419 -257 q 414 -255 414 -257 l 414 -247 l 413 -235 l 412 -235 q 408 -239 412 -237 l 404 -239 q 397 -228 401 -239 q 399 -227 397 -227 q 397 -223 399 -224 q 399 -182 399 -197 l 399 -150 q 404 -142 399 -144 l 414 -142 q 425 -154 425 -142 l 425 -217 l 425 -222 l 429 -222 l 435 -221 l 435 -148 q 439 -138 435 -140 m 854 -139 l 858 -139 q 885 -168 879 -139 l 885 -180 q 869 -186 884 -186 l 869 -187 q 885 -213 885 -195 l 885 -235 q 882 -237 885 -236 l 880 -237 l 876 -235 l 876 -247 q 871 -254 876 -252 l 869 -254 q 865 -243 865 -254 l 863 -243 l 862 -253 q 863 -264 862 -255 l 861 -265 l 859 -265 l 856 -263 q 857 -248 857 -253 q 856 -241 857 -247 q 850 -245 852 -245 q 844 -241 849 -245 q 842 -250 844 -250 l 840 -250 q 838 -248 838 -250 l 838 -239 l 836 -233 l 836 -233 q 832 -248 832 -241 l 832 -259 q 829 -262 832 -260 l 827 -262 l 825 -261 q 826 -233 826 -242 l 826 -215 q 829 -206 826 -207 l 845 -206 l 845 -205 q 824 -184 832 -205 l 824 -165 q 854 -139 829 -139 m 83 -140 l 87 -140 q 101 -150 101 -140 q 106 -178 102 -152 l 107 -178 q 117 -144 112 -144 l 135 -144 q 138 -146 138 -145 q 123 -229 126 -206 q 120 -241 123 -241 l 117 -241 l 113 -237 q 107 -241 113 -241 l 107 -249 q 105 -251 107 -251 l 104 -251 q 100 -230 101 -251 q 91 -205 94 -230 l 90 -205 q 83 -239 87 -239 l 83 -239 l 83 -245 q 81 -247 83 -247 l 79 -247 q 77 -245 77 -247 l 77 -231 q 75 -221 77 -229 l 75 -221 q 67 -239 70 -238 l 64 -239 q 55 -197 62 -239 q 44 -144 53 -194 l 47 -142 l 64 -142 q 75 -174 70 -142 l 77 -174 l 77 -172 q 83 -140 81 -140 m 163 -140 l 174 -140 q 197 -160 189 -140 q 198 -200 198 -191 q 197 -211 198 -205 q 198 -223 198 -216 l 198 -225 q 197 -256 198 -235 l 195 -257 q 190 -237 192 -257 q 186 -228 186 -236 l 184 -228 q 180 -237 184 -234 l 176 -237 q 172 -237 174 -237 q 168 -231 169 -231 q 165 -243 165 -239 l 166 -248 q 163 -253 165 -253 q 161 -250 161 -250 l 162 -241 q 159 -233 161 -233 l 158 -233 q 153 -247 155 -233 l 151 -248 q 146 -235 148 -248 q 140 -226 145 -235 l 140 -172 q 157 -142 140 -147 l 163 -140 m 227 -140 l 237 -140 q 261 -160 252 -140 q 262 -200 262 -191 q 261 -211 262 -205 q 262 -223 262 -216 l 262 -225 q 261 -256 262 -235 l 259 -257 q 254 -237 256 -257 q 250 -228 250 -236 l 248 -228 q 245 -237 248 -234 l 239 -237 q 237 -237 237 -237 q 231 -231 233 -231 q 229 -243 229 -239 q 231 -248 229 -244 q 227 -253 229 -253 l 225 -250 l 226 -241 q 223 -233 226 -233 l 222 -233 q 217 -247 220 -233 l 215 -248 q 211 -235 212 -248 q 204 -226 209 -235 l 204 -172 q 221 -142 204 -147 l 227 -140 m 368 -140 q 391 -164 391 -146 l 391 -186 q 389 -189 391 -187 l 372 -189 q 368 -170 370 -189 l 360 -170 l 358 -172 q 357 -213 357 -197 l 357 -221 q 360 -224 357 -222 l 366 -224 q 370 -218 368 -224 l 369 -216 l 369 -215 q 372 -208 370 -208 l 389 -208 q 391 -212 390 -208 l 391 -223 q 386 -237 389 -227 l 383 -237 l 383 -224 l 382 -224 l 382 -239 l 380 -239 q 378 -237 378 -239 l 378 -226 q 373 -243 374 -227 l 371 -243 q 368 -235 369 -243 l 360 -233 q 358 -237 360 -234 l 358 -245 q 351 -250 358 -247 l 350 -250 q 347 -247 349 -250 l 349 -237 q 343 -229 349 -230 q 342 -225 342 -227 l 340 -225 l 340 -239 q 336 -245 340 -245 l 336 -245 l 334 -245 q 334 -239 334 -240 q 334 -196 334 -212 l 334 -172 q 354 -140 334 -148 l 368 -140 m 600 -142 l 648 -142 q 654 -146 653 -142 l 654 -164 q 650 -172 654 -170 l 622 -172 l 622 -194 l 633 -194 q 642 -197 641 -194 l 642 -215 q 635 -218 640 -218 l 622 -218 l 622 -226 l 648 -226 q 656 -233 656 -226 l 656 -241 q 652 -245 656 -243 l 652 -245 q 650 -243 650 -245 l 650 -237 l 646 -237 q 642 -245 642 -245 q 638 -239 638 -245 l 636 -239 q 632 -248 636 -248 l 631 -248 q 627 -235 628 -248 l 624 -235 q 618 -251 623 -251 l 614 -251 q 611 -245 612 -251 l 609 -247 l 607 -247 q 604 -239 605 -247 l 605 -239 l 604 -237 l 604 -235 q 605 -225 604 -231 q 603 -219 603 -222 l 602 -219 l 602 -220 q 603 -235 603 -229 l 603 -241 q 599 -245 603 -242 l 596 -243 l 597 -228 q 596 -215 597 -220 q 597 -180 597 -195 l 597 -148 q 600 -142 597 -142 m 665 -142 l 693 -142 q 719 -159 711 -142 l 719 -165 q 720 -200 719 -180 q 713 -220 720 -208 l 713 -221 q 722 -239 722 -235 l 722 -243 l 719 -247 l 719 -258 q 713 -262 717 -262 l 711 -260 l 711 -248 q 709 -245 711 -245 q 707 -253 708 -245 q 709 -264 709 -258 l 705 -267 l 703 -267 q 701 -264 701 -267 l 701 -253 q 689 -225 701 -245 l 685 -225 l 685 -235 q 683 -243 685 -237 q 684 -255 684 -251 l 680 -257 l 680 -257 q 676 -252 677 -257 q 677 -241 677 -245 l 675 -239 l 672 -241 q 669 -237 669 -241 l 668 -237 q 667 -243 668 -239 q 669 -260 669 -256 l 665 -263 l 664 -263 q 661 -259 661 -263 q 662 -243 661 -248 q 661 -230 661 -231 q 662 -146 662 -182 q 665 -142 663 -142 m 764 -142 l 812 -142 q 819 -146 817 -142 l 819 -164 q 814 -172 819 -170 l 786 -172 l 786 -194 l 798 -194 q 806 -197 805 -194 l 806 -215 q 800 -218 804 -218 l 786 -218 l 786 -226 l 812 -226 q 820 -233 820 -226 l 820 -241 q 817 -245 820 -243 l 816 -245 q 814 -243 814 -245 l 814 -237 l 810 -237 q 806 -245 806 -245 q 802 -239 803 -245 l 800 -239 q 796 -248 800 -248 l 795 -248 q 791 -235 792 -248 l 788 -235 q 783 -251 787 -251 l 779 -251 q 776 -245 777 -251 l 774 -247 l 771 -247 q 768 -239 769 -247 l 769 -239 l 768 -237 l 768 -235 q 769 -225 768 -231 q 767 -219 767 -222 l 766 -219 l 766 -220 q 767 -235 767 -229 l 767 -241 q 763 -245 767 -242 l 760 -243 l 761 -228 q 760 -215 761 -220 q 761 -180 761 -195 l 761 -148 q 764 -142 762 -142 m 163 -172 l 163 -218 q 166 -221 163 -219 l 168 -221 q 174 -215 174 -221 l 174 -174 q 172 -168 174 -169 l 166 -168 q 163 -172 165 -168 m 227 -172 l 227 -218 q 231 -221 227 -219 l 233 -221 q 239 -215 239 -221 l 239 -174 q 235 -168 239 -169 l 231 -168 q 227 -172 229 -168 m 292 -168 l 292 -226 l 298 -226 l 298 -168 l 292 -168 m 685 -174 l 685 -202 l 690 -202 q 692 -200 692 -202 l 692 -174 q 690 -172 692 -172 l 687 -172 q 685 -174 685 -172 m 849 -174 l 849 -180 q 860 -184 849 -182 q 857 -172 859 -172 l 852 -172 q 849 -174 850 -172 m 850 -208 q 852 -217 852 -214 l 852 -225 l 853 -227 q 859 -224 859 -226 l 859 -211 q 853 -208 858 -208 l 850 -208 m 111 -221 l 111 -230 l 113 -230 l 113 -221 l 111 -221 m 736 -222 l 737 -222 q 751 -229 746 -222 l 751 -243 q 749 -245 751 -245 l 747 -245 q 745 -243 745 -243 q 739 -247 745 -245 q 736 -249 739 -249 l 734 -249 q 731 -228 731 -249 q 736 -222 732 -224 m 284 -225 l 284 -230 l 285 -230 l 285 -225 l 284 -225 z "},"A":{"ha":613,"x_min":-41,"x_max":605,"o":"m 315 972 q 439 947 439 966 q 460 844 455 901 q 510 575 477 787 q 526 509 514 575 l 526 480 l 534 468 l 534 439 q 568 228 568 305 l 564 219 l 576 191 q 572 178 576 186 l 605 16 l 605 -16 q 593 -29 605 -22 l 589 -29 q 551 104 568 -29 q 538 79 538 99 l 538 16 q 526 4 538 11 q 510 21 519 4 l 510 45 q 514 62 510 55 q 510 75 510 70 l 514 95 l 505 95 q 485 71 505 78 l 481 71 q 439 116 456 81 q 431 124 431 116 l 431 178 l 427 178 q 418 170 418 177 l 418 4 l 410 -8 q 394 4 394 -2 l 394 66 q 373 195 391 195 l 369 195 l 369 132 q 357 120 369 127 l 349 120 q 332 136 342 120 l 332 170 q 311 207 323 207 l 290 207 q 253 62 253 182 q 241 29 248 29 l 233 29 q 224 37 224 29 l 224 145 q 212 157 224 151 q 191 112 212 155 l 191 95 q 170 -41 178 -41 l 154 -41 l 137 -25 q 141 66 141 37 l 141 75 q 137 165 141 104 l 129 165 l 129 124 q 117 45 121 93 q 121 29 121 38 l 100 8 q 50 41 78 8 q 13 -20 50 1 q -20 -41 3 -41 l -28 -41 q -41 -29 -34 -41 l -41 0 q 96 612 96 574 q 137 770 117 647 q 170 915 144 770 q 253 972 170 972 l 315 972 m 277 458 l 277 424 q 303 415 303 424 q 338 424 318 424 l 338 433 q 312 596 320 494 q 277 458 298 596 z "},"B":{"ha":571,"x_min":20,"x_max":543,"o":"m 55 970 l 357 970 q 500 892 458 943 q 543 815 524 859 l 543 467 l 511 405 q 543 300 543 319 l 543 61 q 523 26 523 35 l 535 -28 l 535 -40 q 508 -75 535 -70 q 484 -47 484 -63 q 488 22 484 -24 q 434 111 488 73 q 376 -1 376 87 l 376 -59 q 384 -90 376 -62 l 384 -105 q 368 -125 374 -125 l 353 -125 q 345 -117 345 -125 l 345 -16 q 318 77 345 58 q 283 30 302 63 q 291 -1 283 26 l 291 -5 q 275 -20 291 -11 l 268 -20 q 260 -13 260 -20 l 260 38 q 241 73 241 58 l 229 73 l 229 45 q 218 -40 222 19 q 195 -55 198 -55 q 171 -36 187 -55 l 175 11 l 175 50 q 168 92 175 54 l 168 127 q 140 200 158 182 l 117 200 q 63 68 85 164 l 36 53 l 28 53 q 20 61 20 53 l 20 273 q 24 277 20 277 l 20 286 l 20 328 q 24 517 20 421 q 20 583 20 557 q 28 699 28 643 l 28 765 q 32 800 28 785 q 28 838 28 820 l 28 924 q 55 970 28 954 m 237 691 l 237 525 q 260 521 240 525 q 299 533 299 524 q 302 695 302 635 l 295 699 l 245 699 q 237 691 237 698 m 237 316 l 237 173 q 245 165 238 165 l 295 165 q 334 184 325 165 l 334 297 q 264 320 326 316 l 237 316 z "},"C":{"ha":585,"x_min":27,"x_max":547,"o":"m 350 975 q 505 877 438 958 q 547 763 547 804 l 547 573 q 494 543 536 543 l 456 539 q 369 543 416 543 q 350 569 350 548 l 350 611 q 327 709 350 709 l 289 713 q 277 709 281 709 l 270 713 q 243 649 243 713 q 239 254 243 529 q 270 228 253 228 l 308 228 q 346 285 346 228 q 350 288 350 285 l 346 311 q 384 364 346 364 l 384 368 l 422 364 l 479 364 q 547 345 547 364 l 547 235 q 509 117 509 212 q 482 106 495 106 q 471 133 471 120 l 471 182 l 475 205 q 463 239 471 239 q 460 228 463 235 q 463 117 463 148 l 467 110 q 452 91 460 93 l 441 91 q 426 110 435 92 l 426 178 l 429 216 q 384 136 404 205 l 384 114 q 388 80 384 100 q 372 57 380 57 l 357 57 q 342 72 351 57 l 342 125 q 293 148 342 136 l 274 148 q 248 121 251 133 l 248 91 q 251 50 248 75 q 229 19 251 35 l 224 19 l 210 31 q 191 0 210 9 l 172 0 q 153 23 165 0 l 153 45 q 168 129 168 114 q 160 182 160 157 q 134 171 146 171 l 130 171 q 99 224 113 175 l 92 228 l 77 201 l 77 68 q 50 34 77 45 q 35 45 35 40 l 35 95 q 42 136 42 132 l 42 209 l 27 288 q 31 315 27 310 q 27 368 27 347 l 27 376 q 35 569 35 550 l 35 759 q 73 869 42 819 q 224 975 138 956 l 350 975 m 201 117 l 201 80 l 205 80 l 210 106 l 210 125 q 201 117 201 124 z "},"D":{"ha":579,"x_min":27,"x_max":543,"o":"m 158 992 l 255 992 q 416 962 315 975 q 538 768 538 914 q 535 730 538 732 q 538 693 535 726 q 543 309 538 673 q 531 148 543 266 l 531 66 l 535 43 q 520 25 528 26 l 516 25 q 490 51 494 37 q 494 140 494 104 l 494 182 q 441 111 441 182 q 449 36 441 104 q 419 -1 449 15 q 389 33 389 14 l 393 70 l 393 122 q 386 144 386 130 l 378 144 q 322 111 341 111 q 262 140 298 135 l 248 118 l 248 33 q 214 3 237 3 l 203 3 q 180 40 195 3 q 191 111 191 84 q 173 144 180 111 l 173 148 q 176 197 173 178 l 169 271 l 165 271 q 161 256 165 263 q 165 178 165 208 l 165 167 q 146 137 165 146 l 132 137 q 109 167 125 137 l 109 185 q 117 227 109 190 l 117 271 q 106 283 117 277 q 87 249 100 283 l 87 163 q 94 92 87 155 l 94 14 q 54 -39 84 -39 q 31 3 33 -22 q 39 70 39 47 q 27 223 27 176 l 27 260 q 31 443 27 374 q 27 615 27 491 q 39 794 39 751 q 31 850 39 799 q 64 977 31 977 q 158 992 117 982 m 240 727 l 236 701 l 240 678 q 236 667 236 671 q 240 645 240 648 q 236 623 240 642 q 240 593 236 619 q 236 559 236 572 q 240 555 236 555 l 236 536 l 236 231 q 248 208 239 208 q 296 215 257 208 l 296 686 l 300 723 l 292 727 l 240 727 z "},"E":{"ha":585,"x_min":27,"x_max":559,"o":"m 67 972 l 128 972 q 184 968 172 972 q 257 972 222 972 l 483 972 q 551 940 540 972 l 551 747 q 486 694 535 694 q 269 690 460 694 l 269 694 q 253 690 262 690 l 253 501 l 326 501 q 434 469 434 501 l 434 319 q 370 288 422 288 l 273 288 l 253 283 l 253 223 l 257 215 l 277 219 l 305 219 q 430 215 356 219 q 434 219 434 215 l 454 215 l 515 215 q 559 170 559 199 l 559 70 q 535 50 547 50 q 511 78 511 59 l 511 118 q 494 122 504 122 l 486 118 q 471 122 479 122 q 458 74 463 122 q 434 58 446 58 q 406 98 406 68 l 398 102 l 386 102 l 386 66 q 357 25 374 33 l 342 25 q 313 54 336 25 l 313 122 q 305 138 305 132 l 281 138 l 257 29 q 237 -3 257 9 l 197 -3 q 168 45 168 20 l 164 45 l 148 33 l 132 33 q 108 90 108 43 l 108 102 l 112 110 q 104 118 104 110 l 104 155 q 112 219 104 160 l 112 231 q 92 275 92 260 l 79 275 q 83 255 79 262 l 79 235 q 87 211 87 222 l 87 82 q 60 54 87 76 l 56 54 q 27 82 37 62 l 27 106 q 35 151 27 111 l 35 279 q 27 315 35 290 q 35 469 35 396 l 35 703 q 39 844 35 763 q 35 884 35 858 q 39 896 39 892 l 35 904 q 67 972 43 972 z "},"F":{"ha":538,"x_min":34,"x_max":519,"o":"m 186 979 l 300 979 q 315 975 309 979 q 330 979 322 979 l 408 979 q 515 941 515 968 q 519 923 519 935 l 519 775 q 482 720 513 720 q 419 715 454 715 l 252 715 q 245 705 252 705 l 249 667 q 245 660 249 660 l 249 642 l 249 608 q 245 593 249 600 q 249 578 249 587 l 249 556 q 245 553 249 553 l 249 545 l 249 538 q 245 534 249 534 l 249 527 l 249 501 l 245 494 l 252 490 l 356 490 q 412 456 394 490 l 412 319 q 371 294 398 294 l 264 294 l 245 290 l 245 286 q 249 275 245 275 l 245 256 l 245 190 q 227 97 233 163 l 227 34 q 234 -7 227 30 l 234 -28 q 201 -51 221 -51 q 178 -18 178 -38 l 178 -7 q 189 75 186 17 q 186 138 186 114 q 171 168 180 138 l 163 168 q 175 49 171 136 q 153 16 175 31 q 119 56 121 16 q 130 119 119 74 l 130 149 l 127 171 l 130 178 q 127 190 127 186 q 108 134 112 190 q 85 116 94 116 l 85 94 q 93 -36 93 -26 l 93 -62 q 71 -88 78 -88 l 56 -88 q 41 -33 45 -88 q 52 31 41 -15 l 52 119 q 34 182 41 132 q 37 223 37 208 l 37 234 q 34 267 37 254 q 45 486 45 380 l 45 568 q 49 842 45 667 q 45 882 45 862 q 85 975 45 975 l 93 975 q 108 971 102 975 q 186 979 127 979 z "},"G":{"ha":543,"x_min":27,"x_max":519,"o":"m 232 975 l 332 975 q 479 878 391 968 q 519 774 519 815 l 519 609 q 490 569 519 590 l 487 569 q 484 573 484 569 q 454 566 470 566 l 351 566 q 329 602 329 581 l 329 706 q 282 731 329 722 q 229 692 229 731 l 229 253 q 254 228 236 236 l 293 228 q 329 260 329 233 l 329 307 q 318 318 329 312 l 315 318 q 282 311 305 318 q 239 347 239 324 q 235 361 235 347 l 235 487 q 268 548 235 536 l 476 548 q 519 519 519 534 l 519 221 q 494 99 519 169 l 494 23 l 501 -2 q 465 -49 496 -49 q 433 -5 433 -31 q 440 63 440 49 q 404 124 435 124 q 376 95 404 119 l 361 95 q 340 138 351 95 l 332 138 q 326 92 332 134 q 332 13 332 23 q 311 -16 319 -14 l 300 -16 q 282 23 282 -3 l 282 56 q 286 106 282 75 q 257 163 267 163 l 246 163 q 229 145 241 163 l 229 70 q 207 48 219 52 q 182 70 193 48 l 182 149 q 160 181 171 177 l 124 181 q 92 117 92 162 l 92 56 q 99 -2 92 51 l 99 -16 q 71 -66 99 -46 l 52 -66 q 35 -41 49 -66 l 35 -13 q 45 74 35 26 l 45 102 l 27 246 l 27 354 q 35 508 35 496 l 35 770 q 74 878 36 806 q 232 975 162 975 z "},"H":{"ha":591,"x_min":27,"x_max":548,"o":"m 467 1009 l 489 1009 q 541 969 541 1009 l 541 701 l 544 679 q 541 675 544 675 l 544 657 l 544 591 l 548 569 q 544 566 548 566 q 548 492 548 516 l 548 309 q 541 221 548 303 l 541 155 q 544 66 541 119 q 530 41 538 41 l 515 41 q 493 66 508 41 l 493 78 q 496 173 493 111 q 493 188 493 180 l 486 188 l 486 184 l 489 177 q 423 92 478 92 q 408 85 408 92 q 420 37 420 49 q 387 12 409 12 q 368 30 382 12 q 379 85 368 37 q 361 118 368 85 l 361 151 q 339 313 351 313 l 306 313 q 291 316 298 313 q 251 309 283 313 l 229 313 l 225 305 l 225 269 q 192 122 225 122 l 166 66 l 166 60 q 181 -7 174 7 q 148 -65 181 -39 l 137 -65 q 115 -43 132 -65 l 115 -10 q 126 45 115 18 l 123 52 l 123 74 l 119 74 q 104 41 115 74 q 100 -25 104 9 q 104 -179 104 -106 q 93 -186 95 -186 l 71 -186 q 64 -179 64 -186 l 64 -65 q 56 -25 64 -61 l 56 26 q 27 118 56 104 l 27 122 q 35 877 27 331 q 75 950 35 950 q 159 958 79 953 q 225 910 225 958 l 225 558 q 236 547 225 553 l 335 547 q 346 558 340 547 l 346 771 q 342 804 346 784 q 346 829 346 808 l 346 840 l 342 863 q 346 866 342 866 l 342 884 l 342 892 q 387 1006 342 1006 q 467 1009 429 1009 z "},"I":{"ha":299,"x_min":41,"x_max":254,"o":"m 147 979 l 218 979 q 254 924 254 959 q 250 888 250 902 l 250 884 q 254 868 250 876 q 250 865 254 865 l 254 845 l 254 565 q 250 490 254 533 l 254 482 q 250 479 254 479 l 254 431 l 254 116 q 226 69 245 108 q 214 61 216 61 l 202 61 l 191 69 l 186 69 l 194 -14 q 174 -41 186 -38 q 155 -22 170 -41 l 155 -6 q 147 45 155 10 q 155 77 155 60 l 155 92 q 127 81 144 92 l 119 81 l 96 96 l 96 92 q 100 81 96 81 l 96 61 l 96 33 q 104 -9 96 28 l 104 -33 q 80 -81 94 -81 l 60 -81 q 45 231 45 -81 l 45 656 q 41 766 45 706 q 45 845 45 777 l 45 884 q 80 970 45 960 l 104 970 q 147 979 142 979 z "},"J":{"ha":507,"x_min":0,"x_max":468,"o":"m 378 970 l 385 970 q 465 942 445 970 l 468 935 l 468 75 q 465 -8 468 41 q 468 -64 468 -8 q 461 -71 468 -71 l 448 -71 q 437 -60 442 -71 l 437 -39 q 406 58 437 36 q 385 71 385 64 q 364 61 369 61 l 347 64 l 343 47 l 343 37 q 347 -26 343 7 q 330 -60 342 -60 l 323 -60 q 305 -26 312 -60 l 305 -22 l 315 33 q 312 43 312 40 l 309 43 q 288 5 309 18 l 277 5 q 260 20 262 20 q 243 -5 260 5 l 229 -5 q 215 9 224 -5 l 215 43 q 222 82 215 47 l 222 127 q 177 148 222 141 l 156 169 l 153 169 q 146 148 153 163 q 149 138 149 141 q 115 96 144 96 q 90 141 93 114 l 90 144 q 108 210 97 154 l 108 227 l 80 238 q 59 200 62 238 l 38 179 l 21 179 q 0 276 0 190 l 0 370 q 24 397 10 392 l 146 397 q 187 359 187 388 l 187 266 q 225 231 197 231 l 239 231 q 288 269 288 231 l 288 925 q 378 970 288 970 z "},"K":{"ha":593,"x_min":34,"x_max":566,"o":"m 71 979 l 206 979 q 235 927 235 964 q 239 901 239 922 l 239 799 l 243 799 q 360 979 332 979 l 511 979 q 536 957 536 963 q 389 674 528 908 q 382 656 389 665 l 382 648 q 452 462 395 605 q 481 385 477 411 q 529 201 503 263 q 566 136 529 194 l 566 110 q 543 87 566 104 q 503 154 519 87 q 456 227 488 205 l 444 227 q 433 183 444 219 q 467 124 451 163 l 467 110 q 456 99 467 104 l 441 99 q 415 146 415 123 l 397 142 l 386 150 l 378 150 q 422 -4 378 103 l 422 -12 q 389 -33 410 -33 q 342 110 361 -12 q 243 366 296 178 l 239 366 l 239 157 q 224 99 239 148 l 224 -7 q 210 -22 224 -14 q 191 -7 192 -13 l 191 128 l 188 146 l 180 146 q 170 117 170 124 l 170 18 q 155 3 170 12 l 148 3 q 133 22 140 5 q 140 99 140 58 q 89 201 140 166 l 81 201 l 81 172 q 78 154 81 160 q 89 73 81 104 q 60 18 89 38 l 56 18 q 37 62 41 18 l 41 69 q 37 81 41 73 q 41 157 41 136 q 34 264 34 243 l 34 330 q 45 488 45 460 q 41 491 45 491 l 45 517 l 45 935 q 71 979 45 960 z "},"L":{"ha":513,"x_min":34,"x_max":499,"o":"m 98 972 l 193 972 q 224 941 214 961 l 224 730 q 228 620 224 685 l 224 613 l 228 592 l 228 557 q 224 543 228 549 q 228 528 228 536 q 224 472 228 508 q 228 469 224 469 l 224 451 l 224 401 q 228 384 224 390 l 224 363 l 224 286 l 231 260 q 249 264 243 260 q 376 260 328 260 l 446 260 q 499 222 488 260 l 499 95 q 467 56 499 67 q 422 109 441 56 q 361 151 399 140 q 334 92 334 126 q 340 46 340 76 l 340 11 q 330 0 340 5 l 312 0 q 302 11 307 0 l 302 123 q 291 134 302 128 q 245 67 245 110 q 224 50 226 50 l 214 50 q 168 134 197 50 q 115 162 148 134 l 108 162 q 83 109 90 159 q 87 60 87 79 l 87 21 q 69 0 75 0 l 52 0 q 34 24 46 0 l 34 53 q 41 98 34 83 q 34 148 34 125 l 34 353 q 41 616 41 589 l 41 634 q 34 680 41 648 q 41 814 41 763 l 41 926 q 98 972 41 972 z "},"M":{"ha":966,"x_min":27,"x_max":929,"o":"m 747 979 l 873 979 q 922 958 900 979 q 926 863 926 892 l 926 845 q 922 842 926 842 l 926 835 l 926 817 q 929 779 926 802 q 926 775 929 775 q 929 747 929 755 q 926 687 929 728 l 929 670 q 926 666 929 666 l 929 649 l 929 210 q 890 168 918 180 l 884 168 l 866 178 l 863 178 q 866 143 863 162 q 848 101 861 101 l 838 101 q 817 217 817 101 l 810 220 q 803 182 810 216 l 803 151 q 810 122 803 147 l 810 91 q 785 59 800 68 l 764 59 q 750 77 760 59 l 750 147 q 732 220 750 201 l 732 498 l 729 498 q 652 319 729 488 q 557 151 585 151 q 519 178 537 161 q 448 130 467 130 l 441 130 q 382 168 421 130 l 364 164 q 276 347 336 164 l 248 410 l 241 410 l 241 193 q 213 112 213 170 q 206 -25 208 112 l 210 -32 q 192 -81 210 -64 l 171 -81 q 153 -43 162 -81 l 153 -15 q 164 31 153 -3 q 143 49 150 31 l 150 147 q 125 206 148 206 q 90 101 90 206 l 90 91 q 59 52 81 67 l 48 52 l 27 70 q 31 228 31 176 l 31 277 q 34 315 31 292 q 31 319 34 319 q 34 330 31 323 q 45 603 37 603 q 41 614 41 610 l 45 638 q 41 645 45 645 l 45 680 l 45 884 q 69 919 45 903 l 231 919 q 322 800 283 919 l 469 470 q 501 530 478 470 q 697 964 631 826 q 747 979 732 979 z "},"N":{"ha":652,"x_min":34,"x_max":613,"o":"m 514 1004 q 613 965 613 1004 l 613 689 q 610 675 613 682 q 613 665 613 669 q 610 654 613 654 l 613 612 l 613 548 q 610 524 613 528 q 613 492 613 505 l 613 425 q 610 354 613 378 q 613 283 613 329 l 613 202 l 610 180 q 613 163 613 175 q 603 156 604 156 l 595 156 q 571 184 577 168 q 574 276 574 243 l 574 304 q 549 396 565 396 l 546 396 q 536 329 546 385 l 536 170 q 543 75 543 84 l 543 1 q 528 -14 543 -5 l 522 -14 q 504 22 504 -5 q 514 138 504 94 l 511 138 q 486 127 498 127 q 444 199 465 127 q 433 212 444 212 l 429 212 q 416 195 429 202 l 419 188 l 408 170 l 408 43 q 384 22 408 37 q 355 54 368 25 l 355 82 q 362 110 355 85 l 362 142 q 292 329 336 248 l 235 474 l 228 474 l 232 456 l 232 283 q 203 145 218 145 l 182 145 l 182 142 l 189 132 l 189 110 q 165 89 189 104 l 151 89 q 119 127 132 95 l 119 132 q 125 170 125 145 l 125 199 q 119 205 125 205 l 115 205 q 87 50 100 205 l 87 36 q 62 -7 87 11 l 52 -7 q 34 22 34 3 l 34 509 l 37 530 q 34 534 37 534 l 37 559 q 41 890 41 797 q 94 940 41 934 q 133 937 118 937 l 154 937 q 218 951 201 943 q 292 890 269 951 q 419 601 402 646 q 429 591 419 596 l 426 633 l 426 831 q 422 908 426 855 l 426 908 q 422 919 422 915 q 469 997 427 997 l 514 1004 z "},"O":{"ha":576,"x_min":27,"x_max":543,"o":"m 322 981 l 330 977 l 337 981 q 483 899 397 974 q 524 817 524 836 q 532 802 532 808 q 539 709 532 787 q 532 690 539 690 q 543 596 538 669 q 539 335 539 404 q 543 88 539 282 q 536 -24 536 13 l 539 -50 q 524 -77 530 -77 l 513 -77 q 487 66 487 -77 q 446 118 487 84 q 427 182 437 182 l 416 182 l 416 167 q 371 96 406 96 q 352 114 371 100 q 319 96 333 96 q 277 155 302 107 l 274 155 q 248 66 256 136 q 255 6 248 45 q 240 -43 245 -43 l 233 -43 q 214 14 219 -43 q 225 66 225 38 l 225 77 q 203 148 214 133 q 154 84 154 140 q 124 6 142 6 l 117 6 q 91 92 96 6 l 91 106 q 27 215 27 193 l 27 462 q 31 465 27 465 q 27 469 31 469 l 31 529 q 27 633 31 569 q 57 858 27 803 q 237 977 125 977 q 322 981 305 981 m 229 690 l 229 518 q 233 458 229 479 q 229 398 229 437 l 229 271 q 252 245 247 245 q 262 249 262 245 l 285 245 q 334 294 334 245 l 334 664 q 300 724 334 724 q 285 727 300 727 q 229 690 229 727 z "},"P":{"ha":535,"x_min":27,"x_max":518,"o":"m 63 984 l 317 984 q 497 865 429 984 q 511 826 505 836 l 511 772 q 518 705 518 711 q 515 600 518 631 q 518 496 518 560 q 350 285 518 333 l 289 285 q 246 260 273 273 l 224 263 l 221 256 l 221 123 q 199 91 221 104 l 189 91 q 160 155 160 107 l 153 155 q 146 127 146 130 l 146 98 q 153 59 153 63 l 153 30 q 131 -6 153 9 l 120 -6 q 99 44 105 -6 q 106 91 106 77 l 106 134 q 95 184 95 180 l 95 210 l 92 210 q 66 98 76 199 l 66 44 q 74 5 74 9 l 74 -49 q 56 -66 74 -54 l 45 -66 q 27 -38 39 -66 q 35 52 27 -24 l 31 59 l 35 80 l 35 102 q 27 159 27 154 l 27 654 q 31 669 27 662 q 27 672 31 672 q 31 715 27 678 q 35 948 31 753 q 63 984 35 969 m 224 740 q 217 730 221 730 l 221 711 q 217 686 221 691 q 221 654 221 667 l 221 589 q 217 586 221 586 l 221 578 l 221 575 q 217 561 221 561 l 221 536 l 221 471 l 253 471 q 281 500 281 471 l 281 503 l 278 525 q 281 528 278 528 l 278 564 l 278 629 q 281 644 278 637 q 278 658 278 650 l 278 726 q 224 740 278 736 z "},"Q":{"ha":571,"x_min":27,"x_max":584,"o":"m 294 979 q 510 838 431 979 q 525 793 521 821 q 528 789 528 793 q 532 529 532 620 q 536 518 532 526 q 532 514 536 514 l 536 488 l 536 262 q 517 146 528 183 q 584 65 584 85 q 510 -20 584 58 q 447 -102 469 -102 l 435 -102 q 399 -20 414 -102 l 384 -5 l 369 -5 l 347 -9 q 302 50 302 10 l 302 83 l 298 109 l 287 109 q 243 50 287 77 l 224 50 l 201 68 l 201 61 q 213 -9 209 39 q 191 -47 213 -38 l 176 -47 q 153 -20 169 -47 l 153 24 q 161 83 153 41 q 142 146 161 100 l 123 146 q 102 65 106 146 l 102 35 q 105 20 102 27 q 102 9 102 13 l 105 2 q 102 -13 102 -5 q 105 -17 102 -17 q 79 -128 97 -128 l 72 -128 q 53 -91 53 -120 l 53 -87 q 57 68 53 -14 q 27 251 47 177 l 27 273 q 31 492 27 347 q 27 496 31 496 l 31 514 l 31 536 q 53 833 31 833 q 153 945 79 908 q 294 979 215 979 m 231 674 q 228 292 231 553 q 246 243 234 257 l 254 247 q 279 239 269 239 q 339 295 339 239 l 339 470 q 336 689 339 543 q 283 722 336 716 l 279 722 l 261 719 l 261 722 q 231 674 237 722 z "},"R":{"ha":607,"x_min":27,"x_max":574,"o":"m 99 975 q 103 971 103 975 l 141 975 l 160 975 q 282 971 220 975 q 316 975 302 975 q 536 831 474 975 q 548 785 539 831 l 548 572 l 551 534 l 548 534 l 551 527 l 551 481 q 506 314 551 351 q 484 272 484 287 l 574 120 l 574 71 q 541 21 545 33 l 541 -13 q 548 -55 548 -50 l 548 -66 q 503 -112 543 -85 l 498 -112 q 479 -93 493 -112 l 479 25 q 465 40 479 31 q 437 -24 440 40 q 449 -85 437 -71 l 449 -119 q 415 -150 436 -150 l 411 -150 q 388 -112 388 -132 q 392 -17 388 -80 q 278 222 384 67 l 252 230 l 248 230 q 240 222 240 229 l 240 124 q 221 56 221 66 l 221 33 q 233 -13 233 -3 l 233 -20 q 202 -66 220 -66 l 191 -66 q 172 -32 179 -66 l 172 6 q 179 47 172 10 l 179 56 q 153 101 179 101 q 130 78 153 96 l 126 78 q 103 132 103 87 l 96 132 q 84 59 84 70 l 84 44 q 96 -39 84 31 l 96 -93 q 69 -119 96 -98 l 54 -119 q 27 -81 38 -112 l 27 -70 q 42 66 35 66 q 39 71 42 71 l 42 90 l 42 97 q 27 146 34 138 l 27 219 q 35 371 35 355 q 39 895 35 557 q 73 971 39 971 l 99 975 m 240 705 l 240 439 q 286 428 240 430 q 309 439 303 439 l 309 694 q 282 709 302 709 l 259 709 l 240 705 z "},"S":{"ha":585,"x_min":20,"x_max":558,"o":"m 268 987 l 307 987 q 531 853 438 987 q 558 763 551 806 l 558 621 q 480 570 538 570 l 406 570 q 523 469 497 522 q 558 382 549 436 l 558 130 q 523 107 545 107 l 519 107 l 488 134 l 476 134 l 476 1 q 437 -42 461 -33 l 421 -42 q 382 36 382 -18 q 378 52 378 36 l 378 60 l 370 60 q 358 -15 358 -3 l 366 -117 q 351 -144 359 -144 l 331 -144 q 307 -101 317 -144 q 319 -42 307 -94 l 319 16 q 295 83 307 83 q 260 36 288 49 l 256 36 q 197 92 197 54 l 189 92 l 193 64 l 193 16 q 174 -3 193 12 l 158 -3 q 138 28 148 -3 l 142 48 l 142 103 q 126 146 134 146 q 91 16 91 109 q 95 9 91 9 l 91 -19 l 91 -74 q 68 -117 79 -117 l 48 -117 q 28 -94 42 -117 l 28 -39 q 44 83 36 -2 q 36 229 36 146 q 64 382 36 382 l 71 386 l 217 386 l 217 390 q 68 480 155 390 q 20 586 24 544 l 20 770 q 83 904 31 838 q 268 987 189 987 m 240 676 l 240 618 q 347 590 240 600 q 338 621 338 618 l 338 680 q 307 700 328 700 l 264 700 q 240 676 258 700 m 233 382 q 264 299 264 370 l 264 237 q 272 201 264 227 q 338 229 338 211 l 338 338 q 237 382 338 376 l 233 382 z "},"T":{"ha":571,"x_min":-14,"x_max":559,"o":"m 233 1015 l 328 1015 q 380 959 376 1015 q 392 931 380 933 l 404 931 q 456 935 437 931 q 511 931 481 931 l 528 931 q 559 899 549 921 l 559 688 q 515 652 521 652 l 400 652 l 392 656 l 380 641 q 385 629 380 636 q 380 621 385 621 l 385 573 l 385 406 q 388 390 385 397 q 385 374 385 383 q 388 370 385 370 q 385 358 388 366 q 388 163 388 235 l 388 123 q 368 32 368 43 q 380 -56 380 -37 l 380 -75 q 360 -111 380 -96 l 336 -111 q 309 -64 309 -92 l 309 12 q 293 44 309 34 q 269 -12 293 -12 l 261 -12 q 241 8 256 -12 l 241 79 q 225 100 231 99 l 210 100 l 210 96 q 213 92 210 92 q 205 0 210 75 q 217 -135 205 -26 l 217 -155 q 197 -175 217 -161 l 185 -175 q 165 -155 180 -175 l 165 -119 q 174 -16 165 -81 q 165 147 165 85 l 165 207 q 161 251 165 224 q 165 271 165 257 q 157 307 157 296 l 157 326 q 165 434 165 423 l 165 648 l 42 648 q -14 728 -14 687 l -14 855 q 31 931 -14 931 q 66 935 45 935 q 70 931 70 935 l 90 935 q 165 931 153 931 l 165 967 q 213 1010 180 1010 q 233 1015 220 1015 z "},"U":{"ha":616,"x_min":20,"x_max":585,"o":"m 533 998 q 576 958 565 986 l 576 800 q 585 736 576 753 l 576 629 q 585 562 585 597 l 585 557 q 576 517 585 517 q 585 430 585 484 l 585 378 q 576 359 585 359 q 585 267 585 312 q 553 85 585 85 q 536 81 546 81 l 501 81 q 437 17 482 17 q 425 25 427 25 l 418 25 l 406 -31 l 406 -54 q 414 -98 414 -94 l 414 -126 q 386 -174 414 -154 l 374 -174 q 346 -106 351 -174 q 350 -47 350 -66 q 314 61 334 61 q 262 37 275 37 l 251 37 q 219 77 219 52 l 211 77 q 207 17 207 37 l 207 -19 q 187 -58 207 -50 l 179 -58 q 163 -43 173 -58 l 163 -35 q 172 37 172 35 q 151 136 161 136 l 147 136 q 108 92 147 116 l 76 92 q 24 203 24 131 l 28 231 q 20 256 20 245 l 20 323 q 28 398 20 367 l 24 418 l 28 434 q 24 438 28 438 l 28 478 l 28 859 q 84 962 28 962 l 151 962 q 247 919 247 962 q 255 816 255 895 l 255 279 q 267 256 267 264 l 294 256 q 354 271 340 256 q 350 275 354 275 l 354 295 l 354 907 q 390 998 354 979 l 533 998 z "},"V":{"ha":477,"x_min":-47,"x_max":518,"o":"m 351 975 l 361 975 q 518 929 518 975 l 518 915 q 415 268 415 308 q 376 125 402 125 q 354 108 354 125 q 347 76 347 79 q 354 8 354 33 l 354 1 l 361 -9 l 361 -31 q 340 -66 361 -52 l 336 -66 q 315 -35 315 -54 l 315 -20 q 319 47 315 8 q 315 58 315 54 l 311 58 l 311 19 q 290 -6 297 -6 l 273 -6 q 248 30 248 9 l 248 119 l 251 136 l 248 136 q 237 122 239 136 q 241 22 237 94 q 205 -31 241 -9 l 194 -31 q 155 26 155 -7 l 155 44 l 173 129 q 102 182 130 129 l 87 225 l 87 250 q 59 403 70 361 q 27 549 42 403 q -8 730 14 585 q -41 883 -41 785 q -47 901 -47 883 l -47 940 q -26 958 -47 945 l 119 958 q 201 861 191 958 l 262 591 l 265 591 q 326 926 315 900 q 351 975 326 960 z "},"W":{"ha":808,"x_min":-27,"x_max":806,"o":"m 323 987 l 383 987 q 474 946 474 977 l 530 642 l 534 642 q 587 902 534 672 l 609 940 l 621 949 l 625 949 q 659 952 648 949 q 700 949 680 949 l 712 949 q 768 952 739 949 q 806 933 796 952 l 806 905 l 743 604 q 684 298 703 420 q 681 294 681 298 l 681 282 q 650 94 671 94 l 631 91 l 627 91 q 584 151 593 91 l 587 166 l 587 248 q 574 273 587 264 q 571 269 574 269 l 574 263 l 574 210 q 581 135 574 205 l 581 116 q 549 97 574 97 q 536 116 541 116 l 536 113 q 540 91 536 95 q 536 62 536 74 l 536 6 q 530 0 536 0 l 496 0 q 490 9 490 0 q 480 153 490 33 l 480 160 q 437 213 468 199 q 393 414 422 213 q 387 439 393 439 q 358 300 366 300 l 358 298 q 330 103 358 103 q 314 100 325 100 l 314 94 l 317 78 l 314 78 l 317 72 q 298 35 317 45 l 290 35 q 271 66 271 50 l 271 194 q 248 263 264 231 l 248 267 l 239 267 q 208 191 239 248 q 180 113 200 121 q 174 106 180 106 l 151 106 q 123 203 127 106 q 98 335 114 224 q 67 479 92 350 q 48 526 56 490 l 48 545 q -27 937 33 656 l -27 946 q 10 971 -14 971 l 136 971 q 211 827 190 971 q 245 677 220 799 l 245 661 l 252 661 l 280 827 q 311 975 302 943 l 323 987 m 536 210 l 536 163 l 540 163 q 543 210 540 170 l 536 210 z "},"X":{"ha":557,"x_min":-47,"x_max":545,"o":"m 374 991 l 443 991 q 545 964 505 991 l 545 886 q 515 849 545 880 q 476 764 500 787 l 380 530 q 453 336 453 357 l 479 250 q 522 164 479 226 l 522 148 q 509 135 522 143 l 506 135 q 476 194 489 135 l 463 204 q 423 158 457 204 q 397 141 397 149 l 397 115 q 437 23 428 58 l 437 9 q 420 -7 437 5 l 400 -7 q 368 112 382 -7 q 288 277 326 170 l 281 279 q 242 220 274 279 q 206 141 206 187 q 170 98 193 98 q 150 115 156 103 l 150 135 q 176 194 176 170 q 157 201 165 201 q 114 178 130 183 q 75 208 105 178 l 61 208 q 25 135 41 197 q -35 52 2 52 q -47 66 -39 52 l -47 85 q 12 227 12 187 q 157 563 117 481 l 157 593 q 9 938 140 625 q 68 971 9 971 q 107 975 91 975 q 203 932 203 975 q 256 817 210 924 l 262 813 q 338 978 319 948 q 374 991 357 991 z "},"Y":{"ha":513,"x_min":-41,"x_max":536,"o":"m 413 998 q 536 979 536 998 l 536 943 q 492 838 536 930 q 340 468 431 694 q 336 465 336 468 l 336 457 q 333 370 336 398 q 336 283 336 342 q 330 247 330 254 l 330 142 q 319 120 330 123 l 304 120 q 282 159 282 134 q 290 178 290 172 l 286 178 q 275 156 275 174 l 275 83 q 227 69 275 78 q 212 80 212 75 l 212 134 q 201 156 212 153 l 161 134 l 157 98 l 168 36 q 146 0 158 0 l 114 0 q 100 18 109 0 l 100 58 q 106 98 100 62 l 106 109 q 100 138 106 112 l 94 261 q 90 536 94 359 l 28 758 l -41 918 l -41 947 q -22 965 -41 951 l 134 965 q 217 817 161 965 q 242 860 225 817 q 330 998 295 998 l 413 998 z "},"Z":{"ha":571,"x_min":0,"x_max":543,"o":"m 121 972 l 474 972 q 543 948 532 972 l 543 903 q 488 779 519 871 q 418 623 477 772 q 291 315 291 325 l 298 311 l 422 311 q 426 308 426 311 l 433 311 q 540 281 540 311 q 543 277 543 281 l 543 187 q 526 159 543 168 l 509 159 q 484 184 505 159 l 477 184 q 460 166 477 170 l 460 159 q 467 132 467 135 l 467 111 q 453 94 458 94 l 436 94 q 422 107 431 94 l 422 146 l 429 156 l 429 159 q 377 204 387 204 l 377 201 l 374 180 q 384 111 374 123 l 384 90 q 363 73 378 77 q 339 94 348 79 q 342 153 342 141 q 329 197 341 197 q 283 166 329 193 l 256 166 q 242 184 242 174 l 235 184 l 239 166 q 208 138 239 144 l 204 138 q 183 159 199 138 l 183 197 l 187 204 l 180 204 q 142 135 161 204 q 138 132 138 135 l 138 107 q 128 73 138 100 q 132 59 132 67 l 128 52 q 138 21 138 29 l 138 -31 q 117 -55 122 -55 l 90 -55 q 73 -17 77 -55 q 83 83 73 1 l 83 156 q 59 246 76 203 l 59 273 q 245 709 117 401 q 249 713 249 709 l 249 720 l 52 720 q 0 779 25 729 l 0 920 q 24 966 0 949 l 56 966 q 121 972 62 966 z "},"[":{"ha":514,"x_min":0,"x_max":0,"o":""},"\\":{"ha":386,"x_min":0,"x_max":0,"o":""},"]":{"ha":514,"x_min":0,"x_max":0,"o":""},"^":{"ha":688,"x_min":0,"x_max":0,"o":""},"_":{"ha":694,"x_min":0,"x_max":0,"o":""},"`":{"ha":694,"x_min":0,"x_max":0,"o":""},"a":{"ha":613,"x_min":-41,"x_max":605,"o":"m 315 972 q 439 947 439 966 q 460 844 455 901 q 510 575 477 787 q 526 509 514 575 l 526 480 l 534 468 l 534 439 q 568 228 568 305 l 564 219 l 576 191 q 572 178 576 186 l 605 16 l 605 -16 q 593 -29 605 -22 l 589 -29 q 551 104 568 -29 q 538 79 538 99 l 538 16 q 526 4 538 11 q 510 21 519 4 l 510 45 q 514 62 510 55 q 510 75 510 70 l 514 95 l 505 95 q 485 71 505 78 l 481 71 q 439 116 456 81 q 431 124 431 116 l 431 178 l 427 178 q 418 170 418 177 l 418 4 l 410 -8 q 394 4 394 -2 l 394 66 q 373 195 391 195 l 369 195 l 369 132 q 357 120 369 127 l 349 120 q 332 136 342 120 l 332 170 q 311 207 323 207 l 290 207 q 253 62 253 182 q 241 29 248 29 l 233 29 q 224 37 224 29 l 224 145 q 212 157 224 151 q 191 112 212 155 l 191 95 q 170 -41 178 -41 l 154 -41 l 137 -25 q 141 66 141 37 l 141 75 q 137 165 141 104 l 129 165 l 129 124 q 117 45 121 93 q 121 29 121 38 l 100 8 q 50 41 78 8 q 13 -20 50 1 q -20 -41 3 -41 l -28 -41 q -41 -29 -34 -41 l -41 0 q 96 612 96 574 q 137 770 117 647 q 170 915 144 770 q 253 972 170 972 l 315 972 m 277 458 l 277 424 q 303 415 303 424 q 338 424 318 424 l 338 433 q 312 596 320 494 q 277 458 298 596 z "},"b":{"ha":571,"x_min":20,"x_max":543,"o":"m 55 970 l 357 970 q 500 892 458 943 q 543 815 524 859 l 543 467 l 511 405 q 543 300 543 319 l 543 61 q 523 26 523 35 l 535 -28 l 535 -40 q 508 -75 535 -70 q 484 -47 484 -63 q 488 22 484 -24 q 434 111 488 73 q 376 -1 376 87 l 376 -59 q 384 -90 376 -62 l 384 -105 q 368 -125 374 -125 l 353 -125 q 345 -117 345 -125 l 345 -16 q 318 77 345 58 q 283 30 302 63 q 291 -1 283 26 l 291 -5 q 275 -20 291 -11 l 268 -20 q 260 -13 260 -20 l 260 38 q 241 73 241 58 l 229 73 l 229 45 q 218 -40 222 19 q 195 -55 198 -55 q 171 -36 187 -55 l 175 11 l 175 50 q 168 92 175 54 l 168 127 q 140 200 158 182 l 117 200 q 63 68 85 164 l 36 53 l 28 53 q 20 61 20 53 l 20 273 q 24 277 20 277 l 20 286 l 20 328 q 24 517 20 421 q 20 583 20 557 q 28 699 28 643 l 28 765 q 32 800 28 785 q 28 838 28 820 l 28 924 q 55 970 28 954 m 237 691 l 237 525 q 260 521 240 525 q 299 533 299 524 q 302 695 302 635 l 295 699 l 245 699 q 237 691 237 698 m 237 316 l 237 173 q 245 165 238 165 l 295 165 q 334 184 325 165 l 334 297 q 264 320 326 316 l 237 316 z "},"c":{"ha":585,"x_min":27,"x_max":547,"o":"m 350 975 q 505 877 438 958 q 547 763 547 804 l 547 573 q 494 543 536 543 l 456 539 q 369 543 416 543 q 350 569 350 548 l 350 611 q 327 709 350 709 l 289 713 q 277 709 281 709 l 270 713 q 243 649 243 713 q 239 254 243 529 q 270 228 253 228 l 308 228 q 346 285 346 228 q 350 288 350 285 l 346 311 q 384 364 346 364 l 384 368 l 422 364 l 479 364 q 547 345 547 364 l 547 235 q 509 117 509 212 q 482 106 495 106 q 471 133 471 120 l 471 182 l 475 205 q 463 239 471 239 q 460 228 463 235 q 463 117 463 148 l 467 110 q 452 91 460 93 l 441 91 q 426 110 435 92 l 426 178 l 429 216 q 384 136 404 205 l 384 114 q 388 80 384 100 q 372 57 380 57 l 357 57 q 342 72 351 57 l 342 125 q 293 148 342 136 l 274 148 q 248 121 251 133 l 248 91 q 251 50 248 75 q 229 19 251 35 l 224 19 l 210 31 q 191 0 210 9 l 172 0 q 153 23 165 0 l 153 45 q 168 129 168 114 q 160 182 160 157 q 134 171 146 171 l 130 171 q 99 224 113 175 l 92 228 l 77 201 l 77 68 q 50 34 77 45 q 35 45 35 40 l 35 95 q 42 136 42 132 l 42 209 l 27 288 q 31 315 27 310 q 27 368 27 347 l 27 376 q 35 569 35 550 l 35 759 q 73 869 42 819 q 224 975 138 956 l 350 975 m 201 117 l 201 80 l 205 80 l 210 106 l 210 125 q 201 117 201 124 z "},"d":{"ha":579,"x_min":27,"x_max":543,"o":"m 158 992 l 255 992 q 416 962 315 975 q 538 768 538 914 q 535 730 538 732 q 538 693 535 726 q 543 309 538 673 q 531 148 543 266 l 531 66 l 535 43 q 520 25 528 26 l 516 25 q 490 51 494 37 q 494 140 494 104 l 494 182 q 441 111 441 182 q 449 36 441 104 q 419 -1 449 15 q 389 33 389 14 l 393 70 l 393 122 q 386 144 386 130 l 378 144 q 322 111 341 111 q 262 140 298 135 l 248 118 l 248 33 q 214 3 237 3 l 203 3 q 180 40 195 3 q 191 111 191 84 q 173 144 180 111 l 173 148 q 176 197 173 178 l 169 271 l 165 271 q 161 256 165 263 q 165 178 165 208 l 165 167 q 146 137 165 146 l 132 137 q 109 167 125 137 l 109 185 q 117 227 109 190 l 117 271 q 106 283 117 277 q 87 249 100 283 l 87 163 q 94 92 87 155 l 94 14 q 54 -39 84 -39 q 31 3 33 -22 q 39 70 39 47 q 27 223 27 176 l 27 260 q 31 443 27 374 q 27 615 27 491 q 39 794 39 751 q 31 850 39 799 q 64 977 31 977 q 158 992 117 982 m 240 727 l 236 701 l 240 678 q 236 667 236 671 q 240 645 240 648 q 236 623 240 642 q 240 593 236 619 q 236 559 236 572 q 240 555 236 555 l 236 536 l 236 231 q 248 208 239 208 q 296 215 257 208 l 296 686 l 300 723 l 292 727 l 240 727 z "},"e":{"ha":585,"x_min":27,"x_max":559,"o":"m 67 972 l 128 972 q 184 968 172 972 q 257 972 222 972 l 483 972 q 551 940 540 972 l 551 747 q 486 694 535 694 q 269 690 460 694 l 269 694 q 253 690 262 690 l 253 501 l 326 501 q 434 469 434 501 l 434 319 q 370 288 422 288 l 273 288 l 253 283 l 253 223 l 257 215 l 277 219 l 305 219 q 430 215 356 219 q 434 219 434 215 l 454 215 l 515 215 q 559 170 559 199 l 559 70 q 535 50 547 50 q 511 78 511 59 l 511 118 q 494 122 504 122 l 486 118 q 471 122 479 122 q 458 74 463 122 q 434 58 446 58 q 406 98 406 68 l 398 102 l 386 102 l 386 66 q 357 25 374 33 l 342 25 q 313 54 336 25 l 313 122 q 305 138 305 132 l 281 138 l 257 29 q 237 -3 257 9 l 197 -3 q 168 45 168 20 l 164 45 l 148 33 l 132 33 q 108 90 108 43 l 108 102 l 112 110 q 104 118 104 110 l 104 155 q 112 219 104 160 l 112 231 q 92 275 92 260 l 79 275 q 83 255 79 262 l 79 235 q 87 211 87 222 l 87 82 q 60 54 87 76 l 56 54 q 27 82 37 62 l 27 106 q 35 151 27 111 l 35 279 q 27 315 35 290 q 35 469 35 396 l 35 703 q 39 844 35 763 q 35 884 35 858 q 39 896 39 892 l 35 904 q 67 972 43 972 z "},"f":{"ha":538,"x_min":34,"x_max":519,"o":"m 186 979 l 300 979 q 315 975 309 979 q 330 979 322 979 l 408 979 q 515 941 515 968 q 519 923 519 935 l 519 775 q 482 720 513 720 q 419 715 454 715 l 252 715 q 245 705 252 705 l 249 667 q 245 660 249 660 l 249 642 l 249 608 q 245 593 249 600 q 249 578 249 587 l 249 556 q 245 553 249 553 l 249 545 l 249 538 q 245 534 249 534 l 249 527 l 249 501 l 245 494 l 252 490 l 356 490 q 412 456 394 490 l 412 319 q 371 294 398 294 l 264 294 l 245 290 l 245 286 q 249 275 245 275 l 245 256 l 245 190 q 227 97 233 163 l 227 34 q 234 -7 227 30 l 234 -28 q 201 -51 221 -51 q 178 -18 178 -38 l 178 -7 q 189 75 186 17 q 186 138 186 114 q 171 168 180 138 l 163 168 q 175 49 171 136 q 153 16 175 31 q 119 56 121 16 q 130 119 119 74 l 130 149 l 127 171 l 130 178 q 127 190 127 186 q 108 134 112 190 q 85 116 94 116 l 85 94 q 93 -36 93 -26 l 93 -62 q 71 -88 78 -88 l 56 -88 q 41 -33 45 -88 q 52 31 41 -15 l 52 119 q 34 182 41 132 q 37 223 37 208 l 37 234 q 34 267 37 254 q 45 486 45 380 l 45 568 q 49 842 45 667 q 45 882 45 862 q 85 975 45 975 l 93 975 q 108 971 102 975 q 186 979 127 979 z "},"g":{"ha":543,"x_min":27,"x_max":519,"o":"m 232 975 l 332 975 q 479 878 391 968 q 519 774 519 815 l 519 609 q 490 569 519 590 l 487 569 q 484 573 484 569 q 454 566 470 566 l 351 566 q 329 602 329 581 l 329 706 q 282 731 329 722 q 229 692 229 731 l 229 253 q 254 228 236 236 l 293 228 q 329 260 329 233 l 329 307 q 318 318 329 312 l 315 318 q 282 311 305 318 q 239 347 239 324 q 235 361 235 347 l 235 487 q 268 548 235 536 l 476 548 q 519 519 519 534 l 519 221 q 494 99 519 169 l 494 23 l 501 -2 q 465 -49 496 -49 q 433 -5 433 -31 q 440 63 440 49 q 404 124 435 124 q 376 95 404 119 l 361 95 q 340 138 351 95 l 332 138 q 326 92 332 134 q 332 13 332 23 q 311 -16 319 -14 l 300 -16 q 282 23 282 -3 l 282 56 q 286 106 282 75 q 257 163 267 163 l 246 163 q 229 145 241 163 l 229 70 q 207 48 219 52 q 182 70 193 48 l 182 149 q 160 181 171 177 l 124 181 q 92 117 92 162 l 92 56 q 99 -2 92 51 l 99 -16 q 71 -66 99 -46 l 52 -66 q 35 -41 49 -66 l 35 -13 q 45 74 35 26 l 45 102 l 27 246 l 27 354 q 35 508 35 496 l 35 770 q 74 878 36 806 q 232 975 162 975 z "},"h":{"ha":591,"x_min":27,"x_max":548,"o":"m 467 1009 l 489 1009 q 541 969 541 1009 l 541 701 l 544 679 q 541 675 544 675 l 544 657 l 544 591 l 548 569 q 544 566 548 566 q 548 492 548 516 l 548 309 q 541 221 548 303 l 541 155 q 544 66 541 119 q 530 41 538 41 l 515 41 q 493 66 508 41 l 493 78 q 496 173 493 111 q 493 188 493 180 l 486 188 l 486 184 l 489 177 q 423 92 478 92 q 408 85 408 92 q 420 37 420 49 q 387 12 409 12 q 368 30 382 12 q 379 85 368 37 q 361 118 368 85 l 361 151 q 339 313 351 313 l 306 313 q 291 316 298 313 q 251 309 283 313 l 229 313 l 225 305 l 225 269 q 192 122 225 122 l 166 66 l 166 60 q 181 -7 174 7 q 148 -65 181 -39 l 137 -65 q 115 -43 132 -65 l 115 -10 q 126 45 115 18 l 123 52 l 123 74 l 119 74 q 104 41 115 74 q 100 -25 104 9 q 104 -179 104 -106 q 93 -186 95 -186 l 71 -186 q 64 -179 64 -186 l 64 -65 q 56 -25 64 -61 l 56 26 q 27 118 56 104 l 27 122 q 35 877 27 331 q 75 950 35 950 q 159 958 79 953 q 225 910 225 958 l 225 558 q 236 547 225 553 l 335 547 q 346 558 340 547 l 346 771 q 342 804 346 784 q 346 829 346 808 l 346 840 l 342 863 q 346 866 342 866 l 342 884 l 342 892 q 387 1006 342 1006 q 467 1009 429 1009 z "},"i":{"ha":299,"x_min":41,"x_max":254,"o":"m 147 979 l 218 979 q 254 924 254 959 q 250 888 250 902 l 250 884 q 254 868 250 876 q 250 865 254 865 l 254 845 l 254 565 q 250 490 254 533 l 254 482 q 250 479 254 479 l 254 431 l 254 116 q 226 69 245 108 q 214 61 216 61 l 202 61 l 191 69 l 186 69 l 194 -14 q 174 -41 186 -38 q 155 -22 170 -41 l 155 -6 q 147 45 155 10 q 155 77 155 60 l 155 92 q 127 81 144 92 l 119 81 l 96 96 l 96 92 q 100 81 96 81 l 96 61 l 96 33 q 104 -9 96 28 l 104 -33 q 80 -81 94 -81 l 60 -81 q 45 231 45 -81 l 45 656 q 41 766 45 706 q 45 845 45 777 l 45 884 q 80 970 45 960 l 104 970 q 147 979 142 979 z "},"j":{"ha":507,"x_min":0,"x_max":468,"o":"m 378 970 l 385 970 q 465 942 445 970 l 468 935 l 468 75 q 465 -8 468 41 q 468 -64 468 -8 q 461 -71 468 -71 l 448 -71 q 437 -60 442 -71 l 437 -39 q 406 58 437 36 q 385 71 385 64 q 364 61 369 61 l 347 64 l 343 47 l 343 37 q 347 -26 343 7 q 330 -60 342 -60 l 323 -60 q 305 -26 312 -60 l 305 -22 l 315 33 q 312 43 312 40 l 309 43 q 288 5 309 18 l 277 5 q 260 20 262 20 q 243 -5 260 5 l 229 -5 q 215 9 224 -5 l 215 43 q 222 82 215 47 l 222 127 q 177 148 222 141 l 156 169 l 153 169 q 146 148 153 163 q 149 138 149 141 q 115 96 144 96 q 90 141 93 114 l 90 144 q 108 210 97 154 l 108 227 l 80 238 q 59 200 62 238 l 38 179 l 21 179 q 0 276 0 190 l 0 370 q 24 397 10 392 l 146 397 q 187 359 187 388 l 187 266 q 225 231 197 231 l 239 231 q 288 269 288 231 l 288 925 q 378 970 288 970 z "},"k":{"ha":593,"x_min":34,"x_max":566,"o":"m 71 979 l 206 979 q 235 927 235 964 q 239 901 239 922 l 239 799 l 243 799 q 360 979 332 979 l 511 979 q 536 957 536 963 q 389 674 528 908 q 382 656 389 665 l 382 648 q 452 462 395 605 q 481 385 477 411 q 529 201 503 263 q 566 136 529 194 l 566 110 q 543 87 566 104 q 503 154 519 87 q 456 227 488 205 l 444 227 q 433 183 444 219 q 467 124 451 163 l 467 110 q 456 99 467 104 l 441 99 q 415 146 415 123 l 397 142 l 386 150 l 378 150 q 422 -4 378 103 l 422 -12 q 389 -33 410 -33 q 342 110 361 -12 q 243 366 296 178 l 239 366 l 239 157 q 224 99 239 148 l 224 -7 q 210 -22 224 -14 q 191 -7 192 -13 l 191 128 l 188 146 l 180 146 q 170 117 170 124 l 170 18 q 155 3 170 12 l 148 3 q 133 22 140 5 q 140 99 140 58 q 89 201 140 166 l 81 201 l 81 172 q 78 154 81 160 q 89 73 81 104 q 60 18 89 38 l 56 18 q 37 62 41 18 l 41 69 q 37 81 41 73 q 41 157 41 136 q 34 264 34 243 l 34 330 q 45 488 45 460 q 41 491 45 491 l 45 517 l 45 935 q 71 979 45 960 z "},"l":{"ha":513,"x_min":34,"x_max":499,"o":"m 98 972 l 193 972 q 224 941 214 961 l 224 730 q 228 620 224 685 l 224 613 l 228 592 l 228 557 q 224 543 228 549 q 228 528 228 536 q 224 472 228 508 q 228 469 224 469 l 224 451 l 224 401 q 228 384 224 390 l 224 363 l 224 286 l 231 260 q 249 264 243 260 q 376 260 328 260 l 446 260 q 499 222 488 260 l 499 95 q 467 56 499 67 q 422 109 441 56 q 361 151 399 140 q 334 92 334 126 q 340 46 340 76 l 340 11 q 330 0 340 5 l 312 0 q 302 11 307 0 l 302 123 q 291 134 302 128 q 245 67 245 110 q 224 50 226 50 l 214 50 q 168 134 197 50 q 115 162 148 134 l 108 162 q 83 109 90 159 q 87 60 87 79 l 87 21 q 69 0 75 0 l 52 0 q 34 24 46 0 l 34 53 q 41 98 34 83 q 34 148 34 125 l 34 353 q 41 616 41 589 l 41 634 q 34 680 41 648 q 41 814 41 763 l 41 926 q 98 972 41 972 z "},"m":{"ha":966,"x_min":27,"x_max":929,"o":"m 747 979 l 873 979 q 922 958 900 979 q 926 863 926 892 l 926 845 q 922 842 926 842 l 926 835 l 926 817 q 929 779 926 802 q 926 775 929 775 q 929 747 929 755 q 926 687 929 728 l 929 670 q 926 666 929 666 l 929 649 l 929 210 q 890 168 918 180 l 884 168 l 866 178 l 863 178 q 866 143 863 162 q 848 101 861 101 l 838 101 q 817 217 817 101 l 810 220 q 803 182 810 216 l 803 151 q 810 122 803 147 l 810 91 q 785 59 800 68 l 764 59 q 750 77 760 59 l 750 147 q 732 220 750 201 l 732 498 l 729 498 q 652 319 729 488 q 557 151 585 151 q 519 178 537 161 q 448 130 467 130 l 441 130 q 382 168 421 130 l 364 164 q 276 347 336 164 l 248 410 l 241 410 l 241 193 q 213 112 213 170 q 206 -25 208 112 l 210 -32 q 192 -81 210 -64 l 171 -81 q 153 -43 162 -81 l 153 -15 q 164 31 153 -3 q 143 49 150 31 l 150 147 q 125 206 148 206 q 90 101 90 206 l 90 91 q 59 52 81 67 l 48 52 l 27 70 q 31 228 31 176 l 31 277 q 34 315 31 292 q 31 319 34 319 q 34 330 31 323 q 45 603 37 603 q 41 614 41 610 l 45 638 q 41 645 45 645 l 45 680 l 45 884 q 69 919 45 903 l 231 919 q 322 800 283 919 l 469 470 q 501 530 478 470 q 697 964 631 826 q 747 979 732 979 z "},"n":{"ha":652,"x_min":34,"x_max":613,"o":"m 514 1004 q 613 965 613 1004 l 613 689 q 610 675 613 682 q 613 665 613 669 q 610 654 613 654 l 613 612 l 613 548 q 610 524 613 528 q 613 492 613 505 l 613 425 q 610 354 613 378 q 613 283 613 329 l 613 202 l 610 180 q 613 163 613 175 q 603 156 604 156 l 595 156 q 571 184 577 168 q 574 276 574 243 l 574 304 q 549 396 565 396 l 546 396 q 536 329 546 385 l 536 170 q 543 75 543 84 l 543 1 q 528 -14 543 -5 l 522 -14 q 504 22 504 -5 q 514 138 504 94 l 511 138 q 486 127 498 127 q 444 199 465 127 q 433 212 444 212 l 429 212 q 416 195 429 202 l 419 188 l 408 170 l 408 43 q 384 22 408 37 q 355 54 368 25 l 355 82 q 362 110 355 85 l 362 142 q 292 329 336 248 l 235 474 l 228 474 l 232 456 l 232 283 q 203 145 218 145 l 182 145 l 182 142 l 189 132 l 189 110 q 165 89 189 104 l 151 89 q 119 127 132 95 l 119 132 q 125 170 125 145 l 125 199 q 119 205 125 205 l 115 205 q 87 50 100 205 l 87 36 q 62 -7 87 11 l 52 -7 q 34 22 34 3 l 34 509 l 37 530 q 34 534 37 534 l 37 559 q 41 890 41 797 q 94 940 41 934 q 133 937 118 937 l 154 937 q 218 951 201 943 q 292 890 269 951 q 419 601 402 646 q 429 591 419 596 l 426 633 l 426 831 q 422 908 426 855 l 426 908 q 422 919 422 915 q 469 997 427 997 l 514 1004 z "},"o":{"ha":576,"x_min":27,"x_max":543,"o":"m 322 981 l 330 977 l 337 981 q 483 899 397 974 q 524 817 524 836 q 532 802 532 808 q 539 709 532 787 q 532 690 539 690 q 543 596 538 669 q 539 335 539 404 q 543 88 539 282 q 536 -24 536 13 l 539 -50 q 524 -77 530 -77 l 513 -77 q 487 66 487 -77 q 446 118 487 84 q 427 182 437 182 l 416 182 l 416 167 q 371 96 406 96 q 352 114 371 100 q 319 96 333 96 q 277 155 302 107 l 274 155 q 248 66 256 136 q 255 6 248 45 q 240 -43 245 -43 l 233 -43 q 214 14 219 -43 q 225 66 225 38 l 225 77 q 203 148 214 133 q 154 84 154 140 q 124 6 142 6 l 117 6 q 91 92 96 6 l 91 106 q 27 215 27 193 l 27 462 q 31 465 27 465 q 27 469 31 469 l 31 529 q 27 633 31 569 q 57 858 27 803 q 237 977 125 977 q 322 981 305 981 m 229 690 l 229 518 q 233 458 229 479 q 229 398 229 437 l 229 271 q 252 245 247 245 q 262 249 262 245 l 285 245 q 334 294 334 245 l 334 664 q 300 724 334 724 q 285 727 300 727 q 229 690 229 727 z "},"p":{"ha":535,"x_min":27,"x_max":518,"o":"m 63 984 l 317 984 q 497 865 429 984 q 511 826 505 836 l 511 772 q 518 705 518 711 q 515 600 518 631 q 518 496 518 560 q 350 285 518 333 l 289 285 q 246 260 273 273 l 224 263 l 221 256 l 221 123 q 199 91 221 104 l 189 91 q 160 155 160 107 l 153 155 q 146 127 146 130 l 146 98 q 153 59 153 63 l 153 30 q 131 -6 153 9 l 120 -6 q 99 44 105 -6 q 106 91 106 77 l 106 134 q 95 184 95 180 l 95 210 l 92 210 q 66 98 76 199 l 66 44 q 74 5 74 9 l 74 -49 q 56 -66 74 -54 l 45 -66 q 27 -38 39 -66 q 35 52 27 -24 l 31 59 l 35 80 l 35 102 q 27 159 27 154 l 27 654 q 31 669 27 662 q 27 672 31 672 q 31 715 27 678 q 35 948 31 753 q 63 984 35 969 m 224 740 q 217 730 221 730 l 221 711 q 217 686 221 691 q 221 654 221 667 l 221 589 q 217 586 221 586 l 221 578 l 221 575 q 217 561 221 561 l 221 536 l 221 471 l 253 471 q 281 500 281 471 l 281 503 l 278 525 q 281 528 278 528 l 278 564 l 278 629 q 281 644 278 637 q 278 658 278 650 l 278 726 q 224 740 278 736 z "},"q":{"ha":571,"x_min":27,"x_max":584,"o":"m 294 979 q 510 838 431 979 q 525 793 521 821 q 528 789 528 793 q 532 529 532 620 q 536 518 532 526 q 532 514 536 514 l 536 488 l 536 262 q 517 146 528 183 q 584 65 584 85 q 510 -20 584 58 q 447 -102 469 -102 l 435 -102 q 399 -20 414 -102 l 384 -5 l 369 -5 l 347 -9 q 302 50 302 10 l 302 83 l 298 109 l 287 109 q 243 50 287 77 l 224 50 l 201 68 l 201 61 q 213 -9 209 39 q 191 -47 213 -38 l 176 -47 q 153 -20 169 -47 l 153 24 q 161 83 153 41 q 142 146 161 100 l 123 146 q 102 65 106 146 l 102 35 q 105 20 102 27 q 102 9 102 13 l 105 2 q 102 -13 102 -5 q 105 -17 102 -17 q 79 -128 97 -128 l 72 -128 q 53 -91 53 -120 l 53 -87 q 57 68 53 -14 q 27 251 47 177 l 27 273 q 31 492 27 347 q 27 496 31 496 l 31 514 l 31 536 q 53 833 31 833 q 153 945 79 908 q 294 979 215 979 m 231 674 q 228 292 231 553 q 246 243 234 257 l 254 247 q 279 239 269 239 q 339 295 339 239 l 339 470 q 336 689 339 543 q 283 722 336 716 l 279 722 l 261 719 l 261 722 q 231 674 237 722 z "},"r":{"ha":607,"x_min":27,"x_max":574,"o":"m 99 975 q 103 971 103 975 l 141 975 l 160 975 q 282 971 220 975 q 316 975 302 975 q 536 831 474 975 q 548 785 539 831 l 548 572 l 551 534 l 548 534 l 551 527 l 551 481 q 506 314 551 351 q 484 272 484 287 l 574 120 l 574 71 q 541 21 545 33 l 541 -13 q 548 -55 548 -50 l 548 -66 q 503 -112 543 -85 l 498 -112 q 479 -93 493 -112 l 479 25 q 465 40 479 31 q 437 -24 440 40 q 449 -85 437 -71 l 449 -119 q 415 -150 436 -150 l 411 -150 q 388 -112 388 -132 q 392 -17 388 -80 q 278 222 384 67 l 252 230 l 248 230 q 240 222 240 229 l 240 124 q 221 56 221 66 l 221 33 q 233 -13 233 -3 l 233 -20 q 202 -66 220 -66 l 191 -66 q 172 -32 179 -66 l 172 6 q 179 47 172 10 l 179 56 q 153 101 179 101 q 130 78 153 96 l 126 78 q 103 132 103 87 l 96 132 q 84 59 84 70 l 84 44 q 96 -39 84 31 l 96 -93 q 69 -119 96 -98 l 54 -119 q 27 -81 38 -112 l 27 -70 q 42 66 35 66 q 39 71 42 71 l 42 90 l 42 97 q 27 146 34 138 l 27 219 q 35 371 35 355 q 39 895 35 557 q 73 971 39 971 l 99 975 m 240 705 l 240 439 q 286 428 240 430 q 309 439 303 439 l 309 694 q 282 709 302 709 l 259 709 l 240 705 z "},"s":{"ha":585,"x_min":20,"x_max":558,"o":"m 268 987 l 307 987 q 531 853 438 987 q 558 763 551 806 l 558 621 q 480 570 538 570 l 406 570 q 523 469 497 522 q 558 382 549 436 l 558 130 q 523 107 545 107 l 519 107 l 488 134 l 476 134 l 476 1 q 437 -42 461 -33 l 421 -42 q 382 36 382 -18 q 378 52 378 36 l 378 60 l 370 60 q 358 -15 358 -3 l 366 -117 q 351 -144 359 -144 l 331 -144 q 307 -101 317 -144 q 319 -42 307 -94 l 319 16 q 295 83 307 83 q 260 36 288 49 l 256 36 q 197 92 197 54 l 189 92 l 193 64 l 193 16 q 174 -3 193 12 l 158 -3 q 138 28 148 -3 l 142 48 l 142 103 q 126 146 134 146 q 91 16 91 109 q 95 9 91 9 l 91 -19 l 91 -74 q 68 -117 79 -117 l 48 -117 q 28 -94 42 -117 l 28 -39 q 44 83 36 -2 q 36 229 36 146 q 64 382 36 382 l 71 386 l 217 386 l 217 390 q 68 480 155 390 q 20 586 24 544 l 20 770 q 83 904 31 838 q 268 987 189 987 m 240 676 l 240 618 q 347 590 240 600 q 338 621 338 618 l 338 680 q 307 700 328 700 l 264 700 q 240 676 258 700 m 233 382 q 264 299 264 370 l 264 237 q 272 201 264 227 q 338 229 338 211 l 338 338 q 237 382 338 376 l 233 382 z "},"t":{"ha":571,"x_min":-14,"x_max":559,"o":"m 233 1015 l 328 1015 q 380 959 376 1015 q 392 931 380 933 l 404 931 q 456 935 437 931 q 511 931 481 931 l 528 931 q 559 899 549 921 l 559 688 q 515 652 521 652 l 400 652 l 392 656 l 380 641 q 385 629 380 636 q 380 621 385 621 l 385 573 l 385 406 q 388 390 385 397 q 385 374 385 383 q 388 370 385 370 q 385 358 388 366 q 388 163 388 235 l 388 123 q 368 32 368 43 q 380 -56 380 -37 l 380 -75 q 360 -111 380 -96 l 336 -111 q 309 -64 309 -92 l 309 12 q 293 44 309 34 q 269 -12 293 -12 l 261 -12 q 241 8 256 -12 l 241 79 q 225 100 231 99 l 210 100 l 210 96 q 213 92 210 92 q 205 0 210 75 q 217 -135 205 -26 l 217 -155 q 197 -175 217 -161 l 185 -175 q 165 -155 180 -175 l 165 -119 q 174 -16 165 -81 q 165 147 165 85 l 165 207 q 161 251 165 224 q 165 271 165 257 q 157 307 157 296 l 157 326 q 165 434 165 423 l 165 648 l 42 648 q -14 728 -14 687 l -14 855 q 31 931 -14 931 q 66 935 45 935 q 70 931 70 935 l 90 935 q 165 931 153 931 l 165 967 q 213 1010 180 1010 q 233 1015 220 1015 z "},"u":{"ha":616,"x_min":20,"x_max":585,"o":"m 533 998 q 576 958 565 986 l 576 800 q 585 736 576 753 l 576 629 q 585 562 585 597 l 585 557 q 576 517 585 517 q 585 430 585 484 l 585 378 q 576 359 585 359 q 585 267 585 312 q 553 85 585 85 q 536 81 546 81 l 501 81 q 437 17 482 17 q 425 25 427 25 l 418 25 l 406 -31 l 406 -54 q 414 -98 414 -94 l 414 -126 q 386 -174 414 -154 l 374 -174 q 346 -106 351 -174 q 350 -47 350 -66 q 314 61 334 61 q 262 37 275 37 l 251 37 q 219 77 219 52 l 211 77 q 207 17 207 37 l 207 -19 q 187 -58 207 -50 l 179 -58 q 163 -43 173 -58 l 163 -35 q 172 37 172 35 q 151 136 161 136 l 147 136 q 108 92 147 116 l 76 92 q 24 203 24 131 l 28 231 q 20 256 20 245 l 20 323 q 28 398 20 367 l 24 418 l 28 434 q 24 438 28 438 l 28 478 l 28 859 q 84 962 28 962 l 151 962 q 247 919 247 962 q 255 816 255 895 l 255 279 q 267 256 267 264 l 294 256 q 354 271 340 256 q 350 275 354 275 l 354 295 l 354 907 q 390 998 354 979 l 533 998 z "},"v":{"ha":477,"x_min":-47,"x_max":518,"o":"m 351 975 l 361 975 q 518 929 518 975 l 518 915 q 415 268 415 308 q 376 125 402 125 q 354 108 354 125 q 347 76 347 79 q 354 8 354 33 l 354 1 l 361 -9 l 361 -31 q 340 -66 361 -52 l 336 -66 q 315 -35 315 -54 l 315 -20 q 319 47 315 8 q 315 58 315 54 l 311 58 l 311 19 q 290 -6 297 -6 l 273 -6 q 248 30 248 9 l 248 119 l 251 136 l 248 136 q 237 122 239 136 q 241 22 237 94 q 205 -31 241 -9 l 194 -31 q 155 26 155 -7 l 155 44 l 173 129 q 102 182 130 129 l 87 225 l 87 250 q 59 403 70 361 q 27 549 42 403 q -8 730 14 585 q -41 883 -41 785 q -47 901 -47 883 l -47 940 q -26 958 -47 945 l 119 958 q 201 861 191 958 l 262 591 l 265 591 q 326 926 315 900 q 351 975 326 960 z "},"w":{"ha":808,"x_min":-27,"x_max":806,"o":"m 323 987 l 383 987 q 474 946 474 977 l 530 642 l 534 642 q 587 902 534 672 l 609 940 l 621 949 l 625 949 q 659 952 648 949 q 700 949 680 949 l 712 949 q 768 952 739 949 q 806 933 796 952 l 806 905 l 743 604 q 684 298 703 420 q 681 294 681 298 l 681 282 q 650 94 671 94 l 631 91 l 627 91 q 584 151 593 91 l 587 166 l 587 248 q 574 273 587 264 q 571 269 574 269 l 574 263 l 574 210 q 581 135 574 205 l 581 116 q 549 97 574 97 q 536 116 541 116 l 536 113 q 540 91 536 95 q 536 62 536 74 l 536 6 q 530 0 536 0 l 496 0 q 490 9 490 0 q 480 153 490 33 l 480 160 q 437 213 468 199 q 393 414 422 213 q 387 439 393 439 q 358 300 366 300 l 358 298 q 330 103 358 103 q 314 100 325 100 l 314 94 l 317 78 l 314 78 l 317 72 q 298 35 317 45 l 290 35 q 271 66 271 50 l 271 194 q 248 263 264 231 l 248 267 l 239 267 q 208 191 239 248 q 180 113 200 121 q 174 106 180 106 l 151 106 q 123 203 127 106 q 98 335 114 224 q 67 479 92 350 q 48 526 56 490 l 48 545 q -27 937 33 656 l -27 946 q 10 971 -14 971 l 136 971 q 211 827 190 971 q 245 677 220 799 l 245 661 l 252 661 l 280 827 q 311 975 302 943 l 323 987 m 536 210 l 536 163 l 540 163 q 543 210 540 170 l 536 210 z "},"x":{"ha":557,"x_min":-47,"x_max":545,"o":"m 374 991 l 443 991 q 545 964 505 991 l 545 886 q 515 849 545 880 q 476 764 500 787 l 380 530 q 453 336 453 357 l 479 250 q 522 164 479 226 l 522 148 q 509 135 522 143 l 506 135 q 476 194 489 135 l 463 204 q 423 158 457 204 q 397 141 397 149 l 397 115 q 437 23 428 58 l 437 9 q 420 -7 437 5 l 400 -7 q 368 112 382 -7 q 288 277 326 170 l 281 279 q 242 220 274 279 q 206 141 206 187 q 170 98 193 98 q 150 115 156 103 l 150 135 q 176 194 176 170 q 157 201 165 201 q 114 178 130 183 q 75 208 105 178 l 61 208 q 25 135 41 197 q -35 52 2 52 q -47 66 -39 52 l -47 85 q 12 227 12 187 q 157 563 117 481 l 157 593 q 9 938 140 625 q 68 971 9 971 q 107 975 91 975 q 203 932 203 975 q 256 817 210 924 l 262 813 q 338 978 319 948 q 374 991 357 991 z "},"y":{"ha":513,"x_min":-41,"x_max":536,"o":"m 413 998 q 536 979 536 998 l 536 943 q 492 838 536 930 q 340 468 431 694 q 336 465 336 468 l 336 457 q 333 370 336 398 q 336 283 336 342 q 330 247 330 254 l 330 142 q 319 120 330 123 l 304 120 q 282 159 282 134 q 290 178 290 172 l 286 178 q 275 156 275 174 l 275 83 q 227 69 275 78 q 212 80 212 75 l 212 134 q 201 156 212 153 l 161 134 l 157 98 l 168 36 q 146 0 158 0 l 114 0 q 100 18 109 0 l 100 58 q 106 98 100 62 l 106 109 q 100 138 106 112 l 94 261 q 90 536 94 359 l 28 758 l -41 918 l -41 947 q -22 965 -41 951 l 134 965 q 217 817 161 965 q 242 860 225 817 q 330 998 295 998 l 413 998 z "},"z":{"ha":571,"x_min":0,"x_max":543,"o":"m 121 972 l 474 972 q 543 948 532 972 l 543 903 q 488 779 519 871 q 418 623 477 772 q 291 315 291 325 l 298 311 l 422 311 q 426 308 426 311 l 433 311 q 540 281 540 311 q 543 277 543 281 l 543 187 q 526 159 543 168 l 509 159 q 484 184 505 159 l 477 184 q 460 166 477 170 l 460 159 q 467 132 467 135 l 467 111 q 453 94 458 94 l 436 94 q 422 107 431 94 l 422 146 l 429 156 l 429 159 q 377 204 387 204 l 377 201 l 374 180 q 384 111 374 123 l 384 90 q 363 73 378 77 q 339 94 348 79 q 342 153 342 141 q 329 197 341 197 q 283 166 329 193 l 256 166 q 242 184 242 174 l 235 184 l 239 166 q 208 138 239 144 l 204 138 q 183 159 199 138 l 183 197 l 187 204 l 180 204 q 142 135 161 204 q 138 132 138 135 l 138 107 q 128 73 138 100 q 132 59 132 67 l 128 52 q 138 21 138 29 l 138 -31 q 117 -55 122 -55 l 90 -55 q 73 -17 77 -55 q 83 83 73 1 l 83 156 q 59 246 76 203 l 59 273 q 245 709 117 401 q 249 713 249 709 l 249 720 l 52 720 q 0 779 25 729 l 0 920 q 24 966 0 949 l 56 966 q 121 972 62 966 z "},"{":{"ha":688,"x_min":0,"x_max":0,"o":""},"|":{"ha":688,"x_min":0,"x_max":0,"o":""},"}":{"ha":688,"x_min":0,"x_max":0,"o":""},"~":{"ha":688,"x_min":0,"x_max":0,"o":""},"¡":{"ha":456,"x_min":0,"x_max":0,"o":""},"¢":{"ha":772,"x_min":0,"x_max":0,"o":""},"£":{"ha":688,"x_min":0,"x_max":0,"o":""},"¤":{"ha":688,"x_min":0,"x_max":0,"o":""},"¥":{"ha":856,"x_min":0,"x_max":0,"o":""},"¦":{"ha":688,"x_min":0,"x_max":0,"o":""},"§":{"ha":688,"x_min":0,"x_max":0,"o":""},"¨":{"ha":694,"x_min":0,"x_max":0,"o":""},"©":{"ha":1408,"x_min":58,"x_max":1344,"o":"m 702 1126 q 1152 934 952 1126 q 1274 759 1238 838 q 1344 461 1344 610 l 1344 437 q 1153 -33 1344 178 q 702 -228 954 -228 q 238 -21 440 -228 q 58 451 58 184 q 248 929 58 722 q 702 1126 446 1126 m 684 1095 q 687 1021 687 1042 q 688 1016 688 1017 l 682 1011 l 670 1011 q 663 1089 663 1011 q 661 1094 661 1089 q 639 1092 646 1092 l 634 1092 q 637 1046 636 1082 q 629 1037 635 1046 q 639 1023 639 1032 l 639 1008 q 660 987 639 987 l 663 987 q 713 1001 713 987 q 715 1010 713 1002 q 713 1034 713 1025 q 722 1043 715 1034 q 712 1052 718 1043 l 712 1055 q 711 1095 712 1067 l 684 1095 m 760 1092 q 755 1069 758 1088 q 783 1062 783 1067 q 769 1036 783 1042 q 777 1026 771 1036 q 769 983 770 985 q 795 979 779 983 q 814 1028 800 1028 l 806 1038 q 810 1061 808 1054 q 838 1056 834 1056 l 838 1058 q 841 1079 838 1063 q 760 1092 770 1092 m 516 1052 q 524 1019 516 1042 q 518 1011 522 1019 l 518 1008 q 536 977 530 1008 q 553 966 543 966 q 608 989 608 977 l 608 995 q 603 1019 608 1002 q 576 1011 579 1011 q 579 998 579 1004 q 559 994 572 994 q 555 1015 555 1003 q 559 1023 559 1016 q 545 1047 547 1023 q 563 1053 549 1050 q 567 1041 567 1048 l 594 1048 q 573 1079 589 1079 l 567 1079 q 516 1052 516 1071 m 876 1067 q 869 1047 869 1049 q 895 1036 895 1038 q 875 1011 888 1011 q 880 1000 880 1004 q 866 959 866 965 q 890 950 886 950 q 917 995 903 995 q 912 1007 912 1002 q 922 1026 918 1026 q 945 1017 941 1017 l 954 1038 q 876 1068 885 1067 l 876 1067 m 389 1006 q 410 964 408 972 l 407 953 q 430 929 422 953 q 440 913 431 929 q 500 955 500 940 q 485 987 500 963 q 488 1000 488 993 q 469 1019 474 1000 q 446 1034 461 1034 q 389 1006 440 1034 m 995 1016 q 968 977 972 977 q 959 975 960 975 q 962 965 959 972 q 938 926 938 928 q 1000 887 996 887 q 1010 907 1010 901 q 972 934 976 928 q 983 945 981 945 l 984 945 l 1010 929 q 1023 949 1013 930 q 996 968 996 963 q 1006 981 1002 979 q 1044 956 1008 979 q 1057 975 1047 957 q 995 1016 1054 977 m 443 1006 q 470 959 445 1006 l 470 958 q 452 947 460 947 q 425 998 431 984 q 443 1006 439 1006 m 291 918 q 313 884 291 910 l 311 874 l 322 874 q 353 848 345 848 q 399 886 369 848 l 401 893 q 380 925 401 900 l 380 926 l 382 935 l 372 935 q 337 962 347 962 q 292 925 323 962 l 291 918 m 1095 943 q 1062 910 1095 941 l 1055 911 l 1051 911 l 1051 899 l 1021 868 q 1040 850 1021 866 l 1062 871 l 1063 871 q 1055 833 1055 836 l 1076 814 l 1086 852 q 1098 848 1097 848 l 1101 848 q 1139 884 1114 848 l 1139 889 q 1095 943 1139 903 m 332 932 l 336 932 q 372 892 347 922 l 372 889 q 359 878 372 887 l 357 878 q 321 919 346 887 l 321 922 q 332 932 321 923 m 413 672 l 414 662 l 414 584 q 374 515 374 569 q 394 412 374 458 q 425 354 397 411 q 448 321 448 326 l 448 318 l 446 307 q 452 269 448 290 q 449 245 449 260 q 450 233 450 234 l 449 230 q 461 178 454 178 q 476 144 476 165 q 503 113 481 130 q 528 92 513 92 q 552 55 552 58 q 591 5 572 5 q 603 -23 599 5 q 640 -47 614 -39 q 690 -71 652 -61 q 700 -72 699 -71 q 777 -66 723 -68 q 808 -50 793 -60 q 856 -26 831 -50 q 908 30 902 -26 q 935 106 920 45 q 960 174 960 134 q 969 204 969 188 l 969 215 q 983 264 983 249 q 978 282 981 277 q 979 306 979 297 l 979 312 q 978 319 979 317 q 979 330 979 326 q 962 394 979 357 q 964 410 963 410 l 963 414 l 963 429 q 956 465 963 442 q 968 490 968 474 l 966 500 q 974 541 974 519 l 974 549 q 979 575 979 566 l 966 621 l 968 645 q 944 729 968 664 q 881 817 922 779 q 808 878 850 864 q 648 910 713 910 l 636 910 q 549 892 602 910 q 480 848 519 881 q 424 753 447 806 q 413 672 418 730 m 1098 907 q 1111 890 1111 897 l 1095 876 l 1092 876 q 1080 887 1090 876 l 1080 889 q 1098 907 1080 891 m 621 895 q 795 867 720 895 q 863 819 854 835 q 903 751 881 804 q 944 648 925 727 l 944 647 q 942 618 944 642 q 951 581 948 601 q 956 576 954 581 l 956 574 q 948 562 956 563 l 951 547 q 938 496 951 522 q 944 491 944 495 l 944 487 q 939 482 944 485 l 930 482 q 926 469 930 477 q 941 424 932 469 l 941 418 q 938 385 938 395 q 954 343 947 374 q 956 332 954 342 l 954 321 q 957 303 957 306 q 951 282 957 300 q 959 262 959 269 q 945 219 959 255 q 937 173 945 194 q 922 127 937 149 q 901 71 911 119 q 882 30 901 68 l 882 28 q 884 22 882 27 q 857 -2 876 -2 q 818 -24 844 -2 q 777 -41 798 -24 l 702 -48 l 700 -48 q 655 -31 686 -48 q 629 -17 655 -24 q 623 4 623 -10 q 624 19 623 6 q 585 43 585 28 q 574 65 574 56 q 578 75 574 68 q 543 115 565 75 q 519 130 526 115 q 503 146 519 134 l 491 182 q 475 221 475 189 q 473 233 473 227 l 473 234 q 475 236 473 236 l 473 239 q 475 275 475 272 q 470 312 470 304 l 471 319 l 467 342 q 409 439 452 347 q 398 512 398 482 l 398 518 q 430 564 398 555 l 440 564 l 440 566 q 437 611 440 587 q 439 637 439 625 q 437 672 439 652 q 501 840 437 777 q 579 889 535 875 q 621 895 583 889 m 452 688 q 454 684 452 687 q 450 668 450 676 q 452 635 450 657 q 450 610 450 614 q 454 562 454 572 q 490 532 490 548 l 491 532 q 498 542 491 538 l 501 542 l 511 534 q 537 538 531 538 l 542 532 l 542 529 q 522 409 522 446 q 534 373 530 393 q 552 351 552 364 q 572 327 572 348 l 589 328 l 610 327 q 625 333 621 333 q 630 328 627 333 q 627 315 627 317 q 630 302 630 305 q 629 297 629 298 q 646 275 646 286 l 646 269 q 666 246 660 269 q 661 222 661 228 q 663 210 663 214 l 664 210 q 706 281 678 243 q 736 337 724 309 l 741 337 q 745 332 745 337 q 722 285 743 315 l 724 285 q 760 302 759 293 q 766 303 763 302 q 787 302 779 302 q 805 307 789 302 l 805 309 l 800 309 q 781 306 794 309 q 751 330 751 313 l 751 334 q 755 343 752 343 l 760 343 q 764 327 763 343 q 778 319 772 319 q 802 322 797 322 q 850 306 835 306 q 875 336 875 306 q 857 409 875 378 q 848 475 848 448 l 848 478 q 881 529 848 497 q 926 574 892 529 q 938 579 928 574 q 929 618 935 602 q 930 642 930 633 l 930 645 q 905 726 919 701 l 880 771 q 854 806 869 780 q 778 857 817 844 q 666 882 696 882 l 651 882 l 642 880 q 636 882 640 882 q 537 848 550 869 q 485 795 511 827 q 452 688 452 756 m 208 819 q 237 790 208 812 q 238 780 238 784 l 252 781 q 285 764 270 764 q 322 808 308 779 l 322 814 q 295 842 322 824 l 295 853 l 292 853 l 281 852 q 249 871 260 871 q 208 825 233 871 l 208 819 m 597 854 q 616 837 616 848 l 616 832 q 582 810 614 826 l 576 810 q 561 827 561 816 l 561 829 q 597 854 561 846 m 573 825 l 576 823 l 581 823 l 603 837 q 594 841 602 841 q 573 825 573 836 m 248 841 l 252 841 q 294 806 291 813 q 283 793 288 795 l 280 793 q 237 827 237 823 q 248 841 243 839 m 530 806 l 534 806 q 548 793 548 805 l 548 787 q 528 758 548 781 q 491 702 519 702 q 479 722 479 707 l 479 735 q 521 804 479 772 q 530 806 526 806 m 1095 791 l 1095 790 q 1105 774 1095 781 l 1111 774 q 1120 781 1120 779 l 1120 784 q 1107 801 1116 801 q 1095 791 1095 795 m 491 733 l 491 722 l 492 714 l 495 714 q 518 765 507 714 q 537 789 532 781 l 537 791 q 533 796 537 794 q 497 759 513 788 q 491 733 491 745 m 1180 768 q 1169 769 1175 769 q 1126 739 1169 757 q 1160 672 1154 689 q 1181 684 1177 680 l 1160 726 l 1175 733 q 1190 705 1190 709 q 1211 714 1194 705 q 1198 743 1211 720 l 1198 744 q 1213 751 1198 747 l 1214 751 q 1235 711 1221 733 q 1255 720 1252 720 q 1220 787 1255 727 q 1180 768 1184 768 m 167 768 q 157 744 167 764 q 228 713 222 717 l 228 711 q 218 696 223 696 q 203 711 205 696 q 191 707 195 707 l 149 724 l 140 699 l 140 698 q 184 671 184 684 l 184 669 q 197 673 192 673 q 208 668 208 672 q 201 651 205 651 l 199 651 l 130 678 l 130 677 q 120 652 120 656 q 165 630 165 637 l 165 626 l 167 626 q 178 629 168 626 l 198 621 q 237 662 237 635 q 233 673 237 665 q 253 694 248 680 q 256 703 253 699 q 238 739 248 739 q 222 756 222 744 q 212 751 214 751 l 168 768 l 167 768 m 1240 675 q 1219 659 1240 668 l 1216 648 l 1216 647 q 1223 614 1216 637 q 1210 610 1217 610 q 1202 627 1205 610 q 1213 633 1213 631 q 1205 657 1205 655 q 1177 637 1177 652 l 1177 629 q 1206 579 1184 579 l 1214 581 q 1223 575 1214 578 q 1246 593 1223 583 l 1249 604 l 1249 605 q 1241 637 1249 615 q 1256 644 1250 644 q 1262 626 1262 635 q 1252 621 1261 621 l 1259 595 q 1289 617 1289 600 q 1261 672 1280 672 l 1257 672 q 1252 671 1254 672 q 1240 675 1246 675 m 788 672 q 841 659 801 672 l 844 659 q 873 668 848 659 q 878 663 876 668 l 878 659 q 838 645 878 652 q 800 657 831 645 l 787 659 l 764 654 l 763 654 q 760 657 760 654 l 760 662 q 788 672 760 669 m 660 663 l 664 663 q 712 648 673 663 q 730 642 730 646 l 730 637 q 721 633 728 633 q 670 650 710 633 q 664 651 664 650 q 630 635 650 651 l 625 635 q 621 640 623 635 l 621 644 q 660 663 641 663 m 664 625 l 669 625 q 707 615 707 621 q 702 608 705 608 l 692 608 q 666 612 687 608 q 621 583 642 612 l 619 583 q 614 587 614 585 l 614 589 q 664 625 627 625 m 827 608 l 831 608 q 884 605 836 608 l 884 604 l 899 606 q 905 602 905 604 l 905 597 q 890 590 905 593 q 836 595 848 595 l 835 595 q 812 593 827 595 l 810 596 l 810 600 q 827 608 810 606 m 654 590 l 660 590 q 748 569 686 590 q 784 536 784 547 l 784 530 q 770 522 779 522 l 768 522 q 713 542 760 522 q 684 544 701 542 q 680 539 684 541 l 664 539 q 602 524 654 539 l 599 524 l 594 530 q 630 579 595 541 q 654 590 643 590 m 419 545 l 419 544 q 488 467 469 544 l 490 467 l 490 472 q 488 478 490 475 q 490 509 490 479 q 475 538 482 509 q 440 551 457 551 l 434 551 q 419 545 431 551 m 935 549 q 880 512 930 539 l 872 500 l 873 500 q 895 505 884 505 l 899 505 q 924 498 908 505 q 938 548 938 519 l 935 549 m 412 529 l 412 508 q 443 400 412 446 q 473 355 454 370 q 479 370 479 366 l 479 378 l 471 420 q 480 463 477 455 q 467 496 475 463 q 425 532 444 532 q 412 529 423 532 m 137 530 l 137 502 l 132 496 l 137 490 l 137 463 l 152 463 l 152 491 l 155 491 l 167 465 q 180 490 170 465 l 183 490 l 183 463 l 198 463 l 198 490 l 203 496 l 198 502 l 198 530 l 184 530 q 170 502 182 530 l 165 502 q 153 530 165 505 l 137 530 m 219 530 l 219 503 q 213 496 219 503 q 219 486 219 494 l 219 463 l 233 463 l 233 491 l 234 491 q 248 465 237 491 l 264 491 l 265 491 l 265 463 l 279 463 l 279 490 l 285 497 q 279 502 279 497 l 279 530 l 265 530 q 250 502 262 530 l 249 502 q 234 530 245 502 l 219 530 m 295 530 l 295 529 q 311 497 295 527 q 295 463 295 465 l 311 463 q 319 476 315 463 l 321 476 q 328 463 324 476 l 346 463 l 346 465 q 331 497 331 493 l 346 530 l 328 530 q 321 517 324 517 l 319 517 q 311 530 315 530 l 295 530 m 1000 530 l 1000 503 q 995 496 995 496 q 1000 486 1000 494 l 1000 463 l 1014 463 l 1014 491 l 1015 491 q 1029 465 1019 491 l 1045 491 l 1047 491 l 1047 463 l 1060 463 l 1060 490 l 1066 497 q 1060 502 1060 497 l 1060 530 l 1047 530 q 1032 502 1044 530 l 1030 502 q 1015 530 1027 502 l 1000 530 m 1081 530 l 1081 503 l 1076 496 q 1081 486 1081 494 l 1081 463 l 1095 463 l 1095 491 l 1096 491 q 1109 465 1100 491 l 1126 491 l 1128 491 l 1128 463 l 1141 463 l 1141 490 l 1147 497 q 1141 502 1141 497 l 1141 530 l 1128 530 q 1113 502 1124 530 l 1111 502 q 1096 530 1108 502 l 1081 530 m 1158 530 q 1174 496 1174 498 l 1158 463 l 1174 463 q 1181 476 1177 463 l 1183 476 q 1190 463 1186 476 l 1210 463 q 1194 497 1194 494 l 1210 530 l 1190 530 q 1183 517 1186 517 l 1181 517 q 1174 530 1177 530 l 1158 530 m 1221 530 q 1238 496 1238 498 l 1221 463 l 1238 463 q 1246 476 1242 463 l 1247 476 q 1255 463 1251 476 l 1274 463 q 1257 497 1257 494 l 1274 530 l 1255 530 q 1247 517 1251 517 l 1246 517 q 1238 530 1242 530 l 1221 530 m 692 527 q 737 512 734 522 l 737 508 q 733 503 737 506 q 694 514 709 514 l 692 514 q 652 497 652 507 q 648 493 649 493 l 644 493 q 639 502 639 494 q 692 527 639 517 m 440 511 q 449 503 446 509 l 443 454 q 454 427 446 427 l 460 430 q 465 426 465 428 l 465 421 q 458 414 465 419 l 452 414 q 430 454 435 414 q 434 493 434 481 l 434 498 l 433 507 q 440 511 437 511 m 699 508 q 754 481 730 508 l 754 476 q 697 451 734 451 q 645 482 645 460 l 645 486 q 699 508 667 508 m 763 502 l 768 502 q 784 478 784 489 q 775 463 782 463 q 769 467 769 465 l 769 481 l 758 493 l 758 497 q 763 502 758 499 m 702 494 q 705 486 705 490 l 705 478 q 702 465 705 474 l 703 465 q 736 481 736 468 q 702 494 718 494 m 896 493 q 899 484 899 487 q 893 467 897 475 l 895 467 q 918 487 918 467 q 896 493 907 493 m 660 482 l 660 479 l 661 479 l 661 482 l 660 482 m 861 478 l 861 472 q 865 469 862 469 l 865 471 l 863 478 l 861 478 m 458 472 q 467 469 462 472 q 464 452 464 458 l 465 439 l 460 436 q 449 454 452 436 q 458 472 452 472 m 758 466 l 763 466 q 768 461 765 466 l 768 460 q 741 418 768 448 l 739 418 q 732 426 735 418 l 754 457 q 758 466 755 466 m 880 454 l 869 454 l 861 456 q 886 372 863 426 q 887 340 887 352 l 887 334 q 881 312 887 321 q 909 292 888 312 l 911 292 q 918 343 911 295 l 927 429 q 923 442 926 442 q 897 400 923 418 l 895 400 q 890 405 892 400 l 890 408 q 912 454 912 429 l 912 458 q 880 454 894 454 m 805 437 l 810 437 q 815 426 814 437 l 814 418 l 818 397 l 818 394 q 809 390 817 390 q 800 430 802 390 l 800 433 q 805 437 800 435 m 633 436 l 639 436 q 684 414 659 414 l 691 414 q 724 421 699 414 l 726 418 l 726 412 q 690 400 716 400 q 630 431 630 408 l 630 433 q 633 436 631 436 m 1225 426 q 1223 400 1223 408 q 1242 387 1227 400 q 1220 375 1242 385 l 1217 351 q 1267 373 1263 373 l 1272 373 l 1280 366 q 1286 372 1282 366 l 1297 370 l 1302 370 l 1302 379 l 1304 390 q 1283 399 1289 390 q 1276 393 1276 395 q 1238 416 1265 393 l 1225 426 m 153 415 q 134 403 153 409 l 131 393 q 132 369 132 371 q 123 366 127 366 l 122 366 q 117 380 118 366 q 126 384 121 384 q 123 405 125 405 q 99 390 99 405 q 116 345 99 345 q 127 339 120 345 q 147 349 127 345 l 152 363 q 149 384 152 366 q 161 388 155 388 q 165 373 163 385 q 156 369 156 370 q 157 349 156 368 l 159 349 q 183 364 183 349 q 165 409 183 409 q 155 415 161 409 l 153 415 m 768 403 l 772 403 q 777 399 774 403 q 758 360 766 360 l 755 360 q 751 366 753 360 q 768 403 764 401 m 787 369 q 806 357 806 363 l 806 353 q 803 349 806 349 l 800 349 q 781 360 781 355 l 781 364 q 787 369 781 368 m 1204 288 q 1241 275 1241 280 l 1241 272 l 1249 276 q 1283 272 1273 272 l 1287 290 q 1265 294 1269 294 l 1265 296 q 1292 307 1267 298 l 1297 328 q 1267 321 1272 321 q 1234 342 1267 337 l 1226 342 q 1204 288 1211 342 m 152 326 q 146 330 152 328 q 111 313 146 320 q 110 312 110 313 q 116 294 113 294 q 141 298 134 298 q 156 266 146 266 l 157 266 q 199 285 199 269 l 199 288 l 189 333 q 152 326 159 326 m 1231 319 q 1249 312 1249 319 q 1244 300 1248 300 q 1226 307 1226 302 q 1231 319 1227 319 m 176 307 q 180 292 180 299 q 161 288 175 288 q 156 303 156 297 q 176 307 169 307 m 1181 224 q 1210 203 1181 211 q 1214 194 1213 194 q 1223 199 1221 199 q 1246 191 1229 195 q 1270 233 1261 191 l 1270 236 q 1242 255 1270 247 q 1238 262 1242 262 l 1234 260 l 1231 260 l 1205 267 q 1181 224 1192 267 m 174 254 q 165 256 170 254 q 152 243 165 250 q 131 233 131 239 q 138 216 137 216 q 167 227 162 227 q 174 209 170 227 q 146 199 147 199 l 146 197 q 153 179 150 179 q 186 189 181 189 q 193 188 188 188 q 228 208 193 197 l 228 210 q 207 266 212 250 q 174 254 178 254 m 1208 243 q 1249 230 1215 243 l 1249 229 q 1242 214 1246 214 q 1202 230 1202 228 q 1208 243 1205 243 m 197 239 q 204 221 200 235 q 192 216 195 216 q 184 234 186 224 q 197 239 193 239 m 805 215 l 802 216 q 773 210 793 212 q 753 201 767 201 q 743 204 750 201 q 732 200 735 200 q 734 197 732 197 l 760 197 q 854 222 854 207 q 831 224 839 224 l 830 224 q 805 215 810 215 m 1173 206 l 1144 149 q 1160 143 1154 143 q 1168 159 1168 157 l 1169 159 q 1187 143 1187 157 q 1196 146 1192 146 q 1226 131 1200 146 l 1227 131 q 1235 151 1235 148 q 1204 174 1204 163 q 1195 172 1198 172 q 1180 180 1180 178 q 1187 200 1187 193 q 1173 206 1177 206 m 204 176 q 195 179 201 176 q 163 153 195 167 q 174 136 170 140 q 210 153 205 153 q 188 113 203 138 q 197 94 188 109 l 227 111 q 235 109 228 109 q 262 130 235 119 q 267 136 267 133 q 259 151 259 149 l 223 134 l 223 136 l 244 173 q 234 193 244 180 l 204 176 m 836 178 q 842 153 838 153 l 845 153 q 850 163 850 155 l 850 168 q 844 179 850 176 l 839 179 l 836 178 m 812 172 q 808 155 809 168 q 815 144 810 144 q 820 146 818 146 l 820 164 q 821 165 820 165 q 812 172 820 172 m 779 164 l 781 149 l 781 140 q 785 136 781 138 l 788 136 q 791 138 791 136 l 791 158 l 790 165 l 783 165 l 779 164 m 1138 140 l 1103 91 q 1132 68 1103 90 l 1132 61 l 1141 62 q 1169 43 1151 56 l 1171 43 q 1181 60 1171 45 l 1156 79 q 1168 94 1164 94 q 1192 77 1175 90 l 1195 77 q 1205 94 1195 79 q 1177 115 1177 112 l 1177 122 l 1175 122 l 1165 121 q 1138 140 1162 125 m 833 106 q 836 103 833 103 l 844 103 q 846 127 846 119 q 845 131 845 130 l 839 131 q 833 106 833 131 m 250 98 l 241 100 q 223 80 241 87 q 213 71 223 79 q 225 55 223 55 l 253 75 l 262 73 l 262 80 l 291 103 q 280 119 280 117 q 250 98 279 119 m 794 106 l 794 92 q 798 90 795 90 l 802 90 q 806 109 806 90 l 806 118 l 799 118 q 794 106 794 117 m 1141 112 l 1143 112 q 1152 104 1152 106 q 1139 90 1143 91 q 1131 97 1131 95 l 1131 98 q 1141 112 1139 111 m 289 75 l 283 75 l 280 76 q 273 56 280 64 l 273 50 q 289 25 273 43 l 289 24 q 281 16 289 22 l 280 16 q 271 26 277 16 l 271 28 l 276 34 q 262 49 263 49 q 249 35 250 40 l 249 30 q 279 -6 249 17 l 288 -6 q 298 -2 293 -2 l 300 -2 l 302 -3 q 311 16 302 6 l 311 22 q 295 47 311 29 l 295 49 q 302 56 295 51 l 304 56 q 313 43 313 51 q 309 39 311 43 q 322 24 309 38 q 336 41 336 33 l 336 43 q 306 79 336 56 l 300 79 q 289 75 294 79 m 817 76 l 817 64 l 818 56 l 823 56 q 829 67 829 59 l 829 70 q 824 79 829 77 l 820 79 q 817 76 817 79 m 1056 37 l 1056 34 q 1081 12 1059 34 l 1081 4 l 1088 4 q 1114 -18 1090 4 l 1117 -18 q 1129 -3 1117 -16 q 1111 12 1114 12 l 1111 14 l 1141 9 l 1156 25 q 1126 34 1133 31 q 1129 45 1129 40 q 1098 73 1109 73 l 1095 73 q 1056 37 1086 73 m 787 25 l 790 24 l 794 24 q 803 46 798 26 q 802 50 802 49 l 794 50 q 787 25 790 50 m 1095 50 q 1107 40 1101 48 l 1107 35 q 1098 26 1107 33 q 1083 40 1083 38 q 1095 50 1090 50 m 814 20 l 814 14 q 818 10 814 12 l 821 10 q 827 30 825 10 l 823 33 l 820 33 q 814 20 816 33 m 322 3 l 323 -1 l 323 -8 l 302 -33 q 319 -47 315 -46 q 340 -23 333 -28 q 353 -35 353 -33 l 353 -36 q 334 -60 341 -50 l 334 -62 q 351 -74 336 -62 q 373 -47 351 -71 l 380 -47 l 380 -38 q 401 -9 401 -12 l 387 3 l 385 3 q 366 -21 385 -1 q 352 -9 352 -11 l 352 -8 q 370 14 352 -7 l 370 16 q 357 28 370 17 l 355 28 q 328 3 334 3 l 322 3 m 1004 -14 l 1004 -17 q 1019 -41 1004 -22 l 1019 -47 l 1017 -50 q 1035 -58 1029 -50 q 1045 -69 1035 -63 l 1051 -69 q 1087 -41 1064 -69 q 1088 -36 1088 -38 q 1074 -12 1088 -30 l 1074 -6 l 1076 -3 q 1053 13 1062 -3 q 1040 19 1046 19 q 1004 -14 1004 -1 m 1040 -3 q 1065 -39 1065 -34 q 1056 -47 1057 -47 l 1053 -47 q 1026 -16 1051 -46 l 1026 -12 q 1040 -3 1034 -3 m 939 -48 l 939 -51 l 956 -78 l 954 -89 q 977 -114 966 -89 q 979 -119 979 -114 q 1026 -84 1026 -98 l 1026 -81 q 1008 -51 1026 -74 q 985 -24 998 -24 q 939 -48 979 -24 m 981 -47 q 985 -56 985 -48 q 972 -64 979 -64 l 966 -54 q 981 -47 976 -47 m 464 -51 q 440 -84 452 -84 q 443 -93 443 -89 q 430 -124 443 -96 l 431 -124 q 449 -132 445 -132 l 461 -105 l 463 -105 q 486 -115 467 -105 q 494 -99 486 -113 q 470 -87 484 -96 q 477 -75 475 -75 q 511 -90 506 -90 l 512 -90 q 518 -75 512 -85 q 464 -50 465 -50 l 464 -51 m 866 -83 q 880 -115 880 -111 q 876 -123 880 -118 q 897 -157 887 -123 q 917 -149 917 -152 q 906 -119 906 -125 q 923 -113 922 -113 q 938 -141 936 -141 l 956 -134 l 942 -104 l 945 -93 q 924 -58 935 -93 q 866 -83 921 -58 m 995 -74 l 998 -74 q 1004 -81 1000 -74 l 1004 -83 q 990 -93 1002 -87 l 984 -84 l 984 -81 q 995 -74 984 -79 m 507 -117 q 511 -126 511 -122 q 506 -145 506 -142 l 506 -149 q 545 -170 506 -163 l 551 -170 q 568 -142 563 -170 q 576 -138 576 -139 q 573 -129 573 -133 q 579 -105 579 -107 q 533 -83 579 -90 q 515 -113 523 -83 q 507 -117 507 -115 m 911 -84 l 912 -84 q 916 -96 916 -94 l 899 -104 q 893 -92 895 -99 q 911 -84 905 -84 m 805 -100 l 812 -134 l 808 -141 l 808 -142 q 824 -178 819 -142 l 825 -178 l 878 -165 q 873 -149 873 -151 l 841 -156 q 836 -138 836 -145 q 841 -132 838 -138 q 825 -99 830 -132 q 824 -94 824 -99 q 805 -100 805 -98 m 597 -100 q 585 -139 593 -139 q 583 -141 583 -139 q 589 -149 587 -142 l 585 -181 l 587 -181 q 606 -182 587 -181 l 606 -181 l 610 -144 l 612 -144 q 633 -187 614 -147 q 652 -190 648 -190 q 664 -153 652 -157 q 659 -145 661 -146 l 664 -109 l 644 -106 q 636 -145 640 -145 q 614 -102 618 -102 q 597 -100 603 -100 m 542 -104 q 557 -109 557 -105 q 541 -150 546 -150 q 528 -144 528 -147 q 542 -104 538 -104 m 670 -109 l 670 -127 l 691 -127 q 694 -130 694 -128 l 694 -139 q 687 -151 694 -146 l 687 -153 q 694 -159 691 -153 l 694 -192 l 715 -192 l 715 -157 l 721 -151 l 713 -142 l 713 -129 q 717 -126 714 -126 l 736 -126 l 736 -109 l 670 -109 z "},"ª":{"ha":439,"x_min":0,"x_max":0,"o":""},"«":{"ha":640,"x_min":0,"x_max":0,"o":""},"¬":{"ha":688,"x_min":0,"x_max":0,"o":""}}}
